<svg width="160" height="160" viewBox="0 0 160 160" fill="none" xmlns="http://www.w3.org/2000/svg">
<path fill-rule="evenodd" clip-rule="evenodd" d="M10 80C10 118.66 41.3401 150 80 150C118.66 150 150 118.66 150 80C150 41.3401 118.66 10 80 10C41.3401 10 10 41.3401 10 80ZM160 80C160 124.183 124.183 160 80 160C35.8172 160 0 124.183 0 80C0 35.8172 35.8172 0 80 0C124.183 0 160 35.8172 160 80ZM85 115C85 117.761 82.7614 120 80 120C77.2386 120 75 117.761 75 115V57.0711L53.5355 78.5355C51.5829 80.4882 48.4171 80.4882 46.4645 78.5355C44.5118 76.5829 44.5118 73.4171 46.4645 71.4645L76.4645 41.4645C78.4171 39.5118 81.5829 39.5118 83.5355 41.4645L113.536 71.4645C115.488 73.4171 115.488 76.5829 113.536 78.5355C111.583 80.4882 108.417 80.4882 106.464 78.5355L85 57.0711V115Z" fill="#4C80C2"/>
</svg>
