<?xml version="1.0" encoding="utf-8"?>
<!-- Generator: Adobe Illustrator 25.4.1, SVG Export Plug-In . SVG Version: 6.00 Build 0)  -->
<svg version="1.1" id="Слой_1" xmlns="http://www.w3.org/2000/svg" xmlns:xlink="http://www.w3.org/1999/xlink" x="0px" y="0px"
	 viewBox="0 0 3774.9 154.5" style="enable-background:new 0 0 3774.9 154.5;" xml:space="preserve">
<style type="text/css">
	.st0{clip-path:url(#SVGID_00000114780500796686641200000009027009422861907633_);}
	.st1{fill:#D2D8E0;}
	.st2{clip-path:url(#SVGID_00000035533009206266501250000012306693864363893929_);}
	.st3{clip-path:url(#SVGID_00000006666750518884032140000009374747115208568458_);}
	.st4{clip-path:url(#SVGID_00000031168421875703106450000009746102111265103269_);}
	.st5{clip-path:url(#SVGID_00000118381428911791245500000014918286745681697460_);}
	.st6{clip-path:url(#SVGID_00000089573213112365600430000004831068687832496019_);}
	.st7{clip-path:url(#SVGID_00000121999884982512402620000011688138478043796414_);}
	.st8{clip-path:url(#SVGID_00000077296749878461336460000011110956448969440676_);}
	.st9{clip-path:url(#SVGID_00000085210519337274501780000013565857632960841659_);}
	.st10{clip-path:url(#SVGID_00000150785307908147668200000011390467194685367712_);}
	.st11{clip-path:url(#SVGID_00000096041359511133581830000017906474591160848545_);}
	.st12{clip-path:url(#SVGID_00000083062882689470086810000004951698076721003445_);}
	.st13{clip-path:url(#SVGID_00000101793794058761593880000003601340137711280013_);}
	.st14{clip-path:url(#SVGID_00000080175174879690587470000009761335793304769425_);}
	.st15{clip-path:url(#SVGID_00000090255319492644347590000018099435106392666298_);}
	.st16{clip-path:url(#SVGID_00000147929952635346677840000013901535487908027307_);}
	.st17{clip-path:url(#SVGID_00000113351455076893656580000014787382186479905210_);}
	.st18{clip-path:url(#SVGID_00000078730972370719194570000017570873458450251446_);}
	.st19{clip-path:url(#SVGID_00000057126796169353611580000007922483355101342907_);}
	.st20{clip-path:url(#SVGID_00000163785493751301864020000017567534659291886488_);}
	.st21{clip-path:url(#SVGID_00000134955308573186191130000007815712192206463895_);}
	.st22{clip-path:url(#SVGID_00000047036204883893011990000005395534611149244589_);}
</style>
<g>
	<g>
		<g>
			<defs>
				<rect id="SVGID_1_" y="0" width="3774.9" height="154.5"/>
			</defs>
			<clipPath id="SVGID_00000175285940329780522410000002151213979449265586_">
				<use xlink:href="#SVGID_1_"  style="overflow:visible;"/>
			</clipPath>
			<g style="clip-path:url(#SVGID_00000175285940329780522410000002151213979449265586_);">
				<path class="st1" d="M1649.8,133.1L1649.8,133.1L1649.8,133.1L1649.8,133.1L1649.8,133.1L1649.8,133.1L1649.8,133.1
					L1649.8,133.1L1649.8,133.1L1649.8,133.1c-0.2,0-0.2,0-0.3-0.1L1261.9-13.7c-0.5-0.2-0.8-0.8-0.6-1.3c0.2-0.5,0.8-0.8,1.3-0.6
					l384.8,145.7l-86-144.2c-0.2-0.3-0.2-0.7,0-1s0.5-0.5,0.9-0.5h165.3c0.4,0,0.7,0.2,0.9,0.5c0.2,0.3,0.2,0.7,0,1l-76.6,144.5
					l443.4-145.9c0.5-0.2,1.1,0.1,1.3,0.6s-0.1,1.1-0.6,1.3L1650.1,133C1650,133.1,1649.9,133.1,1649.8,133.1z M1564.1-13.6
					l85.7,143.7L1726-13.6C1726-13.6,1564.1-13.6,1564.1-13.6z"/>
			</g>
		</g>
	</g>
	<g>
		<g>
			<defs>
				<rect id="SVGID_00000123433752552030177030000013507820237217416335_" y="0" width="3774.9" height="154.5"/>
			</defs>
			<clipPath id="SVGID_00000136407886804526895250000006228788432350712455_">
				<use xlink:href="#SVGID_00000123433752552030177030000013507820237217416335_"  style="overflow:visible;"/>
			</clipPath>
			<g style="clip-path:url(#SVGID_00000136407886804526895250000006228788432350712455_);">
				<path class="st1" d="M2258.1,115c-0.1,0-0.2,0-0.3,0L1831.4-13.6c-0.5-0.2-0.8-0.7-0.7-1.2c0.2-0.5,0.7-0.8,1.2-0.7l424.7,128.1
					l-31.5-126.9c-0.1-0.5,0.2-1.1,0.7-1.2c0.5-0.1,1.1,0.2,1.2,0.7l31.9,128.6c0.1,0.3,0,0.7-0.3,1
					C2258.6,114.9,2258.4,115,2258.1,115z"/>
			</g>
		</g>
	</g>
	<g>
		<g>
			<defs>
				<rect id="SVGID_00000018927320358688701960000002298350050899690684_" y="0" width="3774.9" height="154.5"/>
			</defs>
			<clipPath id="SVGID_00000103246443722226632360000017993058596599471773_">
				<use xlink:href="#SVGID_00000018927320358688701960000002298350050899690684_"  style="overflow:visible;"/>
			</clipPath>
			<g style="clip-path:url(#SVGID_00000103246443722226632360000017993058596599471773_);">
				<path class="st1" d="M2258.1,115c-0.3,0-0.7-0.2-0.9-0.5c-0.3-0.4-0.2-1,0.2-1.3l163.9-128.6c0.4-0.3,1.1-0.3,1.4,0.2
					c0.3,0.4,0.3,1.1-0.2,1.4l-158,124l297.3-125.7c0.5-0.2,1.1,0,1.3,0.5s0,1.1-0.5,1.3l-304.2,128.6
					C2258.4,115,2258.2,115,2258.1,115z"/>
			</g>
		</g>
	</g>
	<g>
		<g>
			<defs>
				<rect id="SVGID_00000061437991134290072060000003205320594524091563_" y="0" width="3774.9" height="154.5"/>
			</defs>
			<clipPath id="SVGID_00000054234555724296850460000004029718852159320971_">
				<use xlink:href="#SVGID_00000061437991134290072060000003205320594524091563_"  style="overflow:visible;"/>
			</clipPath>
			<g style="clip-path:url(#SVGID_00000054234555724296850460000004029718852159320971_);">
				<path class="st1" d="M2633.1,148.3c-0.3,0-0.5-0.1-0.7-0.3L2481-13.9c-0.4-0.4-0.4-1,0-1.4s1-0.4,1.4,0l149.8,160.2l8.3-159.6
					c0-0.6,0.5-1,1.1-0.9c0.6,0,1,0.5,0.9,1.1l-8.4,161.9c0,0.4-0.3,0.8-0.7,0.9C2633.3,148.3,2633.2,148.3,2633.1,148.3z"/>
			</g>
		</g>
	</g>
	<g>
		<g>
			<defs>
				<rect id="SVGID_00000045601466788717255300000010628626502414487959_" y="0" width="3774.9" height="154.5"/>
			</defs>
			<clipPath id="SVGID_00000023251635043888094180000001918408574689243538_">
				<use xlink:href="#SVGID_00000045601466788717255300000010628626502414487959_"  style="overflow:visible;"/>
			</clipPath>
			<g style="clip-path:url(#SVGID_00000023251635043888094180000001918408574689243538_);">
				<path class="st1" d="M2633.1,148.3c-0.3,0-0.6-0.2-0.8-0.4c-0.3-0.4-0.2-0.9,0.1-1.2l147.3-161.9c0.4-0.4,1-0.4,1.4-0.1
					c0.4,0.4,0.4,1,0.1,1.4l-144.3,158.6l390-160.2c0.5-0.2,1.1,0,1.3,0.5s0,1.1-0.5,1.3l-394.1,161.9
					C2633.4,148.3,2633.2,148.3,2633.1,148.3z"/>
			</g>
		</g>
	</g>
	<g>
		<g>
			<defs>
				<rect id="SVGID_00000134215939536234960010000002588562711613338257_" y="0" width="3774.9" height="154.5"/>
			</defs>
			<clipPath id="SVGID_00000137113343565332204070000007421371766795520187_">
				<use xlink:href="#SVGID_00000134215939536234960010000002588562711613338257_"  style="overflow:visible;"/>
			</clipPath>
			<g style="clip-path:url(#SVGID_00000137113343565332204070000007421371766795520187_);">
				<path class="st1" d="M3156.6,148.3c-0.3,0-0.6-0.2-0.8-0.4c-0.3-0.4-0.2-0.9,0.1-1.2l147.2-161.9c0.4-0.4,1-0.4,1.4-0.1
					c0.4,0.4,0.4,1,0.1,1.4l-144.2,158.6l389.9-160.2c0.5-0.2,1.1,0,1.3,0.5s0,1.1-0.5,1.3l-394,161.9
					C3156.9,148.3,3156.7,148.3,3156.6,148.3z"/>
			</g>
		</g>
	</g>
	<g>
		<g>
			<defs>
				<rect id="SVGID_00000079483790232613787130000017987932365982634646_" y="0" width="3774.9" height="154.5"/>
			</defs>
			<clipPath id="SVGID_00000179635076430180625200000014334715659120030599_">
				<use xlink:href="#SVGID_00000079483790232613787130000017987932365982634646_"  style="overflow:visible;"/>
			</clipPath>
			<g style="clip-path:url(#SVGID_00000179635076430180625200000014334715659120030599_);">
				<path class="st1" d="M3156.6,148.3c-0.2,0-0.3,0-0.5-0.1L2851.6-13.7c-0.5-0.3-0.7-0.9-0.4-1.4s0.9-0.7,1.4-0.4l304.5,161.9
					c0.5,0.3,0.7,0.9,0.4,1.4C3157.3,148.1,3157,148.3,3156.6,148.3z"/>
			</g>
		</g>
	</g>
	<g>
		<g>
			<defs>
				<rect id="SVGID_00000143607855139285061970000006667498070851218859_" y="0" width="3774.9" height="154.5"/>
			</defs>
			<clipPath id="SVGID_00000158028325715622042580000012093500920999115957_">
				<use xlink:href="#SVGID_00000143607855139285061970000006667498070851218859_"  style="overflow:visible;"/>
			</clipPath>
			<g style="clip-path:url(#SVGID_00000158028325715622042580000012093500920999115957_);">
				<path class="st1" d="M3375.8,58.3c-0.1,0-0.1,0-0.2,0l-440-71.9c-0.5-0.1-0.9-0.6-0.8-1.1c0.1-0.5,0.6-0.9,1.1-0.8l440,71.9
					c0.5,0.1,0.9,0.6,0.8,1.1C3376.7,58,3376.3,58.3,3375.8,58.3z"/>
			</g>
		</g>
	</g>
	<g>
		<g>
			<defs>
				<rect id="SVGID_00000092435125093675635340000012590493927053047997_" y="0" width="3774.9" height="154.5"/>
			</defs>
			<clipPath id="SVGID_00000070079414505622460190000014755998695763600027_">
				<use xlink:href="#SVGID_00000092435125093675635340000012590493927053047997_"  style="overflow:visible;"/>
			</clipPath>
			<g style="clip-path:url(#SVGID_00000070079414505622460190000014755998695763600027_);">
				<path class="st1" d="M808.2,115c-0.3,0-0.5-0.1-0.7-0.3c-0.3-0.3-0.4-0.7-0.2-1.1L854.9-15c0.2-0.5,0.8-0.8,1.3-0.6
					s0.8,0.8,0.6,1.3L810,112.2l313.8-127.7c0.5-0.2,1.1,0,1.3,0.5c0.2,0.5,0,1.1-0.5,1.3l-316,128.6C808.5,115,808.3,115,808.2,115
					z"/>
			</g>
		</g>
	</g>
	<g>
		<g>
			<defs>
				<rect id="SVGID_00000129183270447564904620000018247498799280909187_" y="0" width="3774.9" height="154.5"/>
			</defs>
			<clipPath id="SVGID_00000169533047501345534350000007020637674948365988_">
				<use xlink:href="#SVGID_00000129183270447564904620000018247498799280909187_"  style="overflow:visible;"/>
			</clipPath>
			<g style="clip-path:url(#SVGID_00000169533047501345534350000007020637674948365988_);">
				<path class="st1" d="M807.5,112.9c-0.1,0.1-0.1,0.1-0.2,0.1c-0.5,0.2-1.1,0.1-1.4-0.4l-65.8-124c-0.2-0.5-0.1-1.1,0.4-1.4
					c0.5-0.2,1.1-0.1,1.4,0.4l65.8,124C808,112.1,807.9,112.6,807.5,112.9z"/>
			</g>
		</g>
	</g>
	<g>
		<g>
			<defs>
				<rect id="SVGID_00000028309005237399611670000008038772152819057563_" y="0" width="3774.9" height="154.5"/>
			</defs>
			<clipPath id="SVGID_00000040574791018635472840000010407294707672259457_">
				<use xlink:href="#SVGID_00000028309005237399611670000008038772152819057563_"  style="overflow:visible;"/>
			</clipPath>
			<g style="clip-path:url(#SVGID_00000040574791018635472840000010407294707672259457_);">
				<circle class="st1" cx="1650.3" cy="132.1" r="7.2"/>
			</g>
		</g>
	</g>
	<g>
		<g>
			<defs>
				<rect id="SVGID_00000135655298827443022020000016502865250861770419_" y="0" width="3774.9" height="154.5"/>
			</defs>
			<clipPath id="SVGID_00000137821286874437620650000009424320039567002804_">
				<use xlink:href="#SVGID_00000135655298827443022020000016502865250861770419_"  style="overflow:visible;"/>
			</clipPath>
			<g style="clip-path:url(#SVGID_00000137821286874437620650000009424320039567002804_);">
				<path class="st1" d="M3573.4,133.1h-0.1l0,0l0,0l0,0l0,0h-0.1l0,0l0,0l0,0l0,0l0,0l0,0h-0.1L3185.5-13.7
					c-0.5-0.2-0.8-0.8-0.6-1.3s0.8-0.8,1.3-0.6L3571,130.1l-86-144.2c-0.2-0.3-0.2-0.7,0-1s0.5-0.5,0.9-0.5h165.3
					c0.4,0,0.7,0.2,0.9,0.5s0.2,0.7,0,1l-76.6,144.5l443.4-145.9c0.5-0.2,1.1,0.1,1.3,0.6s-0.1,1.1-0.6,1.3L3573.7,133
					C3573.6,133.1,3573.5,133.1,3573.4,133.1z M3487.7-13.6l85.7,143.7l76.2-143.7C3649.6-13.6,3487.7-13.6,3487.7-13.6z"/>
			</g>
		</g>
	</g>
	<g>
		<g>
			<defs>
				<rect id="SVGID_00000067207207541528847240000018417299564567830420_" y="0" width="3774.9" height="154.5"/>
			</defs>
			<clipPath id="SVGID_00000119805642051479800720000001991696976502175890_">
				<use xlink:href="#SVGID_00000067207207541528847240000018417299564567830420_"  style="overflow:visible;"/>
			</clipPath>
			<g style="clip-path:url(#SVGID_00000119805642051479800720000001991696976502175890_);">
				<circle class="st1" cx="3573.9" cy="132.1" r="7.2"/>
			</g>
		</g>
	</g>
	<g>
		<g>
			<defs>
				<rect id="SVGID_00000047040233579718557170000009464648877441406611_" y="0" width="3774.9" height="154.5"/>
			</defs>
			<clipPath id="SVGID_00000095336184584944242850000006909090226725445522_">
				<use xlink:href="#SVGID_00000047040233579718557170000009464648877441406611_"  style="overflow:visible;"/>
			</clipPath>
			<g style="clip-path:url(#SVGID_00000095336184584944242850000006909090226725445522_);">
				<circle class="st1" cx="2258.1" cy="114" r="7.2"/>
			</g>
		</g>
	</g>
	<g>
		<g>
			<defs>
				<rect id="SVGID_00000008148696852022834450000007763853258889880962_" y="0" width="3774.9" height="154.5"/>
			</defs>
			<clipPath id="SVGID_00000003786108570995714150000015802120051509952131_">
				<use xlink:href="#SVGID_00000008148696852022834450000007763853258889880962_"  style="overflow:visible;"/>
			</clipPath>
			<g style="clip-path:url(#SVGID_00000003786108570995714150000015802120051509952131_);">
				<circle class="st1" cx="2633.1" cy="147.3" r="7.2"/>
			</g>
		</g>
	</g>
	<g>
		<g>
			<defs>
				<rect id="SVGID_00000109717380708092641580000003470142454368564630_" y="0" width="3774.9" height="154.5"/>
			</defs>
			<clipPath id="SVGID_00000072273022375631221470000009488641790039621504_">
				<use xlink:href="#SVGID_00000109717380708092641580000003470142454368564630_"  style="overflow:visible;"/>
			</clipPath>
			<g style="clip-path:url(#SVGID_00000072273022375631221470000009488641790039621504_);">
				<circle class="st1" cx="3156.6" cy="147.3" r="7.2"/>
			</g>
		</g>
	</g>
	<g>
		<g>
			<defs>
				<rect id="SVGID_00000137845271213925164500000008642818655336715928_" y="0" width="3774.9" height="154.5"/>
			</defs>
			<clipPath id="SVGID_00000090280479368287776350000000853595960548598940_">
				<use xlink:href="#SVGID_00000137845271213925164500000008642818655336715928_"  style="overflow:visible;"/>
			</clipPath>
			<g style="clip-path:url(#SVGID_00000090280479368287776350000000853595960548598940_);">
				<circle class="st1" cx="2928.6" cy="24.7" r="7.2"/>
			</g>
		</g>
	</g>
	<g>
		<g>
			<defs>
				<rect id="SVGID_00000178195085798920181010000017675871484650389683_" y="0" width="3774.9" height="154.5"/>
			</defs>
			<clipPath id="SVGID_00000003069877377578745490000013572721367004500118_">
				<use xlink:href="#SVGID_00000178195085798920181010000017675871484650389683_"  style="overflow:visible;"/>
			</clipPath>
			<g style="clip-path:url(#SVGID_00000003069877377578745490000013572721367004500118_);">
				<circle class="st1" cx="3374.4" cy="57.3" r="7.2"/>
			</g>
		</g>
	</g>
	<g>
		<g>
			<defs>
				<rect id="SVGID_00000147923565956942107460000008829173062282123916_" y="0" width="3774.9" height="154.5"/>
			</defs>
			<clipPath id="SVGID_00000178190723173249736580000001011532070068181421_">
				<use xlink:href="#SVGID_00000147923565956942107460000008829173062282123916_"  style="overflow:visible;"/>
			</clipPath>
			<g style="clip-path:url(#SVGID_00000178190723173249736580000001011532070068181421_);">
				<path class="st1" d="M-290.9,148.3c-0.3,0-0.6-0.2-0.8-0.4c-0.3-0.4-0.2-0.9,0.1-1.2l147.2-161.9c0.4-0.4,1-0.4,1.4-0.1
					c0.4,0.4,0.4,1,0.1,1.4l-144.2,158.6L102.7-15.5c0.5-0.2,1.1,0,1.3,0.5s0,1.1-0.5,1.3l-394,161.9
					C-290.6,148.3-290.8,148.3-290.9,148.3z"/>
			</g>
		</g>
	</g>
	<g>
		<g>
			<defs>
				<rect id="SVGID_00000183224503158759985150000012413073812965224841_" y="0" width="3774.9" height="154.5"/>
			</defs>
			<clipPath id="SVGID_00000165201895538087087100000006664262416551743416_">
				<use xlink:href="#SVGID_00000183224503158759985150000012413073812965224841_"  style="overflow:visible;"/>
			</clipPath>
			<g style="clip-path:url(#SVGID_00000165201895538087087100000006664262416551743416_);">
				<path class="st1" d="M125.9,133.1c-0.1,0-0.2,0-0.4-0.1L-262-13.7c-0.5-0.2-0.8-0.8-0.6-1.3c0.2-0.5,0.8-0.8,1.3-0.6
					l384.8,145.7l-86-144.2c-0.2-0.3-0.2-0.7,0-1s0.5-0.5,0.9-0.5h165.3c0.4,0,0.7,0.2,0.9,0.5s0.2,0.7,0,1L128,130.4L571.5-15.5
					c0.5-0.2,1.1,0.1,1.3,0.6s-0.1,1.1-0.6,1.3L126.2,133C126.1,133.1,126,133.1,125.9,133.1z M40.2-13.6l85.7,143.7L202-13.6H40.2z
					"/>
			</g>
		</g>
	</g>
	<g>
		<g>
			<defs>
				<rect id="SVGID_00000158014151391002122960000009502510981292933556_" y="0" width="3774.9" height="154.5"/>
			</defs>
			<clipPath id="SVGID_00000046320038264792524490000007865956150137880493_">
				<use xlink:href="#SVGID_00000158014151391002122960000009502510981292933556_"  style="overflow:visible;"/>
			</clipPath>
			<g style="clip-path:url(#SVGID_00000046320038264792524490000007865956150137880493_);">
				<circle class="st1" cx="126.4" cy="132.1" r="7.2"/>
			</g>
		</g>
	</g>
	<g>
		<g>
			<defs>
				<rect id="SVGID_00000172402626088052439220000011543838045541121922_" y="0" width="3774.9" height="154.5"/>
			</defs>
			<clipPath id="SVGID_00000103254741076735154710000018082623982503618952_">
				<use xlink:href="#SVGID_00000172402626088052439220000011543838045541121922_"  style="overflow:visible;"/>
			</clipPath>
			<g style="clip-path:url(#SVGID_00000103254741076735154710000018082623982503618952_);">
				<circle class="st1" cx="1967.6" cy="25.9" r="7.2"/>
			</g>
		</g>
	</g>
</g>
<circle class="st1" cx="808.8" cy="115.3" r="6.6"/>
</svg>
