<?xml version="1.0" encoding="utf-8"?>
<!-- Generator: Adobe Illustrator 25.4.1, SVG Export Plug-In . SVG Version: 6.00 Build 0)  -->
<svg version="1.1" id="Слой_1" xmlns="http://www.w3.org/2000/svg" xmlns:xlink="http://www.w3.org/1999/xlink" x="0px" y="0px"
	 viewBox="0 0 3774.9 154.5" style="enable-background:new 0 0 3774.9 154.5;" xml:space="preserve">
<style type="text/css">
	.st0{clip-path:url(#SVGID_00000089553245821421826430000011763258545192085435_);}
	.st1{fill:#D2D8E0;}
	.st2{clip-path:url(#SVGID_00000083070790174251020340000006027455997541960867_);}
	.st3{clip-path:url(#SVGID_00000124847842737745037340000010048531939238889659_);}
	.st4{clip-path:url(#SVGID_00000088104260732563855720000011650131628075599783_);}
	.st5{clip-path:url(#SVGID_00000063634782740179384130000017360067068338880422_);}
	.st6{clip-path:url(#SVGID_00000033349800179101222820000017434040343117211550_);}
	.st7{clip-path:url(#SVGID_00000175305197570354443380000009396549039383752334_);}
	.st8{clip-path:url(#SVGID_00000097494851828348353130000014161564258897226908_);}
	.st9{clip-path:url(#SVGID_00000048493637285338165700000014654137841093630346_);}
	.st10{clip-path:url(#SVGID_00000085953420281430245300000001775110906318948738_);}
	.st11{clip-path:url(#SVGID_00000014624692405493092490000002960750628880500119_);}
	.st12{clip-path:url(#SVGID_00000093888045897604070480000006324858108303661229_);}
	.st13{clip-path:url(#SVGID_00000132060041569398036710000007479789449747913376_);}
	.st14{clip-path:url(#SVGID_00000035506359348563829460000016221548639710828695_);}
	.st15{clip-path:url(#SVGID_00000156575910263587915250000003257758830981902233_);}
	.st16{clip-path:url(#SVGID_00000145769939709502878630000005939493647730411707_);}
	.st17{clip-path:url(#SVGID_00000020371765454560282820000013177366775144091580_);}
	.st18{clip-path:url(#SVGID_00000177461467619759628680000008011880845967644092_);}
	.st19{clip-path:url(#SVGID_00000001626927297182174710000017977358819764467642_);}
	.st20{clip-path:url(#SVGID_00000167398395195244851830000010172078662293270701_);}
	.st21{clip-path:url(#SVGID_00000085223031219946568550000015700882068038510237_);}
	.st22{clip-path:url(#SVGID_00000138534091933120214560000014297045961441072565_);}
</style>
<g>
	<g>
		<defs>
			<rect id="SVGID_1_" width="3774.9" height="154.5"/>
		</defs>
		<clipPath id="SVGID_00000115506025783448986280000014117429692157560249_">
			<use xlink:href="#SVGID_1_"  style="overflow:visible;"/>
		</clipPath>
		<g style="clip-path:url(#SVGID_00000115506025783448986280000014117429692157560249_);">
			<path class="st1" d="M1649.8,133.1c0,0-0.1,0-0.1,0c0,0,0,0,0,0c0,0,0,0,0,0c0,0,0,0,0,0c0,0,0,0,0,0l0,0c0,0,0,0,0,0
				c0,0,0,0,0,0c0,0,0,0,0,0c-0.1,0-0.1,0-0.2-0.1L1261.9-13.7c-0.5-0.2-0.8-0.8-0.6-1.3c0.2-0.5,0.8-0.8,1.3-0.6l384.8,145.7
				l-86-144.2c-0.2-0.3-0.2-0.7,0-1c0.2-0.3,0.5-0.5,0.9-0.5h165.3c0.4,0,0.7,0.2,0.9,0.5c0.2,0.3,0.2,0.7,0,1l-76.6,144.5
				l443.4-145.9c0.5-0.2,1.1,0.1,1.3,0.6c0.2,0.5-0.1,1.1-0.6,1.3L1650.1,133C1650,133.1,1649.9,133.1,1649.8,133.1z M1564.1-13.6
				l85.7,143.7l76.2-143.7H1564.1z"/>
		</g>
	</g>
	<g>
		<defs>
			<rect id="SVGID_00000022524725058662877340000009889390736480222115_" width="3774.9" height="154.5"/>
		</defs>
		<clipPath id="SVGID_00000071552281857585690970000014938250819816029061_">
			<use xlink:href="#SVGID_00000022524725058662877340000009889390736480222115_"  style="overflow:visible;"/>
		</clipPath>
		<g style="clip-path:url(#SVGID_00000071552281857585690970000014938250819816029061_);">
			<path class="st1" d="M2258.1,115c-0.1,0-0.2,0-0.3,0L1831.4-13.6c-0.5-0.2-0.8-0.7-0.7-1.2c0.2-0.5,0.7-0.8,1.2-0.7l424.7,128.1
				l-31.5-126.9c-0.1-0.5,0.2-1.1,0.7-1.2c0.5-0.1,1.1,0.2,1.2,0.7l31.9,128.6c0.1,0.3,0,0.7-0.3,1
				C2258.6,114.9,2258.4,115,2258.1,115z"/>
		</g>
	</g>
	<g>
		<defs>
			<rect id="SVGID_00000107576857270049001920000012060648377468177322_" width="3774.9" height="154.5"/>
		</defs>
		<clipPath id="SVGID_00000081618496327222077090000010445284927665033363_">
			<use xlink:href="#SVGID_00000107576857270049001920000012060648377468177322_"  style="overflow:visible;"/>
		</clipPath>
		<g style="clip-path:url(#SVGID_00000081618496327222077090000010445284927665033363_);">
			<path class="st1" d="M2258.1,115c-0.3,0-0.7-0.2-0.9-0.5c-0.3-0.4-0.2-1,0.2-1.3l163.9-128.6c0.4-0.3,1.1-0.3,1.4,0.2
				c0.3,0.4,0.3,1.1-0.2,1.4l-158,124l297.3-125.7c0.5-0.2,1.1,0,1.3,0.5c0.2,0.5,0,1.1-0.5,1.3l-304.2,128.6
				C2258.4,115,2258.2,115,2258.1,115z"/>
		</g>
	</g>
	<g>
		<defs>
			<rect id="SVGID_00000093872800680850415050000002375372378569803156_" width="3774.9" height="154.5"/>
		</defs>
		<clipPath id="SVGID_00000096022476242323899380000008714616916129450928_">
			<use xlink:href="#SVGID_00000093872800680850415050000002375372378569803156_"  style="overflow:visible;"/>
		</clipPath>
		<g style="clip-path:url(#SVGID_00000096022476242323899380000008714616916129450928_);">
			<path class="st1" d="M2633.1,148.3c-0.3,0-0.5-0.1-0.7-0.3L2481-13.9c-0.4-0.4-0.4-1,0-1.4c0.4-0.4,1-0.4,1.4,0l149.8,160.2
				l8.3-159.6c0-0.6,0.5-1,1.1-0.9c0.6,0,1,0.5,0.9,1.1l-8.4,161.9c0,0.4-0.3,0.8-0.7,0.9C2633.3,148.3,2633.2,148.3,2633.1,148.3z"
				/>
		</g>
	</g>
	<g>
		<defs>
			<rect id="SVGID_00000168115629205995989150000013213095492400365498_" width="3774.9" height="154.5"/>
		</defs>
		<clipPath id="SVGID_00000170254162772351530670000011854861521069400718_">
			<use xlink:href="#SVGID_00000168115629205995989150000013213095492400365498_"  style="overflow:visible;"/>
		</clipPath>
		<g style="clip-path:url(#SVGID_00000170254162772351530670000011854861521069400718_);">
			<path class="st1" d="M2633.1,148.3c-0.3,0-0.6-0.2-0.8-0.4c-0.3-0.4-0.2-0.9,0.1-1.2l147.3-161.9c0.4-0.4,1-0.4,1.4-0.1
				c0.4,0.4,0.4,1,0.1,1.4l-144.3,158.6l390-160.2c0.5-0.2,1.1,0,1.3,0.5c0.2,0.5,0,1.1-0.5,1.3l-394.1,161.9
				C2633.4,148.3,2633.2,148.3,2633.1,148.3z"/>
		</g>
	</g>
	<g>
		<defs>
			<rect id="SVGID_00000057861735503049793450000001929144145276185728_" width="3774.9" height="154.5"/>
		</defs>
		<clipPath id="SVGID_00000001657460551738886670000014264997246109125000_">
			<use xlink:href="#SVGID_00000057861735503049793450000001929144145276185728_"  style="overflow:visible;"/>
		</clipPath>
		<g style="clip-path:url(#SVGID_00000001657460551738886670000014264997246109125000_);">
			<path class="st1" d="M3156.6,148.3c-0.3,0-0.6-0.2-0.8-0.4c-0.3-0.4-0.2-0.9,0.1-1.2l147.2-161.9c0.4-0.4,1-0.4,1.4-0.1
				c0.4,0.4,0.4,1,0.1,1.4l-144.2,158.6l389.9-160.2c0.5-0.2,1.1,0,1.3,0.5c0.2,0.5,0,1.1-0.5,1.3l-394,161.9
				C3156.9,148.3,3156.7,148.3,3156.6,148.3z"/>
		</g>
	</g>
	<g>
		<defs>
			<rect id="SVGID_00000055688477955181342910000002673316166640891572_" width="3774.9" height="154.5"/>
		</defs>
		<clipPath id="SVGID_00000096765483394328857340000001353668687017080719_">
			<use xlink:href="#SVGID_00000055688477955181342910000002673316166640891572_"  style="overflow:visible;"/>
		</clipPath>
		<g style="clip-path:url(#SVGID_00000096765483394328857340000001353668687017080719_);">
			<path class="st1" d="M3156.6,148.3c-0.2,0-0.3,0-0.5-0.1L2851.6-13.7c-0.5-0.3-0.7-0.9-0.4-1.4c0.3-0.5,0.9-0.7,1.4-0.4
				l304.5,161.9c0.5,0.3,0.7,0.9,0.4,1.4C3157.3,148.1,3157,148.3,3156.6,148.3z"/>
		</g>
	</g>
	<g>
		<defs>
			<rect id="SVGID_00000168814160897635885070000012813106616780922300_" width="3774.9" height="154.5"/>
		</defs>
		<clipPath id="SVGID_00000059298943340039407520000000126803584899687337_">
			<use xlink:href="#SVGID_00000168814160897635885070000012813106616780922300_"  style="overflow:visible;"/>
		</clipPath>
		<g style="clip-path:url(#SVGID_00000059298943340039407520000000126803584899687337_);">
			<path class="st1" d="M3375.8,58.3c-0.1,0-0.1,0-0.2,0l-440-71.9c-0.5-0.1-0.9-0.6-0.8-1.1c0.1-0.5,0.6-0.9,1.1-0.8l440,71.9
				c0.5,0.1,0.9,0.6,0.8,1.1C3376.7,58,3376.3,58.3,3375.8,58.3z"/>
		</g>
	</g>
	<g>
		<defs>
			<rect id="SVGID_00000097467016275456579470000002575573997712270775_" width="3774.9" height="154.5"/>
		</defs>
		<clipPath id="SVGID_00000031898633172379320290000014125721672914472350_">
			<use xlink:href="#SVGID_00000097467016275456579470000002575573997712270775_"  style="overflow:visible;"/>
		</clipPath>
		<g style="clip-path:url(#SVGID_00000031898633172379320290000014125721672914472350_);">
			<path class="st1" d="M808.2,115c-0.3,0-0.5-0.1-0.7-0.3c-0.3-0.3-0.4-0.7-0.2-1.1l47.6-128.6c0.2-0.5,0.8-0.8,1.3-0.6
				c0.5,0.2,0.8,0.8,0.6,1.3l-46.8,126.5l313.8-127.7c0.5-0.2,1.1,0,1.3,0.5c0.2,0.5,0,1.1-0.5,1.3L808.6,114.9
				C808.5,115,808.3,115,808.2,115z"/>
		</g>
	</g>
	<g>
		<defs>
			<rect id="SVGID_00000062887462674937820470000007121681041056843705_" width="3774.9" height="154.5"/>
		</defs>
		<clipPath id="SVGID_00000090274566720146325700000008134737474225018241_">
			<use xlink:href="#SVGID_00000062887462674937820470000007121681041056843705_"  style="overflow:visible;"/>
		</clipPath>
		<g style="clip-path:url(#SVGID_00000090274566720146325700000008134737474225018241_);">
			<path class="st1" d="M758.7,115c-0.1,0-0.1,0-0.2,0c-0.5-0.1-0.9-0.6-0.8-1.2L784.3-24c0.1-0.5,0.6-0.9,1.2-0.8
				c0.5,0.1,0.9,0.6,0.8,1.2l-26.6,137.8C759.6,114.7,759.2,115,758.7,115z"/>
		</g>
	</g>
	<g>
		<defs>
			<rect id="SVGID_00000055706869986758542100000006826072351902295451_" width="3774.9" height="154.5"/>
		</defs>
		<clipPath id="SVGID_00000102510267796047730760000009553977598225151114_">
			<use xlink:href="#SVGID_00000055706869986758542100000006826072351902295451_"  style="overflow:visible;"/>
		</clipPath>
		<g style="clip-path:url(#SVGID_00000102510267796047730760000009553977598225151114_);">
			<circle class="st1" cx="1650.3" cy="132.1" r="7.2"/>
		</g>
	</g>
	<g>
		<defs>
			<rect id="SVGID_00000133495495722271688360000003342568093250764725_" width="3774.9" height="154.5"/>
		</defs>
		<clipPath id="SVGID_00000052102843377217535240000011017373198506093186_">
			<use xlink:href="#SVGID_00000133495495722271688360000003342568093250764725_"  style="overflow:visible;"/>
		</clipPath>
		<g style="clip-path:url(#SVGID_00000052102843377217535240000011017373198506093186_);">
			<path class="st1" d="M3573.4,133.1c0,0-0.1,0-0.1,0h0c0,0,0,0,0,0c0,0,0,0,0,0c0,0,0,0,0,0c0,0-0.1,0-0.1,0l0,0c0,0,0,0,0,0
				c0,0,0,0,0,0c0,0,0,0,0,0c0,0,0,0,0,0c0,0,0,0,0,0c0,0-0.1,0-0.1,0L3185.5-13.7c-0.5-0.2-0.8-0.8-0.6-1.3
				c0.2-0.5,0.8-0.8,1.3-0.6l384.8,145.7l-86-144.2c-0.2-0.3-0.2-0.7,0-1c0.2-0.3,0.5-0.5,0.9-0.5h165.3c0.4,0,0.7,0.2,0.9,0.5
				c0.2,0.3,0.2,0.7,0,1l-76.6,144.5l443.4-145.9c0.5-0.2,1.1,0.1,1.3,0.6c0.2,0.5-0.1,1.1-0.6,1.3L3573.7,133
				C3573.6,133.1,3573.5,133.1,3573.4,133.1z M3487.7-13.6l85.7,143.7l76.2-143.7H3487.7z"/>
		</g>
	</g>
	<g>
		<defs>
			<rect id="SVGID_00000145743036801450408250000018351967890806121890_" width="3774.9" height="154.5"/>
		</defs>
		<clipPath id="SVGID_00000008844970749767943210000015421123740476799887_">
			<use xlink:href="#SVGID_00000145743036801450408250000018351967890806121890_"  style="overflow:visible;"/>
		</clipPath>
		<g style="clip-path:url(#SVGID_00000008844970749767943210000015421123740476799887_);">
			<circle class="st1" cx="3573.9" cy="132.1" r="7.2"/>
		</g>
	</g>
	<g>
		<defs>
			<rect id="SVGID_00000088816982429160255630000009822534729946359992_" width="3774.9" height="154.5"/>
		</defs>
		<clipPath id="SVGID_00000181053111034162667660000013443944143011021731_">
			<use xlink:href="#SVGID_00000088816982429160255630000009822534729946359992_"  style="overflow:visible;"/>
		</clipPath>
		<g style="clip-path:url(#SVGID_00000181053111034162667660000013443944143011021731_);">
			<circle class="st1" cx="2258.1" cy="114" r="7.2"/>
		</g>
	</g>
	<g>
		<defs>
			<rect id="SVGID_00000119816245994870581160000009193892609816452771_" width="3774.9" height="154.5"/>
		</defs>
		<clipPath id="SVGID_00000144299239555838990170000011552912946043426728_">
			<use xlink:href="#SVGID_00000119816245994870581160000009193892609816452771_"  style="overflow:visible;"/>
		</clipPath>
		<g style="clip-path:url(#SVGID_00000144299239555838990170000011552912946043426728_);">
			<circle class="st1" cx="2633.1" cy="147.3" r="7.2"/>
		</g>
	</g>
	<g>
		<defs>
			<rect id="SVGID_00000152972964867749117190000015233521639791081388_" width="3774.9" height="154.5"/>
		</defs>
		<clipPath id="SVGID_00000020373803398515228860000018204753446812282805_">
			<use xlink:href="#SVGID_00000152972964867749117190000015233521639791081388_"  style="overflow:visible;"/>
		</clipPath>
		<g style="clip-path:url(#SVGID_00000020373803398515228860000018204753446812282805_);">
			<circle class="st1" cx="3156.6" cy="147.3" r="7.2"/>
		</g>
	</g>
	<g>
		<defs>
			<rect id="SVGID_00000144325407424922021310000005111360168293731727_" width="3774.9" height="154.5"/>
		</defs>
		<clipPath id="SVGID_00000064313445057646883080000013482094176870173863_">
			<use xlink:href="#SVGID_00000144325407424922021310000005111360168293731727_"  style="overflow:visible;"/>
		</clipPath>
		<g style="clip-path:url(#SVGID_00000064313445057646883080000013482094176870173863_);">
			<circle class="st1" cx="2928.6" cy="24.7" r="7.2"/>
		</g>
	</g>
	<g>
		<defs>
			<rect id="SVGID_00000023254853452635583650000001747135204087827841_" width="3774.9" height="154.5"/>
		</defs>
		<clipPath id="SVGID_00000059996979389191898970000013457419244308818341_">
			<use xlink:href="#SVGID_00000023254853452635583650000001747135204087827841_"  style="overflow:visible;"/>
		</clipPath>
		<g style="clip-path:url(#SVGID_00000059996979389191898970000013457419244308818341_);">
			<circle class="st1" cx="3374.4" cy="57.3" r="7.2"/>
		</g>
	</g>
	<g>
		<defs>
			<rect id="SVGID_00000062180723674222573180000007827278749857787327_" width="3774.9" height="154.5"/>
		</defs>
		<clipPath id="SVGID_00000122692244136710761600000010658785046039000244_">
			<use xlink:href="#SVGID_00000062180723674222573180000007827278749857787327_"  style="overflow:visible;"/>
		</clipPath>
		<g style="clip-path:url(#SVGID_00000122692244136710761600000010658785046039000244_);">
			<path class="st1" d="M-290.9,148.3c-0.3,0-0.6-0.2-0.8-0.4c-0.3-0.4-0.2-0.9,0.1-1.2l147.2-161.9c0.4-0.4,1-0.4,1.4-0.1
				c0.4,0.4,0.4,1,0.1,1.4l-144.2,158.6L102.7-15.5c0.5-0.2,1.1,0,1.3,0.5s0,1.1-0.5,1.3l-394,161.9
				C-290.6,148.3-290.8,148.3-290.9,148.3z"/>
		</g>
	</g>
	<g>
		<defs>
			<rect id="SVGID_00000127034664617570593090000015250238940485671305_" width="3774.9" height="154.5"/>
		</defs>
		<clipPath id="SVGID_00000080919416102719446130000013698327997311546762_">
			<use xlink:href="#SVGID_00000127034664617570593090000015250238940485671305_"  style="overflow:visible;"/>
		</clipPath>
		<g style="clip-path:url(#SVGID_00000080919416102719446130000013698327997311546762_);">
			<path class="st1" d="M125.9,133.1c-0.1,0-0.2,0-0.4-0.1L-262-13.7c-0.5-0.2-0.8-0.8-0.6-1.3c0.2-0.5,0.8-0.8,1.3-0.6l384.8,145.7
				l-86-144.2c-0.2-0.3-0.2-0.7,0-1c0.2-0.3,0.5-0.5,0.9-0.5h165.3c0.4,0,0.7,0.2,0.9,0.5c0.2,0.3,0.2,0.7,0,1l-76.6,144.5
				L571.5-15.5c0.5-0.2,1.1,0.1,1.3,0.6c0.2,0.5-0.1,1.1-0.6,1.3L126.2,133C126.1,133.1,126,133.1,125.9,133.1z M40.2-13.6
				l85.7,143.7L202-13.6H40.2z"/>
		</g>
	</g>
	<g>
		<defs>
			<rect id="SVGID_00000029725904535002277230000005944669556696869533_" width="3774.9" height="154.5"/>
		</defs>
		<clipPath id="SVGID_00000084526043647170555750000012628045552763966614_">
			<use xlink:href="#SVGID_00000029725904535002277230000005944669556696869533_"  style="overflow:visible;"/>
		</clipPath>
		<g style="clip-path:url(#SVGID_00000084526043647170555750000012628045552763966614_);">
			<circle class="st1" cx="126.4" cy="132.1" r="7.2"/>
		</g>
	</g>
	<g>
		<defs>
			<rect id="SVGID_00000089558670887578745530000003476510920909154210_" width="3774.9" height="154.5"/>
		</defs>
		<clipPath id="SVGID_00000115481270884807453470000014070575385180171952_">
			<use xlink:href="#SVGID_00000089558670887578745530000003476510920909154210_"  style="overflow:visible;"/>
		</clipPath>
		<g style="clip-path:url(#SVGID_00000115481270884807453470000014070575385180171952_);">
			<circle class="st1" cx="1967.6" cy="25.9" r="7.2"/>
		</g>
	</g>
</g>
</svg>
