<?xml version="1.0" encoding="utf-8"?>
<!-- Generator: Adobe Illustrator 25.4.1, SVG Export Plug-In . SVG Version: 6.00 Build 0)  -->
<svg version="1.1" id="Слой_1" xmlns="http://www.w3.org/2000/svg" xmlns:xlink="http://www.w3.org/1999/xlink" x="0px" y="0px"
	 viewBox="0 0 3550 533.7" style="enable-background:new 0 0 3550 533.7;" xml:space="preserve">
<style type="text/css">
	.st0{clip-path:url(#SVGID_00000044888323018411936520000016547745545575046546_);}
	.st1{fill:#D2D8E0;}
	.st2{clip-path:url(#SVGID_00000057110744238017485390000003170664131362903714_);}
	.st3{clip-path:url(#SVGID_00000171701498146475982260000016744176690333023121_);}
	.st4{clip-path:url(#SVGID_00000167368080184119483370000000536642344103730341_);}
	.st5{clip-path:url(#SVGID_00000182515949068271995430000004650305043884968869_);}
	.st6{clip-path:url(#SVGID_00000003086448320543157210000008557496400374452876_);}
	.st7{clip-path:url(#SVGID_00000015322358659016934250000000196500084187482806_);}
	.st8{clip-path:url(#SVGID_00000134953337554154598040000008265105263650614183_);}
	.st9{clip-path:url(#SVGID_00000069399351417387165690000009826990127208839065_);}
	.st10{clip-path:url(#SVGID_00000088819387791004610550000017746606104408166041_);}
	.st11{clip-path:url(#SVGID_00000071534355921414806390000001287424527527063704_);}
	.st12{clip-path:url(#SVGID_00000169523969532187448130000010203776061812840076_);}
	.st13{clip-path:url(#SVGID_00000168112964469782297570000001180334408703201200_);}
	.st14{clip-path:url(#SVGID_00000018923402778246270020000006258273219073183617_);}
	.st15{clip-path:url(#SVGID_00000116924808597924901470000000990932641054491045_);}
	.st16{clip-path:url(#SVGID_00000147916958009633298820000006488825703398608056_);}
	.st17{clip-path:url(#SVGID_00000178206445235246114680000001823553722429898404_);}
	.st18{clip-path:url(#SVGID_00000090258857954206328310000013967705204173920703_);}
	.st19{clip-path:url(#SVGID_00000091721395076028003680000005558068378737817737_);}
	.st20{clip-path:url(#SVGID_00000150097368566475235170000003559234068042745017_);}
	.st21{clip-path:url(#SVGID_00000018944947007905887240000007972530982408020653_);}
	.st22{clip-path:url(#SVGID_00000176015155188525681740000002534097970181920678_);}
	.st23{clip-path:url(#SVGID_00000147915823020580002510000006458616881271766445_);}
	.st24{fill:none;}
	.st25{clip-path:url(#SVGID_00000129193554751687419450000015363826833215678123_);}
</style>
<g>
	<g>
		<defs>
			<rect id="SVGID_1_" x="1" y="0" width="3549" height="533.7"/>
		</defs>
		<clipPath id="SVGID_00000043455742872551430260000005799658914539218824_">
			<use xlink:href="#SVGID_1_"  style="overflow:visible;"/>
		</clipPath>
		<g style="clip-path:url(#SVGID_00000043455742872551430260000005799658914539218824_);">
			<path class="st1" d="M902.9,141.9L902.9,141.9L902.9,141.9L902.9,141.9L902.9,141.9L902.9,141.9c-0.1,0-0.2,0-0.3,0l0,0l0,0l0,0
				c0,0,0,0-0.1,0L515-4.9c-0.5-0.2-0.8-0.8-0.6-1.3s0.8-0.8,1.3-0.6l384.8,145.7l-86-144.2c-0.2-0.3-0.2-0.7,0-1s0.5-0.5,0.9-0.5
				h165.3c0.4,0,0.7,0.2,0.9,0.5s0.2,0.7,0,1L905,139.2L1348.4-6.7c0.5-0.2,1.1,0.1,1.3,0.6c0.2,0.5-0.1,1.1-0.6,1.3L903.2,141.8
				l0,0l0,0l0,0l0,0l0,0l0,0l0,0C903.1,141.9,903,141.9,902.9,141.9L902.9,141.9L902.9,141.9z M817.2-4.8l85.7,143.7L979-4.8H817.2z
				"/>
		</g>
	</g>
</g>
<g>
	<g>
		<defs>
			<rect id="SVGID_00000121965314874396717690000005979087190981800874_" x="1" y="0" width="3549" height="533.7"/>
		</defs>
		<clipPath id="SVGID_00000170243823187154189960000017188436620199499144_">
			<use xlink:href="#SVGID_00000121965314874396717690000005979087190981800874_"  style="overflow:visible;"/>
		</clipPath>
		<g style="clip-path:url(#SVGID_00000170243823187154189960000017188436620199499144_);">
			<path class="st1" d="M1511.2,123.8c-0.1,0-0.2,0-0.3,0L1084.5-4.8c-0.5-0.2-0.8-0.7-0.7-1.2c0.2-0.5,0.7-0.8,1.2-0.7l424.7,128.1
				l-31.4-127c-0.1-0.5,0.2-1.1,0.7-1.2c0.5-0.1,1.1,0.2,1.2,0.7l31.9,128.6c0.1,0.3,0,0.7-0.3,1
				C1511.7,123.7,1511.5,123.8,1511.2,123.8z"/>
		</g>
	</g>
</g>
<g>
	<g>
		<defs>
			<rect id="SVGID_00000090989247558825397250000007866801003773632945_" x="1" y="0" width="3549" height="533.7"/>
		</defs>
		<clipPath id="SVGID_00000126311182890887840900000016990345341802408841_">
			<use xlink:href="#SVGID_00000090989247558825397250000007866801003773632945_"  style="overflow:visible;"/>
		</clipPath>
		<g style="clip-path:url(#SVGID_00000126311182890887840900000016990345341802408841_);">
			<path class="st1" d="M1511.2,123.8c-0.3,0-0.7-0.2-0.9-0.5c-0.3-0.4-0.2-1,0.2-1.3l164-128.6c0.4-0.3,1.1-0.3,1.4,0.2
				c0.3,0.4,0.3,1.1-0.2,1.4l-158,124L1815-6.7c0.5-0.2,1.1,0,1.3,0.5c0.2,0.5,0,1.1-0.5,1.3l-304.2,128.6
				C1511.5,123.8,1511.3,123.8,1511.2,123.8z"/>
		</g>
	</g>
</g>
<g>
	<g>
		<defs>
			<rect id="SVGID_00000155861679999804802560000018443436432932416407_" x="1" y="0" width="3549" height="533.7"/>
		</defs>
		<clipPath id="SVGID_00000003803084262427709000000007142751759160255914_">
			<use xlink:href="#SVGID_00000155861679999804802560000018443436432932416407_"  style="overflow:visible;"/>
		</clipPath>
		<g style="clip-path:url(#SVGID_00000003803084262427709000000007142751759160255914_);">
			<path class="st1" d="M1886.2,157.1c-0.3,0-0.5-0.1-0.7-0.3L1734.1-5.1c-0.4-0.4-0.4-1,0-1.4s1-0.4,1.4,0l149.8,160.2l8.3-159.5
				c0-0.6,0.5-1,1.1-0.9c0.6,0,1,0.5,0.9,1.1l-8.4,161.9c0,0.4-0.3,0.8-0.7,0.9C1886.4,157.1,1886.3,157.1,1886.2,157.1z"/>
		</g>
	</g>
</g>
<g>
	<g>
		<defs>
			<rect id="SVGID_00000038377603015278796610000000617668267129238664_" x="1" y="0" width="3549" height="533.7"/>
		</defs>
		<clipPath id="SVGID_00000062152021162017188060000012817408942166342065_">
			<use xlink:href="#SVGID_00000038377603015278796610000000617668267129238664_"  style="overflow:visible;"/>
		</clipPath>
		<g style="clip-path:url(#SVGID_00000062152021162017188060000012817408942166342065_);">
			<path class="st1" d="M1886.2,157.1c-0.3,0-0.6-0.2-0.8-0.4c-0.3-0.4-0.2-0.9,0.1-1.2l147.3-162c0.4-0.4,1-0.4,1.4-0.1
				c0.4,0.4,0.4,1,0.1,1.4L1890,153.4L2280-6.8c0.5-0.2,1.1,0,1.3,0.5s0,1.1-0.5,1.3l-394.2,162
				C1886.5,157.1,1886.3,157.1,1886.2,157.1z"/>
		</g>
	</g>
</g>
<g>
	<g>
		<defs>
			<rect id="SVGID_00000176745685577750330770000015632112438791030708_" x="1" y="0" width="3549" height="533.7"/>
		</defs>
		<clipPath id="SVGID_00000090261166963818648750000004655907175637856134_">
			<use xlink:href="#SVGID_00000176745685577750330770000015632112438791030708_"  style="overflow:visible;"/>
		</clipPath>
		<g style="clip-path:url(#SVGID_00000090261166963818648750000004655907175637856134_);">
			<path class="st1" d="M2569.7,141.9c-0.1,0-0.2,0-0.3,0L2104.9-4.8c-0.5-0.2-0.8-0.7-0.7-1.3c0.2-0.5,0.7-0.8,1.3-0.7L2570,139.9
				c0.5,0.2,0.8,0.7,0.7,1.3C2570.5,141.6,2570.1,141.9,2569.7,141.9z"/>
		</g>
	</g>
</g>
<g>
	<g>
		<defs>
			<rect id="SVGID_00000019673331696406104680000000361568253076617397_" x="1" y="0" width="3549" height="533.7"/>
		</defs>
		<clipPath id="SVGID_00000080194023320408030240000011694918703575250589_">
			<use xlink:href="#SVGID_00000019673331696406104680000000361568253076617397_"  style="overflow:visible;"/>
		</clipPath>
		<g style="clip-path:url(#SVGID_00000080194023320408030240000011694918703575250589_);">
			<path class="st1" d="M1239.9,292.3c-0.1,0-0.3,0-0.4-0.1c-0.4-0.2-0.7-0.7-0.6-1.1l63.6-301.7c0.1-0.5,0.6-0.9,1.2-0.8
				c0.5,0.1,0.9,0.6,0.8,1.2l-62.6,296.8l208.2-302.2c0.3-0.5,0.9-0.6,1.4-0.3s0.6,0.9,0.3,1.4l-211,306.3
				C1240.5,292.1,1240.2,292.3,1239.9,292.3z"/>
		</g>
	</g>
</g>
<g>
	<g>
		<defs>
			<rect id="SVGID_00000111154353164288949950000016973400778107325080_" x="1" y="0" width="3549" height="533.7"/>
		</defs>
		<clipPath id="SVGID_00000127751628095429346940000005885067096022317967_">
			<use xlink:href="#SVGID_00000111154353164288949950000016973400778107325080_"  style="overflow:visible;"/>
		</clipPath>
		<g style="clip-path:url(#SVGID_00000127751628095429346940000005885067096022317967_);">
			<path class="st1" d="M1518.4,393.8c-0.3,0-0.6-0.1-0.8-0.4L1219.9-14.4c-0.3-0.4-0.2-1.1,0.2-1.4c0.4-0.3,1.1-0.2,1.4,0.2
				l296.3,405.9l76.4-423.9c0.1-0.5,0.6-0.9,1.2-0.8c0.5,0.1,0.9,0.6,0.8,1.2L1519.4,393c-0.1,0.4-0.4,0.7-0.8,0.8
				C1518.5,393.8,1518.5,393.8,1518.4,393.8z"/>
		</g>
	</g>
</g>
<g>
	<g>
		<defs>
			<rect id="SVGID_00000096028524814546497150000010660652744241718668_" x="1" y="0" width="3549" height="533.7"/>
		</defs>
		<clipPath id="SVGID_00000156585205307765026570000009075670035777103768_">
			<use xlink:href="#SVGID_00000096028524814546497150000010660652744241718668_"  style="overflow:visible;"/>
		</clipPath>
		<g style="clip-path:url(#SVGID_00000156585205307765026570000009075670035777103768_);">
			<circle class="st1" cx="903.4" cy="140.9" r="7.2"/>
		</g>
	</g>
</g>
<g>
	<g>
		<defs>
			<rect id="SVGID_00000113348342399713413320000010039998523955069338_" x="1" y="0" width="3549" height="533.7"/>
		</defs>
		<clipPath id="SVGID_00000057111301385649045650000016908192098596521609_">
			<use xlink:href="#SVGID_00000113348342399713413320000010039998523955069338_"  style="overflow:visible;"/>
		</clipPath>
		<g style="clip-path:url(#SVGID_00000057111301385649045650000016908192098596521609_);">
			<path class="st1" d="M2576.4,141.9L2576.4,141.9C2576.3,141.9,2576.3,141.9,2576.4,141.9C2576.3,141.9,2576.3,141.9,2576.4,141.9
				c-0.2,0-0.3,0-0.4-0.1l0,0c0,0-0.1,0-0.1-0.1l-220-138.8c-0.5-0.3-0.6-0.9-0.3-1.4s0.9-0.6,1.4-0.3l216.5,136.6L2488-5.3
				c-0.2-0.3-0.2-0.7,0-1s0.5-0.5,0.9-0.5h165.3c0.4,0,0.7,0.2,0.9,0.5s0.2,0.7,0,1l-76.6,144.5L3022-6.7c0.5-0.2,1.1,0.1,1.3,0.6
				s-0.1,1.1-0.6,1.3l-445.9,146.7h-0.1l0,0l0,0C2576.5,141.9,2576.5,141.9,2576.4,141.9z M2490.7-4.8l85.7,143.7l76.2-143.7
				C2652.6-4.8,2490.7-4.8,2490.7-4.8z"/>
		</g>
	</g>
</g>
<g>
	<g>
		<defs>
			<rect id="SVGID_00000171714477165296697860000007308310081010879892_" x="1" y="0" width="3549" height="533.7"/>
		</defs>
		<clipPath id="SVGID_00000085942420020090443130000013512126710267153287_">
			<use xlink:href="#SVGID_00000171714477165296697860000007308310081010879892_"  style="overflow:visible;"/>
		</clipPath>
		<g style="clip-path:url(#SVGID_00000085942420020090443130000013512126710267153287_);">
			<circle class="st1" cx="2576.9" cy="140.9" r="7.2"/>
		</g>
	</g>
</g>
<g>
	<g>
		<defs>
			<rect id="SVGID_00000088841935691411058930000003256451928673691802_" x="1" y="0" width="3549" height="533.7"/>
		</defs>
		<clipPath id="SVGID_00000072280609215238208600000013479006279507505319_">
			<use xlink:href="#SVGID_00000088841935691411058930000003256451928673691802_"  style="overflow:visible;"/>
		</clipPath>
		<g style="clip-path:url(#SVGID_00000072280609215238208600000013479006279507505319_);">
			<circle class="st1" cx="1511.2" cy="122.8" r="7.2"/>
		</g>
	</g>
</g>
<g>
	<g>
		<defs>
			<rect id="SVGID_00000181800820820084077370000010776590983319382706_" x="1" y="0" width="3549" height="533.7"/>
		</defs>
		<clipPath id="SVGID_00000086650372237460452480000015533642530115378585_">
			<use xlink:href="#SVGID_00000181800820820084077370000010776590983319382706_"  style="overflow:visible;"/>
		</clipPath>
		<g style="clip-path:url(#SVGID_00000086650372237460452480000015533642530115378585_);">
			<path class="st1" d="M3199.4,123.8c-0.1,0-0.2,0-0.3,0L2772.7-4.8c-0.5-0.2-0.8-0.7-0.7-1.2c0.2-0.5,0.7-0.8,1.2-0.7l424.8,128
				L3166.4-5.6c-0.1-0.5,0.2-1.1,0.7-1.2c0.5-0.1,1.1,0.2,1.2,0.7l32,128.6c0.1,0.3,0,0.7-0.3,1
				C3199.9,123.7,3199.7,123.8,3199.4,123.8z"/>
		</g>
	</g>
</g>
<g>
	<g>
		<defs>
			<rect id="SVGID_00000034089543279389850060000018210571569983627191_" x="1" y="0" width="3549" height="533.7"/>
		</defs>
		<clipPath id="SVGID_00000114757991490373664960000014583885843248572061_">
			<use xlink:href="#SVGID_00000034089543279389850060000018210571569983627191_"  style="overflow:visible;"/>
		</clipPath>
		<g style="clip-path:url(#SVGID_00000114757991490373664960000014583885843248572061_);">
			<path class="st1" d="M3199.4,123.8c-0.3,0-0.7-0.2-0.9-0.5c-0.3-0.4-0.2-1,0.2-1.3L3362.6-6.6c0.4-0.3,1.1-0.3,1.4,0.2
				c0.3,0.4,0.3,1.1-0.2,1.4l-157.9,124L3503.1-6.7c0.5-0.2,1.1,0,1.3,0.5s0,1.1-0.5,1.3l-304.1,128.6
				C3199.7,123.8,3199.5,123.8,3199.4,123.8z"/>
		</g>
	</g>
</g>
<g>
	<g>
		<defs>
			<rect id="SVGID_00000162325058767838581070000007560373664346569091_" x="1" y="0" width="3549" height="533.7"/>
		</defs>
		<clipPath id="SVGID_00000140004707384427907040000017759702715625440189_">
			<use xlink:href="#SVGID_00000162325058767838581070000007560373664346569091_"  style="overflow:visible;"/>
		</clipPath>
		<g style="clip-path:url(#SVGID_00000140004707384427907040000017759702715625440189_);">
			<circle class="st1" cx="3199.4" cy="122.8" r="7.2"/>
		</g>
	</g>
</g>
<g>
	<g>
		<defs>
			<rect id="SVGID_00000145765094629079419640000003239858760602692755_" x="1" y="0" width="3549" height="533.7"/>
		</defs>
		<clipPath id="SVGID_00000105386356438412910530000010567288966728975238_">
			<use xlink:href="#SVGID_00000145765094629079419640000003239858760602692755_"  style="overflow:visible;"/>
		</clipPath>
		<g style="clip-path:url(#SVGID_00000105386356438412910530000010567288966728975238_);">
			<path class="st1" d="M427.4,123.8c-0.1,0-0.2,0-0.3,0L0.7-4.8C0.2-5-0.1-5.6,0-6.1c0.2-0.5,0.7-0.8,1.2-0.7L426,121.3L394.4-5.6
				c-0.1-0.5,0.2-1.1,0.7-1.2c0.5-0.1,1.1,0.2,1.2,0.7l32,128.6c0.1,0.3,0,0.7-0.3,1C427.9,123.7,427.7,123.8,427.4,123.8z"/>
		</g>
	</g>
</g>
<g>
	<g>
		<defs>
			<rect id="SVGID_00000101782711037304832080000008518309589453654438_" x="1" y="0" width="3549" height="533.7"/>
		</defs>
		<clipPath id="SVGID_00000018918360878515954520000008272629643437915562_">
			<use xlink:href="#SVGID_00000101782711037304832080000008518309589453654438_"  style="overflow:visible;"/>
		</clipPath>
		<g style="clip-path:url(#SVGID_00000018918360878515954520000008272629643437915562_);">
			<path class="st1" d="M427.4,123.8c-0.3,0-0.7-0.2-0.9-0.5c-0.3-0.4-0.2-1,0.2-1.3l164-128.6c0.4-0.3,1.1-0.3,1.4,0.2
				c0.3,0.4,0.3,1.1-0.2,1.4l-158,124L731.2-6.7c0.5-0.2,1.1,0,1.3,0.5s0,1.1-0.5,1.3L427.8,123.7
				C427.7,123.8,427.5,123.8,427.4,123.8z"/>
		</g>
	</g>
</g>
<g>
	<g>
		<defs>
			<rect id="SVGID_00000132790964097369060340000000274535076501225879_" x="1" y="0" width="3549" height="533.7"/>
		</defs>
		<clipPath id="SVGID_00000049201654142384967550000014735385863334375580_">
			<use xlink:href="#SVGID_00000132790964097369060340000000274535076501225879_"  style="overflow:visible;"/>
		</clipPath>
		<g style="clip-path:url(#SVGID_00000049201654142384967550000014735385863334375580_);">
			<circle class="st1" cx="427.4" cy="122.8" r="7.2"/>
		</g>
	</g>
</g>
<g>
	<g>
		<defs>
			<rect id="SVGID_00000119116676529342785270000004882742420258771116_" x="1" y="0" width="3549" height="533.7"/>
		</defs>
		<clipPath id="SVGID_00000056400637599718513970000003341044685714504092_">
			<use xlink:href="#SVGID_00000119116676529342785270000004882742420258771116_"  style="overflow:visible;"/>
		</clipPath>
		<g style="clip-path:url(#SVGID_00000056400637599718513970000003341044685714504092_);">
			<circle class="st1" cx="1518.4" cy="389.7" r="7.2"/>
		</g>
	</g>
</g>
<g>
	<g>
		<defs>
			<rect id="SVGID_00000104664644199099003320000017979754775921734542_" x="1" y="0" width="3549" height="533.7"/>
		</defs>
		<clipPath id="SVGID_00000005227533825908007700000013391423247950259382_">
			<use xlink:href="#SVGID_00000104664644199099003320000017979754775921734542_"  style="overflow:visible;"/>
		</clipPath>
		<g style="clip-path:url(#SVGID_00000005227533825908007700000013391423247950259382_);">
			<circle class="st1" cx="1239.9" cy="290.2" r="7.2"/>
		</g>
	</g>
</g>
<g>
	<g>
		<defs>
			<rect id="SVGID_00000059267610707619446570000017101048171818192554_" x="1" y="0" width="3549" height="533.7"/>
		</defs>
		<clipPath id="SVGID_00000130647498844179968890000004346717556671770028_">
			<use xlink:href="#SVGID_00000059267610707619446570000017101048171818192554_"  style="overflow:visible;"/>
		</clipPath>
		<g style="clip-path:url(#SVGID_00000130647498844179968890000004346717556671770028_);">
			<circle class="st1" cx="2211.8" cy="392.8" r="7.2"/>
		</g>
	</g>
</g>
<g>
	<g>
		<defs>
			<rect id="SVGID_00000182499332834906565610000003612455214035144625_" x="1" y="0" width="3549" height="533.7"/>
		</defs>
		<clipPath id="SVGID_00000021101341565279577320000010904467991084330656_">
			<use xlink:href="#SVGID_00000182499332834906565610000003612455214035144625_"  style="overflow:visible;"/>
		</clipPath>
		<g style="clip-path:url(#SVGID_00000021101341565279577320000010904467991084330656_);">
			<circle class="st1" cx="1886.2" cy="156.1" r="7.2"/>
		</g>
	</g>
</g>
<g>
	<g>
		<defs>
			<rect id="SVGID_00000037675235523251811960000017658079111245342876_" x="1" y="0" width="3549" height="533.7"/>
		</defs>
		<clipPath id="SVGID_00000085215770544126080620000003522016298076111791_">
			<use xlink:href="#SVGID_00000037675235523251811960000017658079111245342876_"  style="overflow:visible;"/>
		</clipPath>
		<g style="clip-path:url(#SVGID_00000085215770544126080620000003522016298076111791_);">
			<circle class="st1" cx="1220.7" cy="34.7" r="7.2"/>
		</g>
	</g>
</g>
<rect x="1" y="0" class="st24" width="3549" height="533.7"/>
<g>
	<g>
		<path class="st1" d="M2672.5,138.1c-0.7-0.7-6.7,4.8-6.7,4.8s0,0-0.1,0.1l0,0l-49.3,49.3l1.9,1.9l49.3-49.3
			C2667.6,144.8,2673.2,138.7,2672.5,138.1z"/>
	</g>
	<g>
		<path class="st1" d="M2495.5,315c-12.4-12.4-25.7-19.9-32.3-18.6l-16.2,16.2c6.5-1.2,19.8,6.2,32.3,18.6
			c12.4,12.4,19.9,25.7,18.6,32.3l16.2-16.2C2515.5,340.7,2508,327.4,2495.5,315z"/>
	</g>
	<g>
		<path class="st1" d="M2624.1,186.5c-12.8-12.8-27.3-7.1-27.3-7.1l-0.1,0.1l0,0l-52.7,52.7c6.2,3.3,13,8.5,19.5,15
			c6.2,6.2,11.5,13,15,19.5l52.7-52.7C2631.2,213.8,2636.6,199,2624.1,186.5z"/>
	</g>
	<g>
		<path class="st1" d="M2561.6,249c-14-14-29.3-21.5-34.2-16.7l-0.1,0.1l0,0l-17.4,17.4c6.5-1.2,19.8,6.2,32.3,18.6
			c12.4,12.4,19.9,25.7,18.6,32.3l17.4-17.4C2583.1,278.3,2575.6,263,2561.6,249z"/>
	</g>
	<g>
		<path class="st1" d="M2517.9,292.7c-12.4-12.4-25.7-19.9-32.3-18.6l-17.9,17.9c6.5-1.2,19.8,6.2,32.3,18.6
			c12.4,12.4,19.9,25.7,18.6,32.3l17.9-17.9C2537.8,318.4,2530.4,305.1,2517.9,292.7z"/>
	</g>
	<g>
		<path class="st1" d="M2537.8,272.9c-12.4-12.4-25.7-19.9-32.3-18.6l-15.4,15.4c6.5-1.2,19.8,6.2,32.3,18.6
			c12.4,12.4,19.9,25.7,18.6,32.3l15.4-15.4C2557.6,298.5,2550.2,285.3,2537.8,272.9z"/>
	</g>
	<g>
		<path class="st1" d="M2491.8,369.6c-4.8,4.8-20.1-2.7-34.1-16.7c-14-14-21.6-29.3-16.7-34.1c4.8-4.8,20.1,2.7,34.1,16.7
			C2489.1,349.6,2496.6,364.9,2491.8,369.6z M2472.6,337.9c-10.2-10.2-21.2-15.6-24.8-12.2c-3.4,3.4,1.9,14.5,12.2,24.8
			c10.2,10.2,21.2,15.6,24.8,12.2C2488.3,359.1,2482.9,348.1,2472.6,337.9z"/>
	</g>
	<g>
		<path class="st1" d="M2689.4,390.9l-81.9,81.9l-98.9-98.9l81.9-81.9L2689.4,390.9z M2608.1,441.8l-13.7,13.7l13.7,13.7l13.7-13.7
			L2608.1,441.8z M2624.1,425.8l-13.7,13.7l13.7,13.7l13.7-13.7L2624.1,425.8z M2640.1,409.8l-13.7,13.7l13.7,13.7l13.7-13.7
			L2640.1,409.8z M2656.1,393.8l-13.7,13.7l13.7,13.7l13.7-13.7L2656.1,393.8z M2672,377.9l-13.7,13.7l13.7,13.7l13.7-13.7
			L2672,377.9z M2591.9,425.5l-13.7,13.7l13.7,13.7l13.7-13.7L2591.9,425.5z M2607.8,409.5l-13.7,13.7l13.7,13.7l13.7-13.7
			L2607.8,409.5z M2623.8,393.6l-13.7,13.7l13.7,13.7l13.7-13.7L2623.8,393.6z M2639.8,377.5l-13.7,13.7l13.7,13.7l13.7-13.7
			L2639.8,377.5z M2655.7,361.6l-13.7,13.7l13.7,13.7l13.7-13.7L2655.7,361.6z M2575.6,409.3l-13.7,13.7l13.7,13.7l13.7-13.7
			L2575.6,409.3z M2591.5,393.2l-13.7,13.7l13.7,13.7l13.7-13.7L2591.5,393.2z M2607.5,377.3l-13.7,13.7l13.7,13.7l13.7-13.7
			L2607.5,377.3z M2623.5,361.2l-13.7,13.7l13.7,13.7l13.7-13.7L2623.5,361.2z M2639.4,345.3l-13.7,13.7l13.7,13.7l13.7-13.7
			L2639.4,345.3z M2559.3,393l-13.7,13.7l13.7,13.7l13.7-13.7L2559.3,393z M2575.2,376.9l-13.7,13.7l13.7,13.7l13.7-13.7
			L2575.2,376.9z M2591.2,361l-13.7,13.7l13.7,13.7l13.7-13.7L2591.2,361z M2607.2,345l-13.7,13.7l13.7,13.7l13.7-13.7L2607.2,345z
			 M2623.2,329l-13.7,13.7l13.7,13.7l13.7-13.7L2623.2,329z M2543,376.7l-13.7,13.7L2543,404l13.7-13.7L2543,376.7z M2559,360.7
			l-13.7,13.7L2559,388l13.7-13.7L2559,360.7z M2574.9,344.7l-13.7,13.7l13.7,13.7l13.7-13.7L2574.9,344.7z M2590.9,328.7
			l-13.7,13.7l13.7,13.7l13.7-13.7L2590.9,328.7z M2606.9,312.7l-13.7,13.7l13.7,13.7l13.7-13.7L2606.9,312.7z M2526.7,360.4
			L2513,374l13.7,13.7l13.7-13.7L2526.7,360.4z M2542.7,344.4l-13.7,13.7l13.7,13.7l13.7-13.7L2542.7,344.4z M2558.6,328.4L2545,342
			l13.7,13.7l13.7-13.7L2558.6,328.4z M2574.7,312.4l-13.7,13.7l13.7,13.7l13.7-13.7L2574.7,312.4z M2590.6,296.4L2577,310
			l13.7,13.7l13.7-13.7L2590.6,296.4z"/>
	</g>
	<g>
		<path class="st1" d="M2518.5,220.1l-81.9,81.9l-98.9-98.9l81.9-81.9L2518.5,220.1z M2355.1,188.8l-13.7,13.7l13.7,13.7l13.7-13.7
			L2355.1,188.8z M2371.1,172.8l-13.7,13.7l13.7,13.7l13.7-13.7L2371.1,172.8z M2387.1,156.8l-13.7,13.7l13.7,13.7l13.7-13.7
			L2387.1,156.8z M2403,140.9l-13.7,13.7l13.7,13.7l13.7-13.7L2403,140.9z M2419.1,124.8l-13.7,13.7l13.7,13.7l13.7-13.7
			L2419.1,124.8z M2371.4,205.1l-13.7,13.7l13.7,13.7l13.7-13.7L2371.4,205.1z M2387.3,189.1l-13.7,13.7l13.7,13.7l13.7-13.7
			L2387.3,189.1z M2403.4,173.1l-13.7,13.7l13.7,13.7l13.7-13.7L2403.4,173.1z M2419.3,157.2l-13.7,13.7l13.7,13.7l13.7-13.7
			L2419.3,157.2z M2435.4,141.1l-13.7,13.7l13.7,13.7l13.7-13.7L2435.4,141.1z M2387.7,221.4l-13.7,13.7l13.7,13.7l13.7-13.7
			L2387.7,221.4z M2403.6,205.4L2390,219l13.7,13.7l13.7-13.7L2403.6,205.4z M2419.7,189.4l-13.7,13.7l13.7,13.7l13.7-13.7
			L2419.7,189.4z M2435.6,173.4L2422,187l13.7,13.7l13.7-13.7L2435.6,173.4z M2451.7,157.4l-13.7,13.7l13.7,13.7l13.7-13.7
			L2451.7,157.4z M2404,237.6l-13.7,13.7l13.7,13.7l13.7-13.7L2404,237.6z M2419.9,221.7l-13.7,13.7l13.7,13.7l13.7-13.7
			L2419.9,221.7z M2435.9,205.7l-13.7,13.7l13.7,13.7l13.7-13.7L2435.9,205.7z M2451.9,189.7l-13.7,13.7l13.7,13.7l13.7-13.7
			L2451.9,189.7z M2467.9,173.7l-13.7,13.7l13.7,13.7l13.7-13.7L2467.9,173.7z M2420.2,253.9l-13.7,13.7l13.7,13.7l13.7-13.7
			L2420.2,253.9z M2436.2,238l-13.7,13.7l13.7,13.7l13.7-13.7L2436.2,238z M2452.2,221.9l-13.7,13.7l13.7,13.7l13.7-13.7
			L2452.2,221.9z M2468.2,206l-13.7,13.7l13.7,13.7l13.7-13.7L2468.2,206z M2484.2,190l-13.7,13.7l13.7,13.7l13.7-13.7L2484.2,190z
			 M2436.5,270.2l-13.7,13.7l13.7,13.7l13.7-13.7L2436.5,270.2z M2452.5,254.3l-13.7,13.7l13.7,13.7l13.7-13.7L2452.5,254.3z
			 M2468.5,238.2l-13.7,13.7l13.7,13.7l13.7-13.7L2468.5,238.2z M2484.5,222.3l-13.7,13.7l13.7,13.7l13.7-13.7L2484.5,222.3z
			 M2500.5,206.2l-13.7,13.7l13.7,13.7l13.7-13.7L2500.5,206.2z"/>
	</g>
	<g>
		
			<rect x="2478.7" y="259.3" transform="matrix(0.7071 -0.7071 0.7071 0.7071 538.4634 1833.447)" class="st1" width="7.4" height="14.9"/>
	</g>
	<g>
		<path class="st1" d="M2676.5,134.1c2.2,2.2,2.2,5.8,0,7.9c-2.2,2.2-5.8,2.2-7.9,0c-2.2-2.2-2.2-5.8,0-7.9
			C2670.7,131.9,2674.3,131.9,2676.5,134.1z"/>
	</g>
	<g>
		
			<rect x="2540.1" y="320.7" transform="matrix(0.7071 -0.7071 0.7071 0.7071 513.0029 1894.8373)" class="st1" width="7.4" height="14.9"/>
	</g>
</g>
<g>
	<g>
		<defs>
			<rect id="SVGID_00000059300547625538543990000004665374406657968015_" x="1" y="0" width="3549" height="533.7"/>
		</defs>
		<clipPath id="SVGID_00000132071076173611821420000005365138098998590651_">
			<use xlink:href="#SVGID_00000059300547625538543990000004665374406657968015_"  style="overflow:visible;"/>
		</clipPath>
		<g style="clip-path:url(#SVGID_00000132071076173611821420000005365138098998590651_);">
			<path class="st1" d="M2211.8,393.8c-0.1,0-0.1,0-0.2,0c-0.5-0.1-0.8-0.5-0.8-1V-15c0-0.6,0.4-1,1-1s1,0.4,1,1v403.4l196-403.9
				c0.2-0.5,0.8-0.7,1.3-0.5c0.5,0.2,0.7,0.8,0.5,1.3l-197.9,407.8C2212.5,393.6,2212.2,393.8,2211.8,393.8z"/>
		</g>
	</g>
</g>
</svg>
