<?xml version="1.0" encoding="utf-8"?>
<!-- Generator: Adobe Illustrator 25.4.1, SVG Export Plug-In . SVG Version: 6.00 Build 0)  -->
<svg version="1.1" id="Слой_1" xmlns="http://www.w3.org/2000/svg" xmlns:xlink="http://www.w3.org/1999/xlink" x="0px" y="0px"
	 viewBox="0 0 3550 533.7" style="enable-background:new 0 0 3550 533.7;" xml:space="preserve">
<style type="text/css">
	.st0{clip-path:url(#SVGID_00000095332136981213818660000016652037426678568343_);}
	.st1{fill:#D2D8E0;}
	.st2{clip-path:url(#SVGID_00000129890401959888722760000018134313941273894308_);}
	.st3{clip-path:url(#SVGID_00000126289329140210986570000002590812419447327397_);}
	.st4{clip-path:url(#SVGID_00000070817743068904909870000001686125061963390120_);}
	.st5{clip-path:url(#SVGID_00000105400189740018289430000009999975996287686292_);}
	.st6{clip-path:url(#SVGID_00000067957967478423706840000003118419130088083074_);}
	.st7{clip-path:url(#SVGID_00000020378812269689131210000003094995387705417372_);}
	.st8{clip-path:url(#SVGID_00000018205646881952200270000012803532632322027426_);}
	.st9{clip-path:url(#SVGID_00000090281359529036707240000004969568829309792128_);}
	.st10{clip-path:url(#SVGID_00000151539103035810518620000015417490060233566117_);}
	.st11{clip-path:url(#SVGID_00000004533652830283324370000015011162459829105053_);}
	.st12{clip-path:url(#SVGID_00000102539326482841317220000010939634449703902853_);}
	.st13{clip-path:url(#SVGID_00000025426335920850766840000016911199945471453353_);}
	.st14{clip-path:url(#SVGID_00000121974878395587958550000007530056149720889216_);}
	.st15{clip-path:url(#SVGID_00000030468567787513412440000018078723617412094373_);}
	.st16{clip-path:url(#SVGID_00000088848963105447510390000004063089118339283846_);}
	.st17{clip-path:url(#SVGID_00000160902676108579715410000016192250107307830190_);}
	.st18{clip-path:url(#SVGID_00000151529402624323033090000016331161765613913765_);}
	.st19{clip-path:url(#SVGID_00000119836529593706996430000010289798357267785862_);}
	.st20{clip-path:url(#SVGID_00000164506779066787382730000008231160102993783215_);}
	.st21{clip-path:url(#SVGID_00000093864569801788300230000015030996228789105812_);}
	.st22{clip-path:url(#SVGID_00000065064472862845363890000001488615423862242227_);}
	.st23{clip-path:url(#SVGID_00000114773994541063176880000000542592464434945711_);}
	.st24{clip-path:url(#SVGID_00000142869875595772259850000010600544568185847736_);}
	.st25{clip-path:url(#SVGID_00000170957356085921445670000014606550963595884720_);}
</style>
<g>
	<g>
		<defs>
			<rect id="SVGID_1_" x="1" width="3549" height="533.7"/>
		</defs>
		<clipPath id="SVGID_00000121998578671301560420000004152609349296961935_">
			<use xlink:href="#SVGID_1_"  style="overflow:visible;"/>
		</clipPath>
		<g style="clip-path:url(#SVGID_00000121998578671301560420000004152609349296961935_);">
			<path class="st1" d="M902.9,141.9C902.9,141.9,902.9,141.9,902.9,141.9L902.9,141.9C902.9,141.9,902.9,141.9,902.9,141.9
				C902.9,141.9,902.9,141.9,902.9,141.9C902.9,141.9,902.9,141.9,902.9,141.9c-0.1,0-0.2,0-0.3,0c0,0,0,0,0,0c0,0,0,0,0,0
				c0,0,0,0,0,0c0,0,0,0-0.1,0L515-4.9c-0.5-0.2-0.8-0.8-0.6-1.3c0.2-0.5,0.8-0.8,1.3-0.6l384.8,145.7l-86-144.2
				c-0.2-0.3-0.2-0.7,0-1c0.2-0.3,0.5-0.5,0.9-0.5h165.3c0.4,0,0.7,0.2,0.9,0.5s0.2,0.7,0,1l-76.6,144.5L1348.4-6.7
				c0.5-0.2,1.1,0.1,1.3,0.6c0.2,0.5-0.1,1.1-0.6,1.3L903.2,141.8c0,0,0,0,0,0c0,0,0,0,0,0l0,0c0,0,0,0,0,0c0,0,0,0,0,0c0,0,0,0,0,0
				c0,0,0,0,0,0C903.1,141.9,903,141.9,902.9,141.9C902.9,141.9,902.9,141.9,902.9,141.9C902.9,141.9,902.9,141.9,902.9,141.9z
				 M817.2-4.8l85.7,143.7L979-4.8H817.2z"/>
		</g>
	</g>
	<g>
		<defs>
			<rect id="SVGID_00000177445159342893679160000001701732643226456987_" x="1" width="3549" height="533.7"/>
		</defs>
		<clipPath id="SVGID_00000124865152443902917600000018158848225609112964_">
			<use xlink:href="#SVGID_00000177445159342893679160000001701732643226456987_"  style="overflow:visible;"/>
		</clipPath>
		<g style="clip-path:url(#SVGID_00000124865152443902917600000018158848225609112964_);">
			<path class="st1" d="M1511.2,123.8c-0.1,0-0.2,0-0.3,0L1084.5-4.8c-0.5-0.2-0.8-0.7-0.7-1.2c0.2-0.5,0.7-0.8,1.2-0.7l424.7,128.1
				L1478.3-5.6c-0.1-0.5,0.2-1.1,0.7-1.2c0.5-0.1,1.1,0.2,1.2,0.7l31.9,128.6c0.1,0.3,0,0.7-0.3,1
				C1511.7,123.7,1511.5,123.8,1511.2,123.8z"/>
		</g>
	</g>
	<g>
		<defs>
			<rect id="SVGID_00000145028511525830763490000013300986759726938299_" x="1" width="3549" height="533.7"/>
		</defs>
		<clipPath id="SVGID_00000010991763786552354670000003420422561537429151_">
			<use xlink:href="#SVGID_00000145028511525830763490000013300986759726938299_"  style="overflow:visible;"/>
		</clipPath>
		<g style="clip-path:url(#SVGID_00000010991763786552354670000003420422561537429151_);">
			<path class="st1" d="M1511.2,123.8c-0.3,0-0.7-0.2-0.9-0.5c-0.3-0.4-0.2-1,0.2-1.3L1674.5-6.6c0.4-0.3,1.1-0.3,1.4,0.2
				c0.3,0.4,0.3,1.1-0.2,1.4l-158,124L1815-6.7c0.5-0.2,1.1,0,1.3,0.5c0.2,0.5,0,1.1-0.5,1.3l-304.2,128.6
				C1511.5,123.8,1511.3,123.8,1511.2,123.8z"/>
		</g>
	</g>
	<g>
		<defs>
			<rect id="SVGID_00000107563414524613602850000012055231053122086324_" x="1" width="3549" height="533.7"/>
		</defs>
		<clipPath id="SVGID_00000026866649065474469450000008354043017148255620_">
			<use xlink:href="#SVGID_00000107563414524613602850000012055231053122086324_"  style="overflow:visible;"/>
		</clipPath>
		<g style="clip-path:url(#SVGID_00000026866649065474469450000008354043017148255620_);">
			<path class="st1" d="M1886.2,157.1c-0.3,0-0.5-0.1-0.7-0.3L1734.1-5.1c-0.4-0.4-0.4-1,0-1.4c0.4-0.4,1-0.4,1.4,0l149.8,160.2
				l8.3-159.5c0-0.6,0.5-1,1.1-0.9c0.6,0,1,0.5,0.9,1.1l-8.4,161.9c0,0.4-0.3,0.8-0.7,0.9C1886.4,157.1,1886.3,157.1,1886.2,157.1z"
				/>
		</g>
	</g>
	<g>
		<defs>
			<rect id="SVGID_00000080177958723672784930000003449523614836637836_" x="1" width="3549" height="533.7"/>
		</defs>
		<clipPath id="SVGID_00000183932563361759577630000006526175354670917309_">
			<use xlink:href="#SVGID_00000080177958723672784930000003449523614836637836_"  style="overflow:visible;"/>
		</clipPath>
		<g style="clip-path:url(#SVGID_00000183932563361759577630000006526175354670917309_);">
			<path class="st1" d="M1886.2,157.1c-0.3,0-0.6-0.2-0.8-0.4c-0.3-0.4-0.2-0.9,0.1-1.2L2032.8-6.5c0.4-0.4,1-0.4,1.4-0.1
				c0.4,0.4,0.4,1,0.1,1.4l-144.3,158.6l390-160.2c0.5-0.2,1.1,0,1.3,0.5c0.2,0.5,0,1.1-0.5,1.3L1886.6,157
				C1886.5,157.1,1886.3,157.1,1886.2,157.1z"/>
		</g>
	</g>
	<g>
		<defs>
			<rect id="SVGID_00000181802045036190277720000006352319054523604378_" x="1" width="3549" height="533.7"/>
		</defs>
		<clipPath id="SVGID_00000050631521745123582720000005276028554916237709_">
			<use xlink:href="#SVGID_00000181802045036190277720000006352319054523604378_"  style="overflow:visible;"/>
		</clipPath>
		<g style="clip-path:url(#SVGID_00000050631521745123582720000005276028554916237709_);">
			<path class="st1" d="M2569.7,141.9c-0.1,0-0.2,0-0.3,0L2104.9-4.8c-0.5-0.2-0.8-0.7-0.7-1.3c0.2-0.5,0.7-0.8,1.3-0.7L2570,139.9
				c0.5,0.2,0.8,0.7,0.7,1.3C2570.5,141.6,2570.1,141.9,2569.7,141.9z"/>
		</g>
	</g>
	<g>
		<defs>
			<rect id="SVGID_00000023257249763783860000000015288565946612530360_" x="1" width="3549" height="533.7"/>
		</defs>
		<clipPath id="SVGID_00000083078921607616473490000001665409076523238290_">
			<use xlink:href="#SVGID_00000023257249763783860000000015288565946612530360_"  style="overflow:visible;"/>
		</clipPath>
		<g style="clip-path:url(#SVGID_00000083078921607616473490000001665409076523238290_);">
			<path class="st1" d="M1239.9,292.3c-0.1,0-0.3,0-0.4-0.1c-0.4-0.2-0.7-0.7-0.6-1.1l63.6-301.7c0.1-0.5,0.6-0.9,1.2-0.8
				c0.5,0.1,0.9,0.6,0.8,1.2l-62.6,296.8l208.2-302.2c0.3-0.5,0.9-0.6,1.4-0.3c0.5,0.3,0.6,0.9,0.3,1.4l-211,306.3
				C1240.5,292.1,1240.2,292.3,1239.9,292.3z"/>
		</g>
	</g>
	<g>
		<defs>
			<rect id="SVGID_00000176743539373262244990000005682388672305042072_" x="1" width="3549" height="533.7"/>
		</defs>
		<clipPath id="SVGID_00000094586990478262452460000010000785963597737402_">
			<use xlink:href="#SVGID_00000176743539373262244990000005682388672305042072_"  style="overflow:visible;"/>
		</clipPath>
		<g style="clip-path:url(#SVGID_00000094586990478262452460000010000785963597737402_);">
			<path class="st1" d="M1518.4,393.8c-0.3,0-0.6-0.1-0.8-0.4L1219.9-14.4c-0.3-0.4-0.2-1.1,0.2-1.4c0.4-0.3,1.1-0.2,1.4,0.2
				l296.3,405.9l76.4-423.9c0.1-0.5,0.6-0.9,1.2-0.8c0.5,0.1,0.9,0.6,0.8,1.2L1519.4,393c-0.1,0.4-0.4,0.7-0.8,0.8
				C1518.5,393.8,1518.5,393.8,1518.4,393.8z"/>
		</g>
	</g>
	<g>
		<defs>
			<rect id="SVGID_00000127743195122907624670000000235564673088416651_" x="1" width="3549" height="533.7"/>
		</defs>
		<clipPath id="SVGID_00000083047857471725650500000006510762746302194844_">
			<use xlink:href="#SVGID_00000127743195122907624670000000235564673088416651_"  style="overflow:visible;"/>
		</clipPath>
		<g style="clip-path:url(#SVGID_00000083047857471725650500000006510762746302194844_);">
			<circle class="st1" cx="903.4" cy="140.9" r="7.2"/>
		</g>
	</g>
	<g>
		<defs>
			<rect id="SVGID_00000096746613414018918340000014426433504511103122_" x="1" width="3549" height="533.7"/>
		</defs>
		<clipPath id="SVGID_00000013882710569321231080000005744043674106794430_">
			<use xlink:href="#SVGID_00000096746613414018918340000014426433504511103122_"  style="overflow:visible;"/>
		</clipPath>
		<g style="clip-path:url(#SVGID_00000013882710569321231080000005744043674106794430_);">
			<path class="st1" d="M2576.4,141.9C2576.4,141.9,2576.4,141.9,2576.4,141.9C2576.3,141.9,2576.3,141.9,2576.4,141.9
				C2576.3,141.9,2576.3,141.9,2576.4,141.9c-0.2,0-0.3,0-0.4-0.1c0,0,0,0,0,0c0,0-0.1,0-0.1-0.1l-220-138.8
				c-0.5-0.3-0.6-0.9-0.3-1.4c0.3-0.5,0.9-0.6,1.4-0.3l216.5,136.6L2488-5.3c-0.2-0.3-0.2-0.7,0-1c0.2-0.3,0.5-0.5,0.9-0.5h165.3
				c0.4,0,0.7,0.2,0.9,0.5c0.2,0.3,0.2,0.7,0,1l-76.6,144.5L3022-6.7c0.5-0.2,1.1,0.1,1.3,0.6c0.2,0.5-0.1,1.1-0.6,1.3l-445.9,146.7
				c0,0-0.1,0-0.1,0c0,0,0,0,0,0h0C2576.5,141.9,2576.5,141.9,2576.4,141.9z M2490.7-4.8l85.7,143.7l76.2-143.7H2490.7z"/>
		</g>
	</g>
	<g>
		<defs>
			<rect id="SVGID_00000049192782858872659670000006972262759911366041_" x="1" width="3549" height="533.7"/>
		</defs>
		<clipPath id="SVGID_00000118384824411675596850000000792923603180135615_">
			<use xlink:href="#SVGID_00000049192782858872659670000006972262759911366041_"  style="overflow:visible;"/>
		</clipPath>
		<g style="clip-path:url(#SVGID_00000118384824411675596850000000792923603180135615_);">
			<circle class="st1" cx="2576.9" cy="140.9" r="7.2"/>
		</g>
	</g>
	<g>
		<defs>
			<rect id="SVGID_00000061439511569665011240000001235392180132306570_" x="1" width="3549" height="533.7"/>
		</defs>
		<clipPath id="SVGID_00000057147487344717609920000014141876795590824105_">
			<use xlink:href="#SVGID_00000061439511569665011240000001235392180132306570_"  style="overflow:visible;"/>
		</clipPath>
		<g style="clip-path:url(#SVGID_00000057147487344717609920000014141876795590824105_);">
			<circle class="st1" cx="1511.2" cy="122.8" r="7.2"/>
		</g>
	</g>
	<g>
		<defs>
			<rect id="SVGID_00000127017260830203826500000013638142646200216501_" x="1" width="3549" height="533.7"/>
		</defs>
		<clipPath id="SVGID_00000115512615874482720810000015354031681746231209_">
			<use xlink:href="#SVGID_00000127017260830203826500000013638142646200216501_"  style="overflow:visible;"/>
		</clipPath>
		<g style="clip-path:url(#SVGID_00000115512615874482720810000015354031681746231209_);">
			<path class="st1" d="M3199.4,123.8c-0.1,0-0.2,0-0.3,0L2772.7-4.8c-0.5-0.2-0.8-0.7-0.7-1.2c0.2-0.5,0.7-0.8,1.2-0.7L3198,121.3
				L3166.4-5.6c-0.1-0.5,0.2-1.1,0.7-1.2c0.5-0.1,1.1,0.2,1.2,0.7l32,128.6c0.1,0.3,0,0.7-0.3,1
				C3199.9,123.7,3199.7,123.8,3199.4,123.8z"/>
		</g>
	</g>
	<g>
		<defs>
			<rect id="SVGID_00000062166904305578529070000011116480390835223208_" x="1" width="3549" height="533.7"/>
		</defs>
		<clipPath id="SVGID_00000054225231459991496660000013389500138944608412_">
			<use xlink:href="#SVGID_00000062166904305578529070000011116480390835223208_"  style="overflow:visible;"/>
		</clipPath>
		<g style="clip-path:url(#SVGID_00000054225231459991496660000013389500138944608412_);">
			<path class="st1" d="M3199.4,123.8c-0.3,0-0.7-0.2-0.9-0.5c-0.3-0.4-0.2-1,0.2-1.3L3362.6-6.6c0.4-0.3,1.1-0.3,1.4,0.2
				c0.3,0.4,0.3,1.1-0.2,1.4l-157.9,124L3503.1-6.7c0.5-0.2,1.1,0,1.3,0.5c0.2,0.5,0,1.1-0.5,1.3l-304.1,128.6
				C3199.7,123.8,3199.5,123.8,3199.4,123.8z"/>
		</g>
	</g>
	<g>
		<defs>
			<rect id="SVGID_00000065043592832700788040000002589846488554529679_" x="1" width="3549" height="533.7"/>
		</defs>
		<clipPath id="SVGID_00000119799753402442661930000013041248762171023006_">
			<use xlink:href="#SVGID_00000065043592832700788040000002589846488554529679_"  style="overflow:visible;"/>
		</clipPath>
		<g style="clip-path:url(#SVGID_00000119799753402442661930000013041248762171023006_);">
			<circle class="st1" cx="3199.4" cy="122.8" r="7.2"/>
		</g>
	</g>
	<g>
		<defs>
			<rect id="SVGID_00000114777806768937727680000000222206088219353728_" x="1" width="3549" height="533.7"/>
		</defs>
		<clipPath id="SVGID_00000000209207522245210360000004532490440748552845_">
			<use xlink:href="#SVGID_00000114777806768937727680000000222206088219353728_"  style="overflow:visible;"/>
		</clipPath>
		<g style="clip-path:url(#SVGID_00000000209207522245210360000004532490440748552845_);">
			<path class="st1" d="M427.4,123.8c-0.1,0-0.2,0-0.3,0L0.7-4.8C0.2-5-0.1-5.6,0-6.1c0.2-0.5,0.7-0.8,1.2-0.7L426,121.3L394.4-5.6
				c-0.1-0.5,0.2-1.1,0.7-1.2c0.5-0.1,1.1,0.2,1.2,0.7l32,128.6c0.1,0.3,0,0.7-0.3,1C427.9,123.7,427.7,123.8,427.4,123.8z"/>
		</g>
	</g>
	<g>
		<defs>
			<rect id="SVGID_00000019666387365242997330000012017686701017846913_" x="1" width="3549" height="533.7"/>
		</defs>
		<clipPath id="SVGID_00000165952185494944220560000009986050081667842717_">
			<use xlink:href="#SVGID_00000019666387365242997330000012017686701017846913_"  style="overflow:visible;"/>
		</clipPath>
		<g style="clip-path:url(#SVGID_00000165952185494944220560000009986050081667842717_);">
			<path class="st1" d="M427.4,123.8c-0.3,0-0.7-0.2-0.9-0.5c-0.3-0.4-0.2-1,0.2-1.3L590.7-6.6c0.4-0.3,1.1-0.3,1.4,0.2
				c0.3,0.4,0.3,1.1-0.2,1.4l-158,124L731.2-6.7c0.5-0.2,1.1,0,1.3,0.5c0.2,0.5,0,1.1-0.5,1.3L427.8,123.7
				C427.7,123.8,427.5,123.8,427.4,123.8z"/>
		</g>
	</g>
	<g>
		<defs>
			<rect id="SVGID_00000103243718658275306760000009550393551006223767_" x="1" width="3549" height="533.7"/>
		</defs>
		<clipPath id="SVGID_00000062184249105580621530000006556728805782605981_">
			<use xlink:href="#SVGID_00000103243718658275306760000009550393551006223767_"  style="overflow:visible;"/>
		</clipPath>
		<g style="clip-path:url(#SVGID_00000062184249105580621530000006556728805782605981_);">
			<circle class="st1" cx="427.4" cy="122.8" r="7.2"/>
		</g>
	</g>
	<g>
		<defs>
			<rect id="SVGID_00000043443941886633538480000006420052741247664308_" x="1" width="3549" height="533.7"/>
		</defs>
		<clipPath id="SVGID_00000142899031361873325060000017323840951524752261_">
			<use xlink:href="#SVGID_00000043443941886633538480000006420052741247664308_"  style="overflow:visible;"/>
		</clipPath>
		<g style="clip-path:url(#SVGID_00000142899031361873325060000017323840951524752261_);">
			<circle class="st1" cx="1518.4" cy="389.7" r="7.2"/>
		</g>
	</g>
	<g>
		<defs>
			<rect id="SVGID_00000085963772610997706290000006400600816642429861_" x="1" width="3549" height="533.7"/>
		</defs>
		<clipPath id="SVGID_00000080188479295070124480000005428407161160117932_">
			<use xlink:href="#SVGID_00000085963772610997706290000006400600816642429861_"  style="overflow:visible;"/>
		</clipPath>
		<g style="clip-path:url(#SVGID_00000080188479295070124480000005428407161160117932_);">
			<circle class="st1" cx="1239.9" cy="290.2" r="7.2"/>
		</g>
	</g>
	<g>
		<defs>
			<rect id="SVGID_00000019674760759678807210000003430058199479274166_" x="1" width="3549" height="533.7"/>
		</defs>
		<clipPath id="SVGID_00000089562047688829379680000010581647792024577671_">
			<use xlink:href="#SVGID_00000019674760759678807210000003430058199479274166_"  style="overflow:visible;"/>
		</clipPath>
		<g style="clip-path:url(#SVGID_00000089562047688829379680000010581647792024577671_);">
			<circle class="st1" cx="2211.8" cy="392.8" r="7.2"/>
		</g>
	</g>
	<g>
		<defs>
			<rect id="SVGID_00000139267008342355795590000009405441709767325839_" x="1" width="3549" height="533.7"/>
		</defs>
		<clipPath id="SVGID_00000140693555959629565320000003335291579128528268_">
			<use xlink:href="#SVGID_00000139267008342355795590000009405441709767325839_"  style="overflow:visible;"/>
		</clipPath>
		<g style="clip-path:url(#SVGID_00000140693555959629565320000003335291579128528268_);">
			<circle class="st1" cx="1886.2" cy="156.1" r="7.2"/>
		</g>
	</g>
	<g>
		<defs>
			<rect id="SVGID_00000085240622282214200590000007602065096248653992_" x="1" width="3549" height="533.7"/>
		</defs>
		<clipPath id="SVGID_00000174567570329231127430000011648703008479173808_">
			<use xlink:href="#SVGID_00000085240622282214200590000007602065096248653992_"  style="overflow:visible;"/>
		</clipPath>
		<g style="clip-path:url(#SVGID_00000174567570329231127430000011648703008479173808_);">
			<circle class="st1" cx="1220.7" cy="34.7" r="7.2"/>
		</g>
	</g>
	<g>
		<defs>
			<rect id="SVGID_00000038397063622421884640000000461636754952311214_" x="1" width="3549" height="533.7"/>
		</defs>
		<clipPath id="SVGID_00000117642816985817924320000018023729828999572898_">
			<use xlink:href="#SVGID_00000038397063622421884640000000461636754952311214_"  style="overflow:visible;"/>
		</clipPath>
		<g style="clip-path:url(#SVGID_00000117642816985817924320000018023729828999572898_);">
			<g>
				<path class="st1" d="M2043.3,116.7c-0.8-0.8-7.6,5.5-7.6,5.5s0,0-0.1,0.1l0,0l-55.9,55.9l2.1,2.1l56-56
					C2037.8,124.3,2044.1,117.4,2043.3,116.7z"/>
			</g>
			<g>
				<path class="st1" d="M1842.5,317.4c-14.1-14.1-29.2-22.6-36.6-21.1l-18.4,18.4c7.4-1.4,22.5,7,36.6,21.1s22.6,29.2,21.1,36.6
					l18.4-18.4C1865.1,346.6,1856.6,331.5,1842.5,317.4z"/>
			</g>
			<g>
				<path class="st1" d="M1988.4,171.6c-14.5-14.5-31-8.1-31-8.1l-0.1,0.1l0,0l-59.8,59.8c7,3.7,14.7,9.6,22.1,17
					c7,7,13.1,14.8,17,22.1l59.8-59.8C1996.5,202.6,2002.6,185.8,1988.4,171.6z"/>
			</g>
			<g>
				<path class="st1" d="M1917.5,242.5c-15.9-15.9-33.3-24.4-38.8-18.9l-0.1,0.1l0,0l-19.7,19.7c7.4-1.4,22.5,7,36.6,21.1
					c14.1,14.1,22.6,29.2,21.1,36.6l19.8-19.8C1941.9,275.8,1933.4,258.4,1917.5,242.5z"/>
			</g>
			<g>
				<path class="st1" d="M1867.9,292.1c-14.1-14.1-29.2-22.6-36.6-21.1l-20.3,20.3c7.4-1.4,22.5,7,36.6,21.1s22.6,29.2,21.1,36.6
					l20.3-20.3C1890.4,321.3,1882,306.2,1867.9,292.1z"/>
			</g>
			<g>
				<path class="st1" d="M1890.4,269.6c-14.1-14.1-29.2-22.6-36.6-21.1l-17.5,17.5c7.4-1.4,22.5,7,36.6,21.1s22.6,29.2,21.1,36.6
					l17.5-17.5C1912.9,298.7,1904.5,283.7,1890.4,269.6z"/>
			</g>
			<g>
				<path class="st1" d="M1838.3,379.4c-5.4,5.4-22.8-3.1-38.7-19c-15.9-15.9-24.5-33.3-19-38.7c5.4-5.4,22.8,3.1,38.7,19
					C1835.2,356.7,1843.7,374,1838.3,379.4z M1816.5,343.4c-11.6-11.6-24.1-17.7-28.1-13.8c-3.9,3.9,2.2,16.5,13.8,28.1
					c11.6,11.6,24.1,17.7,28.1,13.8C1834.3,367.5,1828.1,355,1816.5,343.4z"/>
			</g>
			<g>
				<path class="st1" d="M2062.5,403.6l-92.9,92.9l-112.2-112.2l92.9-92.9L2062.5,403.6z M1970.2,461.3l-15.5,15.5l15.5,15.5
					l15.5-15.5L1970.2,461.3z M1988.4,443.2l-15.5,15.5l15.5,15.5l15.5-15.5L1988.4,443.2z M2006.5,425l-15.5,15.5l15.5,15.5
					l15.5-15.5L2006.5,425z M2024.7,406.9l-15.5,15.5l15.5,15.5l15.5-15.5L2024.7,406.9z M2042.8,388.8l-15.5,15.5l15.5,15.5
					l15.5-15.5L2042.8,388.8z M1951.8,442.8l-15.5,15.5l15.5,15.5l15.5-15.5L1951.8,442.8z M1969.9,424.7l-15.5,15.5l15.5,15.5
					l15.5-15.5L1969.9,424.7z M1988,406.6l-15.5,15.5l15.5,15.5l15.5-15.5L1988,406.6z M2006.2,388.4l-15.5,15.5l15.5,15.5
					l15.5-15.5L2006.2,388.4z M2024.3,370.3l-15.5,15.5l15.5,15.5l15.5-15.5L2024.3,370.3z M1933.3,424.4l-15.5,15.5l15.5,15.5
					l15.5-15.5L1933.3,424.4z M1951.4,406.2l-15.5,15.5l15.5,15.5l15.5-15.5L1951.4,406.2z M1969.6,388.1l-15.5,15.5l15.5,15.5
					l15.5-15.5L1969.6,388.1z M1987.7,369.9l-15.5,15.5l15.5,15.5l15.5-15.5L1987.7,369.9z M2005.8,351.8l-15.5,15.5l15.5,15.5
					l15.5-15.5L2005.8,351.8z M1914.8,405.9l-15.5,15.5l15.5,15.5l15.5-15.5L1914.8,405.9z M1932.9,387.7l-15.5,15.5l15.5,15.5
					l15.5-15.5L1932.9,387.7z M1951.1,369.6l-15.5,15.5l15.5,15.5l15.5-15.5L1951.1,369.6z M1969.2,351.5l-15.5,15.5l15.5,15.5
					l15.5-15.5L1969.2,351.5z M1987.4,333.3l-15.5,15.5l15.5,15.5l15.5-15.5L1987.4,333.3z M1896.3,387.4l-15.5,15.5l15.5,15.5
					l15.5-15.5L1896.3,387.4z M1914.5,369.3l-15.5,15.5l15.5,15.5l15.5-15.5L1914.5,369.3z M1932.6,351.1l-15.5,15.5l15.5,15.5
					l15.5-15.5L1932.6,351.1z M1950.7,333l-15.5,15.5l15.5,15.5l15.5-15.5L1950.7,333z M1968.9,314.8l-15.5,15.5l15.5,15.5
					l15.5-15.5L1968.9,314.8z M1877.8,368.9l-15.5,15.5l15.5,15.5l15.5-15.5L1877.8,368.9z M1896,350.8l-15.5,15.5l15.5,15.5
					l15.5-15.5L1896,350.8z M1914.1,332.6l-15.5,15.5l15.5,15.5l15.5-15.5L1914.1,332.6z M1932.3,314.5l-15.5,15.5l15.5,15.5
					l15.5-15.5L1932.3,314.5z M1950.4,296.3l-15.5,15.5l15.5,15.5l15.5-15.5L1950.4,296.3z"/>
			</g>
			<g>
				<path class="st1" d="M1868.6,209.7l-92.9,92.9l-112.2-112.2l92.9-92.9L1868.6,209.7z M1683.1,174.2l-15.5,15.5l15.5,15.5
					l15.5-15.5L1683.1,174.2z M1701.3,156.1l-15.5,15.5l15.5,15.5l15.5-15.5L1701.3,156.1z M1719.4,137.9l-15.5,15.5l15.5,15.5
					l15.5-15.5L1719.4,137.9z M1737.5,119.8l-15.5,15.5l15.5,15.5l15.5-15.5L1737.5,119.8z M1755.7,101.6l-15.5,15.5l15.5,15.5
					l15.5-15.5L1755.7,101.6z M1701.6,192.7l-15.5,15.5l15.5,15.5l15.5-15.5L1701.6,192.7z M1719.7,174.5l-15.5,15.5l15.5,15.5
					l15.5-15.5L1719.7,174.5z M1737.9,156.4l-15.5,15.5l15.5,15.5l15.5-15.5L1737.9,156.4z M1756,138.3l-15.5,15.5l15.5,15.5
					l15.5-15.5L1756,138.3z M1774.2,120.1l-15.5,15.5l15.5,15.5l15.5-15.5L1774.2,120.1z M1720.1,211.2l-15.5,15.5l15.5,15.5
					l15.5-15.5L1720.1,211.2z M1738.2,193l-15.5,15.5l15.5,15.5l15.5-15.5L1738.2,193z M1756.4,174.9l-15.5,15.5l15.5,15.5
					l15.5-15.5L1756.4,174.9z M1774.5,156.7l-15.5,15.5l15.5,15.5l15.5-15.5L1774.5,156.7z M1792.7,138.6l-15.5,15.5l15.5,15.5
					l15.5-15.5L1792.7,138.6z M1738.6,229.6l-15.5,15.5l15.5,15.5l15.5-15.5L1738.6,229.6z M1756.7,211.5l-15.5,15.5l15.5,15.5
					l15.5-15.5L1756.7,211.5z M1774.8,193.4l-15.5,15.5l15.5,15.5l15.5-15.5L1774.8,193.4z M1793,175.2l-15.5,15.5l15.5,15.5
					l15.5-15.5L1793,175.2z M1811.1,157.1l-15.5,15.5l15.5,15.5l15.5-15.5L1811.1,157.1z M1757,248.1l-15.5,15.5l15.5,15.5
					l15.5-15.5L1757,248.1z M1775.2,230l-15.5,15.5l15.5,15.5l15.5-15.5L1775.2,230z M1793.3,211.8l-15.5,15.5l15.5,15.5l15.5-15.5
					L1793.3,211.8z M1811.5,193.7l-15.5,15.5l15.5,15.5l15.5-15.5L1811.5,193.7z M1829.6,175.6l-15.5,15.5l15.5,15.5l15.5-15.5
					L1829.6,175.6z M1775.5,266.6l-15.5,15.5l15.5,15.5l15.5-15.5L1775.5,266.6z M1793.7,248.5l-15.5,15.5l15.5,15.5l15.5-15.5
					L1793.7,248.5z M1811.8,230.3l-15.5,15.5l15.5,15.5l15.5-15.5L1811.8,230.3z M1830,212.2l-15.5,15.5l15.5,15.5l15.5-15.5
					L1830,212.2z M1848.1,194l-15.5,15.5l15.5,15.5l15.5-15.5L1848.1,194z"/>
			</g>
			<g>
				
					<rect x="1823.4" y="254.2" transform="matrix(0.7071 -0.7071 0.7071 0.7071 349.5652 1369.2375)" class="st1" width="8.4" height="16.9"/>
			</g>
			<g>
				<path class="st1" d="M2047.8,112.1c2.5,2.5,2.5,6.6,0,9c-2.5,2.5-6.6,2.5-9,0c-2.5-2.5-2.5-6.6,0-9
					C2041.3,109.6,2045.3,109.6,2047.8,112.1z"/>
			</g>
			<g>
				
					<rect x="1893" y="323.9" transform="matrix(0.7071 -0.7071 0.7071 0.7071 320.7145 1438.8768)" class="st1" width="8.4" height="16.9"/>
			</g>
		</g>
	</g>
	<g>
		<defs>
			<rect id="SVGID_00000168819283810601558030000013053895294698652555_" x="1" width="3549" height="533.7"/>
		</defs>
		<clipPath id="SVGID_00000175287843156266823630000003054095673854617258_">
			<use xlink:href="#SVGID_00000168819283810601558030000013053895294698652555_"  style="overflow:visible;"/>
		</clipPath>
		<g style="clip-path:url(#SVGID_00000175287843156266823630000003054095673854617258_);">
			<path class="st1" d="M2211.8,393.8c-0.1,0-0.1,0-0.2,0c-0.5-0.1-0.8-0.5-0.8-1V-15c0-0.6,0.4-1,1-1s1,0.4,1,1v403.4l196-403.9
				c0.2-0.5,0.8-0.7,1.3-0.5c0.5,0.2,0.7,0.8,0.5,1.3l-197.9,407.8C2212.5,393.6,2212.2,393.8,2211.8,393.8z"/>
		</g>
	</g>
</g>
</svg>
