<?xml version="1.0" encoding="utf-8"?>
<!-- Generator: Adobe Illustrator 25.4.1, SVG Export Plug-In . SVG Version: 6.00 Build 0)  -->
<svg version="1.1" id="Слой_1" xmlns="http://www.w3.org/2000/svg" xmlns:xlink="http://www.w3.org/1999/xlink" x="0px" y="0px"
	 viewBox="0 0 3550 533.7" style="enable-background:new 0 0 3550 533.7;" xml:space="preserve">
<style type="text/css">
	
		.st0{clip-path:url(#SVGID_00000174598473580834929750000016605400663819789741_);fill:none;stroke:#D2D8E0;stroke-width:2;stroke-linecap:round;stroke-linejoin:round;stroke-miterlimit:10;}
	.st1{clip-path:url(#SVGID_00000174598473580834929750000016605400663819789741_);fill:#D2D8E0;}
	.st2{clip-path:url(#SVGID_00000174598473580834929750000016605400663819789741_);}
	.st3{fill:#D2D8E0;}
</style>
<g>
	<defs>
		<rect id="SVGID_1_" x="1" width="3549" height="533.7"/>
	</defs>
	<clipPath id="SVGID_00000116207969971221510840000018114535396384377757_">
		<use xlink:href="#SVGID_1_"  style="overflow:visible;"/>
	</clipPath>
	
		<polyline style="clip-path:url(#SVGID_00000116207969971221510840000018114535396384377757_);fill:none;stroke:#D2D8E0;stroke-width:2;stroke-linecap:round;stroke-linejoin:round;stroke-miterlimit:10;" points="
		515.4,-5.8 902.9,140.9 815.4,-5.8 980.7,-5.8 902.9,140.9 1348.7,-5.8 	"/>
	
		<polyline style="clip-path:url(#SVGID_00000116207969971221510840000018114535396384377757_);fill:none;stroke:#D2D8E0;stroke-width:2;stroke-linecap:round;stroke-linejoin:round;stroke-miterlimit:10;" points="
		1084.8,-5.8 1511.2,122.8 1479.3,-5.8 	"/>
	
		<polyline style="clip-path:url(#SVGID_00000116207969971221510840000018114535396384377757_);fill:none;stroke:#D2D8E0;stroke-width:2;stroke-linecap:round;stroke-linejoin:round;stroke-miterlimit:10;" points="
		1815.4,-5.8 1511.2,122.8 1675.1,-5.8 	"/>
	
		<polyline style="clip-path:url(#SVGID_00000116207969971221510840000018114535396384377757_);fill:none;stroke:#D2D8E0;stroke-width:2;stroke-linecap:round;stroke-linejoin:round;stroke-miterlimit:10;" points="
		1734.8,-5.8 1886.2,156.1 1894.6,-5.8 	"/>
	
		<polyline style="clip-path:url(#SVGID_00000116207969971221510840000018114535396384377757_);fill:none;stroke:#D2D8E0;stroke-width:2;stroke-linecap:round;stroke-linejoin:round;stroke-miterlimit:10;" points="
		2033.5,-5.8 1886.2,156.1 2280.3,-5.8 	"/>
	
		<line style="clip-path:url(#SVGID_00000116207969971221510840000018114535396384377757_);fill:none;stroke:#D2D8E0;stroke-width:2;stroke-linecap:round;stroke-linejoin:round;stroke-miterlimit:10;" x1="2105.2" y1="-5.8" x2="2569.7" y2="140.9"/>
	
		<polyline style="clip-path:url(#SVGID_00000116207969971221510840000018114535396384377757_);fill:none;stroke:#D2D8E0;stroke-width:2;stroke-linecap:round;stroke-linejoin:round;stroke-miterlimit:10;" points="
		1450.9,-15 1239.9,291.3 1303.5,-10.4 	"/>
	
		<polyline style="clip-path:url(#SVGID_00000116207969971221510840000018114535396384377757_);fill:none;stroke:#D2D8E0;stroke-width:2;stroke-linecap:round;stroke-linejoin:round;stroke-miterlimit:10;" points="
		1220.7,-15 1518.4,392.8 1595.2,-33.4 	"/>
	
		<circle style="clip-path:url(#SVGID_00000116207969971221510840000018114535396384377757_);fill:#D2D8E0;" cx="903.4" cy="140.9" r="7.2"/>
	
		<polyline style="clip-path:url(#SVGID_00000116207969971221510840000018114535396384377757_);fill:none;stroke:#D2D8E0;stroke-width:2;stroke-linecap:round;stroke-linejoin:round;stroke-miterlimit:10;" points="
		2356.4,2.1 2576.4,140.9 2488.9,-5.8 2654.2,-5.8 2576.4,140.9 3022.3,-5.8 	"/>
	
		<circle style="clip-path:url(#SVGID_00000116207969971221510840000018114535396384377757_);fill:#D2D8E0;" cx="2576.9" cy="140.9" r="7.2"/>
	
		<circle style="clip-path:url(#SVGID_00000116207969971221510840000018114535396384377757_);fill:#D2D8E0;" cx="1511.2" cy="122.8" r="7.2"/>
	
		<polyline style="clip-path:url(#SVGID_00000116207969971221510840000018114535396384377757_);fill:none;stroke:#D2D8E0;stroke-width:2;stroke-linecap:round;stroke-linejoin:round;stroke-miterlimit:10;" points="
		2773,-5.8 3199.4,122.8 3167.4,-5.8 	"/>
	
		<polyline style="clip-path:url(#SVGID_00000116207969971221510840000018114535396384377757_);fill:none;stroke:#D2D8E0;stroke-width:2;stroke-linecap:round;stroke-linejoin:round;stroke-miterlimit:10;" points="
		3503.5,-5.8 3199.4,122.8 3363.2,-5.8 	"/>
	
		<circle style="clip-path:url(#SVGID_00000116207969971221510840000018114535396384377757_);fill:#D2D8E0;" cx="3199.4" cy="122.8" r="7.2"/>
	
		<polyline style="clip-path:url(#SVGID_00000116207969971221510840000018114535396384377757_);fill:none;stroke:#D2D8E0;stroke-width:2;stroke-linecap:round;stroke-linejoin:round;stroke-miterlimit:10;" points="
		1,-5.8 427.4,122.8 395.4,-5.8 	"/>
	
		<polyline style="clip-path:url(#SVGID_00000116207969971221510840000018114535396384377757_);fill:none;stroke:#D2D8E0;stroke-width:2;stroke-linecap:round;stroke-linejoin:round;stroke-miterlimit:10;" points="
		731.6,-5.8 427.4,122.8 591.3,-5.8 	"/>
	
		<circle style="clip-path:url(#SVGID_00000116207969971221510840000018114535396384377757_);fill:#D2D8E0;" cx="427.4" cy="122.8" r="7.2"/>
	
		<circle style="clip-path:url(#SVGID_00000116207969971221510840000018114535396384377757_);fill:#D2D8E0;" cx="1518.4" cy="389.7" r="7.2"/>
	
		<circle style="clip-path:url(#SVGID_00000116207969971221510840000018114535396384377757_);fill:#D2D8E0;" cx="1239.9" cy="290.2" r="7.2"/>
	
		<circle style="clip-path:url(#SVGID_00000116207969971221510840000018114535396384377757_);fill:#D2D8E0;" cx="2211.8" cy="392.8" r="7.2"/>
	
		<circle style="clip-path:url(#SVGID_00000116207969971221510840000018114535396384377757_);fill:#D2D8E0;" cx="1886.2" cy="156.1" r="7.2"/>
	
		<circle style="clip-path:url(#SVGID_00000116207969971221510840000018114535396384377757_);fill:#D2D8E0;" cx="1220.7" cy="34.7" r="7.2"/>
	<g style="clip-path:url(#SVGID_00000116207969971221510840000018114535396384377757_);">
		<path class="st3" d="M2043.3,116.7c-0.8-0.8-7.6,5.5-7.6,5.5c0,0,0,0-0.1,0.1l0,0l-55.9,55.9l2.1,2.1l56-56
			C2037.8,124.3,2044.1,117.4,2043.3,116.7z"/>
		<path class="st3" d="M1842.5,317.4c-14.1-14.1-29.2-22.6-36.6-21.1l-18.4,18.4c7.4-1.4,22.5,7,36.6,21.1
			c14.1,14.1,22.6,29.2,21.1,36.6l18.4-18.4C1865.1,346.6,1856.6,331.5,1842.5,317.4z"/>
		<path class="st3" d="M1988.4,171.6c-14.5-14.5-31-8.1-31-8.1c0,0-0.1,0.1-0.1,0.1l0,0l-59.8,59.8c7,3.7,14.7,9.6,22.1,17
			c7,7,13.1,14.8,17,22.1l59.8-59.8C1996.5,202.6,2002.6,185.8,1988.4,171.6z"/>
		<path class="st3" d="M1917.5,242.5c-15.9-15.9-33.3-24.4-38.8-18.9c0,0-0.1,0.1-0.1,0.1l0,0l-19.7,19.7c7.4-1.4,22.5,7,36.6,21.1
			c14.1,14.1,22.6,29.2,21.1,36.6l19.8-19.8C1941.9,275.8,1933.4,258.4,1917.5,242.5z"/>
		<path class="st3" d="M1867.9,292.1c-14.1-14.1-29.2-22.6-36.6-21.1l-20.3,20.3c7.4-1.4,22.5,7,36.6,21.1
			c14.1,14.1,22.6,29.2,21.1,36.6l20.3-20.3C1890.4,321.3,1882,306.2,1867.9,292.1z"/>
		<path class="st3" d="M1890.4,269.6c-14.1-14.1-29.2-22.6-36.6-21.1l-17.5,17.5c7.4-1.4,22.5,7,36.6,21.1
			c14.1,14.1,22.6,29.2,21.1,36.6l17.5-17.5C1912.9,298.7,1904.5,283.7,1890.4,269.6z"/>
		<path class="st3" d="M1838.3,379.4c-5.4,5.4-22.8-3.1-38.7-19c-15.9-15.9-24.5-33.3-19-38.7c5.4-5.4,22.8,3.1,38.7,19
			C1835.2,356.7,1843.7,374,1838.3,379.4z M1816.5,343.4c-11.6-11.6-24.1-17.7-28.1-13.8c-3.9,3.9,2.2,16.5,13.8,28.1
			c11.6,11.6,24.1,17.7,28.1,13.8C1834.3,367.5,1828.1,355,1816.5,343.4z"/>
		<path class="st3" d="M2062.5,403.6l-92.9,92.9l-112.2-112.2l92.9-92.9L2062.5,403.6z M1970.2,461.3l-15.5,15.5l15.5,15.5
			l15.5-15.5L1970.2,461.3z M1988.4,443.2l-15.5,15.5l15.5,15.5l15.5-15.5L1988.4,443.2z M2006.5,425l-15.5,15.5l15.5,15.5
			l15.5-15.5L2006.5,425z M2024.7,406.9l-15.5,15.5l15.5,15.5l15.5-15.5L2024.7,406.9z M2042.8,388.8l-15.5,15.5l15.5,15.5
			l15.5-15.5L2042.8,388.8z M1951.8,442.8l-15.5,15.5l15.5,15.5l15.5-15.5L1951.8,442.8z M1969.9,424.7l-15.5,15.5l15.5,15.5
			l15.5-15.5L1969.9,424.7z M1988,406.6l-15.5,15.5l15.5,15.5l15.5-15.5L1988,406.6z M2006.2,388.4l-15.5,15.5l15.5,15.5l15.5-15.5
			L2006.2,388.4z M2024.3,370.3l-15.5,15.5l15.5,15.5l15.5-15.5L2024.3,370.3z M1933.3,424.4l-15.5,15.5l15.5,15.5l15.5-15.5
			L1933.3,424.4z M1951.4,406.2l-15.5,15.5l15.5,15.5l15.5-15.5L1951.4,406.2z M1969.6,388.1l-15.5,15.5l15.5,15.5l15.5-15.5
			L1969.6,388.1z M1987.7,369.9l-15.5,15.5l15.5,15.5l15.5-15.5L1987.7,369.9z M2005.8,351.8l-15.5,15.5l15.5,15.5l15.5-15.5
			L2005.8,351.8z M1914.8,405.9l-15.5,15.5l15.5,15.5l15.5-15.5L1914.8,405.9z M1932.9,387.7l-15.5,15.5l15.5,15.5l15.5-15.5
			L1932.9,387.7z M1951.1,369.6l-15.5,15.5l15.5,15.5l15.5-15.5L1951.1,369.6z M1969.2,351.5l-15.5,15.5l15.5,15.5l15.5-15.5
			L1969.2,351.5z M1987.4,333.3l-15.5,15.5l15.5,15.5l15.5-15.5L1987.4,333.3z M1896.3,387.4l-15.5,15.5l15.5,15.5l15.5-15.5
			L1896.3,387.4z M1914.5,369.3l-15.5,15.5l15.5,15.5l15.5-15.5L1914.5,369.3z M1932.6,351.1l-15.5,15.5l15.5,15.5l15.5-15.5
			L1932.6,351.1z M1950.7,333l-15.5,15.5l15.5,15.5l15.5-15.5L1950.7,333z M1968.9,314.8l-15.5,15.5l15.5,15.5l15.5-15.5
			L1968.9,314.8z M1877.8,368.9l-15.5,15.5l15.5,15.5l15.5-15.5L1877.8,368.9z M1896,350.8l-15.5,15.5l15.5,15.5l15.5-15.5
			L1896,350.8z M1914.1,332.6l-15.5,15.5l15.5,15.5l15.5-15.5L1914.1,332.6z M1932.3,314.5l-15.5,15.5l15.5,15.5l15.5-15.5
			L1932.3,314.5z M1950.4,296.3l-15.5,15.5l15.5,15.5l15.5-15.5L1950.4,296.3z"/>
		<path class="st3" d="M1868.6,209.7l-92.9,92.9l-112.2-112.2l92.9-92.9L1868.6,209.7z M1683.1,174.2l-15.5,15.5l15.5,15.5
			l15.5-15.5L1683.1,174.2z M1701.3,156.1l-15.5,15.5l15.5,15.5l15.5-15.5L1701.3,156.1z M1719.4,137.9l-15.5,15.5l15.5,15.5
			l15.5-15.5L1719.4,137.9z M1737.5,119.8l-15.5,15.5l15.5,15.5l15.5-15.5L1737.5,119.8z M1755.7,101.6l-15.5,15.5l15.5,15.5
			l15.5-15.5L1755.7,101.6z M1701.6,192.7l-15.5,15.5l15.5,15.5l15.5-15.5L1701.6,192.7z M1719.7,174.5l-15.5,15.5l15.5,15.5
			l15.5-15.5L1719.7,174.5z M1737.9,156.4l-15.5,15.5l15.5,15.5l15.5-15.5L1737.9,156.4z M1756,138.3l-15.5,15.5l15.5,15.5
			l15.5-15.5L1756,138.3z M1774.2,120.1l-15.5,15.5l15.5,15.5l15.5-15.5L1774.2,120.1z M1720.1,211.2l-15.5,15.5l15.5,15.5
			l15.5-15.5L1720.1,211.2z M1738.2,193l-15.5,15.5l15.5,15.5l15.5-15.5L1738.2,193z M1756.4,174.9l-15.5,15.5l15.5,15.5l15.5-15.5
			L1756.4,174.9z M1774.5,156.7l-15.5,15.5l15.5,15.5l15.5-15.5L1774.5,156.7z M1792.7,138.6l-15.5,15.5l15.5,15.5l15.5-15.5
			L1792.7,138.6z M1738.6,229.6l-15.5,15.5l15.5,15.5l15.5-15.5L1738.6,229.6z M1756.7,211.5l-15.5,15.5l15.5,15.5l15.5-15.5
			L1756.7,211.5z M1774.8,193.4l-15.5,15.5l15.5,15.5l15.5-15.5L1774.8,193.4z M1793,175.2l-15.5,15.5l15.5,15.5l15.5-15.5
			L1793,175.2z M1811.1,157.1l-15.5,15.5l15.5,15.5l15.5-15.5L1811.1,157.1z M1757,248.1l-15.5,15.5l15.5,15.5l15.5-15.5L1757,248.1
			z M1775.2,230l-15.5,15.5l15.5,15.5l15.5-15.5L1775.2,230z M1793.3,211.8l-15.5,15.5l15.5,15.5l15.5-15.5L1793.3,211.8z
			 M1811.5,193.7l-15.5,15.5l15.5,15.5l15.5-15.5L1811.5,193.7z M1829.6,175.6l-15.5,15.5l15.5,15.5l15.5-15.5L1829.6,175.6z
			 M1775.5,266.6l-15.5,15.5l15.5,15.5l15.5-15.5L1775.5,266.6z M1793.7,248.5l-15.5,15.5l15.5,15.5l15.5-15.5L1793.7,248.5z
			 M1811.8,230.3l-15.5,15.5l15.5,15.5l15.5-15.5L1811.8,230.3z M1830,212.2l-15.5,15.5l15.5,15.5l15.5-15.5L1830,212.2z
			 M1848.1,194l-15.5,15.5l15.5,15.5l15.5-15.5L1848.1,194z"/>
		
			<rect x="1823.4" y="254.2" transform="matrix(0.7071 -0.7071 0.7071 0.7071 349.5828 1369.2324)" class="st3" width="8.4" height="16.9"/>
		<path class="st3" d="M2047.8,112.1c2.5,2.5,2.5,6.6,0,9c-2.5,2.5-6.6,2.5-9,0c-2.5-2.5-2.5-6.6,0-9
			C2041.3,109.6,2045.3,109.6,2047.8,112.1z"/>
		
			<rect x="1893.1" y="323.9" transform="matrix(0.7071 -0.7071 0.7071 0.7071 320.6498 1438.8779)" class="st3" width="8.4" height="16.9"/>
	</g>
	
		<polyline style="clip-path:url(#SVGID_00000116207969971221510840000018114535396384377757_);fill:none;stroke:#D2D8E0;stroke-width:2;stroke-linecap:round;stroke-linejoin:round;stroke-miterlimit:10;" points="
		2409.7,-15 2211.8,392.8 2211.8,-15 	"/>
</g>
</svg>
