<?xml version="1.0" encoding="utf-8"?>
<!-- Generator: Adobe Illustrator 25.4.1, SVG Export Plug-In . SVG Version: 6.00 Build 0)  -->
<svg version="1.1" id="Слой_1" xmlns="http://www.w3.org/2000/svg" xmlns:xlink="http://www.w3.org/1999/xlink" x="0px" y="0px"
	 viewBox="0 0 4003.5 4003.5" style="enable-background:new 0 0 4003.5 4003.5;" xml:space="preserve">
<style type="text/css">
	.st0{fill:#3D6FAF;}
	.st1{fill:#FFFFFF;}
	
		.st2{fill-rule:evenodd;clip-rule:evenodd;fill:none;stroke:#FFFFFF;stroke-width:27.4776;stroke-linecap:round;stroke-linejoin:round;stroke-miterlimit:22.9256;}
</style>
<circle class="st0" cx="2001.7" cy="2001.7" r="2001.7"/>
<g>
	<path class="st1" d="M1218.8,587.6c19.3-0.4,37.3,4.2,54,13.7c16.8,9.6,30.6,23.4,41.3,41.6c10.8,18.2,16.3,36.9,16.7,56.2
		c0.3,19.3-4.3,37.3-13.9,54c-9.6,16.7-23.5,30.4-41.7,41.2c-16.3,9.6-32.6,15.5-48.9,17.6c-16.3,2.1-32.1,0.4-47.1-5l12.1-41.2
		c21.5,6.9,41.7,4.7,60.4-6.4c13.5-8,22.5-18.7,27.2-32.1c4.7-13.4,4.5-27.6-0.6-42.6l-74.5,44.2l-19.3-32.5l74-43.8
		c-10.4-10.8-22.5-17.3-36.2-19.3c-13.7-2-27.2,0.8-40.3,8.6c-18.7,11.1-30.2,27.7-34.6,49.9l-42-9.2c2.4-15.9,8.5-30.4,18.2-43.8
		c9.7-13.3,22.7-24.8,39-34.4C1180.9,593.6,1199.6,588,1218.8,587.6z"/>
	<path class="st1" d="M1517.1,445.4L1593,645l-45.9,17.5l-61.6-161.9l-90.1,34.3l61.6,161.9l-45.9,17.5l-75.9-199.5L1517.1,445.4z"
		/>
	<path class="st1" d="M1691.6,611c-19.1-6-35.1-16.2-48.2-30.8c-13.1-14.6-21.6-32.2-25.6-53c-4-20.8-2.7-40.3,4-58.7
		c6.7-18.4,17.8-33.9,33.3-46.5c15.5-12.6,34-21,55.6-25.2c18.2-3.5,35.2-3.5,51.1,0.1c15.9,3.6,30,10.4,42.3,20.4l-25.6,34.8
		c-17.3-13.6-36.5-18.4-57.4-14.4c-13,2.5-24,7.6-33.1,15.2c-9.1,7.7-15.5,17.1-19.2,28.4c-3.7,11.3-4.3,23.4-1.8,36.4
		c2.5,13,7.6,24,15.2,33.1s17.1,15.5,28.4,19.2s23.4,4.3,36.4,1.8c21-4,36.9-15.7,47.9-35l36.7,22.7c-7.6,14.1-18.2,25.8-31.8,35
		c-13.5,9.2-29.4,15.6-47.6,19.1C1730.9,617.8,1710.7,616.9,1691.6,611z"/>
	<path class="st1" d="M1874.6,376.3l49.1-0.9l2.6,139.1l99.2-141l46.4-0.9l4,213.5l-48.8,0.9l-2.6-138.7l-99.2,140.7l-46.7,0.9
		L1874.6,376.3z"/>
	<path class="st1" d="M2357.1,409.6l-33.7,210.8l-48.2-7.7l27.3-171.1l-72.3-11.5l-8.5,43.7c-5.8,29.8-12.1,53.6-18.8,71.6
		c-6.8,18-15.4,31.2-26,39.7c-10.5,8.5-23.8,11.5-39.9,8.9c-6.6-1.1-14.5-3.4-23.6-7.2l9.6-40.8c2.5,1.2,5.3,2.1,8.5,2.6
		c11.6,1.9,20.9-3.7,27.7-16.7c6.8-13,13.2-34.1,19.1-63.2l16.7-85.1L2357.1,409.6z"/>
	<path class="st1" d="M2425.7,638.9c-13.6-15-22.3-32-26.1-51.2s-2.3-38.6,4.7-58.4c7-19.7,18.1-35.8,33.2-48.2
		c15.1-12.4,32.6-20.2,52.6-23.2c20-3,40.4-0.8,61.3,6.6c20.9,7.4,38.1,18.6,51.5,33.5c13.5,14.9,22.2,32,26.1,51.2
		c4,19.2,2.4,38.7-4.6,58.4c-7,19.7-18.1,35.8-33.3,48.2c-15.2,12.4-32.7,20.1-52.6,23.2c-19.9,3.1-40.2,0.9-61.1-6.5
		C2456.5,665,2439.3,653.8,2425.7,638.9z M2526.6,636.1c11.5-2.1,21.8-7,30.7-14.8c8.9-7.8,15.6-18,20.1-30.4
		c4.4-12.5,5.7-24.5,3.7-36.2c-2-11.7-6.8-22-14.4-30.9c-7.6-8.9-17.4-15.4-29.3-19.6c-11.9-4.2-23.6-5.3-35.1-3.3
		c-11.5,2-21.8,7-30.7,14.8c-8.9,7.8-15.6,18-20.1,30.4c-4.4,12.5-5.7,24.5-3.7,36.2c2,11.7,6.8,22,14.4,30.9
		c7.6,8.9,17.4,15.4,29.3,19.6C2503.4,637,2515.1,638.1,2526.6,636.1z"/>
	<path class="st1" d="M2905.9,642.9l-107.4,184.5l-42.7-24.8l44-75.7l-83.8-48.8l-44,75.7l-42.7-24.8l107.4-184.5l42.7,24.8
		l-42.3,72.8l83.8,48.8l42.3-72.8L2905.9,642.9z"/>
</g>
<g>
	<path class="st1" d="M919.6,3028.4l-48-55.4l-82.2,71.3l-27-31.1l107.9-93.6l75,86.5L919.6,3028.4z"/>
	<path class="st1" d="M848.4,3101.8c0.1-7,2.8-13.1,8.1-18.3c5.4-5.3,11.6-7.8,18.4-7.6c6.8,0.3,12.8,3,17.8,8.2
		c5.1,5.2,7.6,11.2,7.7,18c0.1,6.8-2.6,12.9-8,18.2c-5.3,5.2-11.5,7.7-18.5,7.6c-7-0.1-13-2.7-18.1-7.9
		C850.8,3114.9,848.3,3108.8,848.4,3101.8z"/>
	<path class="st1" d="M995.5,3233.6c-7-15.9-9.4-32.3-7.3-49.2c2.1-16.9,8.8-32.6,20.1-47.1c11.3-14.5,25-24.8,40.9-30.9
		c15.9-6.1,32.4-7.7,49.5-4.7c17.1,2.9,33.2,10.3,48.3,22.1c12.7,9.9,22.4,21.1,29.2,33.6c6.8,12.5,10.4,25.6,10.8,39.4l-37.5,3.1
		c-1-19.2-8.8-34.5-23.4-45.9c-9.1-7.1-18.7-11.4-28.9-13c-10.2-1.6-20.1-0.4-29.6,3.6c-9.5,4-17.8,10.5-24.9,19.6
		c-7.1,9.1-11.4,18.7-13,28.9c-1.6,10.2-0.4,20.1,3.6,29.6c4,9.5,10.5,17.8,19.6,24.9c14.6,11.4,31.4,15.3,50.4,11.4l6.1,37.1
		c-13.6,3.1-27.3,2.8-41.1-0.8c-13.8-3.6-27.1-10.4-39.7-20.3C1013.4,3263.3,1002.5,3249.5,995.5,3233.6z"/>
	<path class="st1" d="M1277.3,3282.5c4.6,15.2,1.4,31.8-9.7,49.9l-42.5,69.5l-33.1-20.2l9.3-15.2c-13.6,7.3-29.4,5.4-47.5-5.7
		c-9.4-5.7-16.5-12.3-21.4-19.6c-4.9-7.4-7.5-15-7.7-22.8c-0.2-7.8,1.9-15.3,6.2-22.4c6.9-11.3,16.6-17.6,29.1-18.9
		c12.5-1.3,27.7,3.5,45.5,14.4l28.1,17.2c4.7-7.7,6-15.1,3.8-22.1c-2.1-7-7.9-13.4-17.3-19.1c-6.5-4-13.5-6.9-21-8.6
		c-7.5-1.8-14.5-2.3-21-1.5l2.4-32.4c9.5-0.6,19.7,0.6,30.5,3.7c10.9,3.1,21.2,7.7,31,13.7C1260.9,3254,1272.6,3267.3,1277.3,3282.5
		z M1195.8,3348.1c6.4,0.1,12.2-2,17.5-6.3l7.6-12.5l-24.2-14.8c-14.5-8.9-24.7-8.5-30.5,1c-2.8,4.5-3.2,9.2-1.3,14
		c1.9,4.8,6,9.1,12.2,12.9C1183.2,3346.2,1189.4,3348.1,1195.8,3348.1z"/>
	<path class="st1" d="M1325,3294.3l37.3,17.3l-23.5,50.6l56.3,26.2l23.5-50.6l37.6,17.5l-60.2,129.5l-37.6-17.5l22.5-48.4
		l-56.3-26.2l-22.5,48.4l-37.3-17.3L1325,3294.3z"/>
	<path class="st1" d="M1518.5,3470.6l-20.4-6.7l-16.9,51.5l-39.3-12.9l44.6-135.7l39.3,12.9l-17.3,52.7l21.2,7l54.2-40.6l41.9,13.8
		l-68.8,49.5l27.5,87.3l-46.4-15.3L1518.5,3470.6z"/>
	<path class="st1" d="M1751.6,3474.1l-47.2-10.3l-23.2,106.3l-40.2-8.8l23.2-106.3l-47.2-10.3l7.3-33.2l134.6,29.4L1751.6,3474.1z"
		/>
	<path class="st1" d="M1760.3,3492.2l74.4,10.2l-4.5,32.9l-74.4-10.2L1760.3,3492.2z"/>
	<path class="st1" d="M2042.3,3418.8l-6,185.8l-42.7-1.4l4.9-150.7l-83.9-2.7l-4.9,150.7l-42.7-1.4l6-185.8L2042.3,3418.8z"/>
	<path class="st1" d="M2221.3,3529.6l-107.6,10c2.8,8.6,8,15.2,15.7,19.6c7.7,4.4,16.9,6.2,27.7,5.2c7.4-0.7,13.9-2.4,19.4-5.1
		c5.5-2.7,10.5-6.7,15-11.9l24.1,21.8c-12,16.6-30.8,26.1-56.6,28.4c-16,1.5-30.5-0.3-43.4-5.4c-12.9-5.1-23.2-12.9-31-23.4
		c-7.7-10.5-12.2-22.8-13.6-36.9c-1.3-13.9,0.8-26.8,6.4-38.6c5.6-11.8,13.8-21.4,24.8-28.7c11-7.3,23.6-11.7,37.9-13
		c13.9-1.3,26.8,0.5,38.6,5.5c11.8,4.9,21.5,12.7,29,23.3c7.5,10.6,11.9,23.3,13.3,38.1C2221.1,3518.9,2221.2,3522.6,2221.3,3529.6z
		 M2120.6,3492.8c-5.9,5.9-9.1,13.5-9.6,22.8l70.1-6.5c-2.2-8.9-6.8-15.7-13.6-20.5c-6.8-4.8-14.9-6.8-24-5.9
		C2134,3483.5,2126.4,3486.9,2120.6,3492.8z"/>
	<path class="st1" d="M2359,3453.2l-47.4,9.2l20.8,106.9l-40.4,7.9l-20.8-106.9l-47.4,9.2l-6.5-33.4l135.3-26.3L2359,3453.2z"/>
	<path class="st1" d="M2518.3,3457.2l-103.5,31.1c4.4,7.9,10.8,13.3,19.3,16.1c8.4,2.8,17.8,2.7,28.2-0.4c7.1-2.1,13.1-5.1,18-8.9
		c4.9-3.8,9-8.7,12.4-14.7l28,16.5c-8.5,18.6-25.1,31.6-49.8,39.1c-15.4,4.6-30,5.7-43.7,3.3c-13.7-2.5-25.3-8.1-35-16.8
		c-9.7-8.7-16.5-19.9-20.6-33.5c-4-13.4-4.5-26.4-1.3-39.1c3.1-12.7,9.3-23.7,18.6-33c9.3-9.3,20.8-16.1,34.5-20.2
		c13.4-4,26.4-4.8,39-2.3c12.6,2.5,23.6,8.2,33,17.1c9.4,8.9,16.3,20.5,20.5,34.7C2516.1,3446.8,2516.9,3450.4,2518.3,3457.2z
		 M2412.3,3441c-4.6,6.9-6.2,15-4.9,24.2l67.4-20.2c-4-8.2-9.8-14-17.4-17.4c-7.7-3.3-15.9-3.7-24.7-1
		C2423.7,3429.3,2416.9,3434.1,2412.3,3441z"/>
	<path class="st1" d="M2631.5,3327.4c12.4,1.3,23.7,5.8,33.8,13.4c10.1,7.7,18.1,18.3,23.9,31.7c5.8,13.5,8.1,26.5,6.8,39.1
		c-1.3,12.6-5.7,23.9-13.3,33.8c-7.6,9.9-17.4,17.5-29.6,22.8c-16.7,7.3-32.2,7.7-46.3,1.3l26.5,61.1l-38,16.5l-77.3-178.3
		l36.3-15.7l6.5,15.1c4.5-15.4,15.7-27.1,33.8-34.9C2606.8,3328.1,2619.1,3326.1,2631.5,3327.4z M2652.8,3419.8
		c3.4-9.3,2.7-19.5-2.1-30.5c-4.8-11-11.7-18.5-20.8-22.4c-9.1-3.9-18.5-3.7-28.3,0.5s-16.3,11-19.7,20.3
		c-3.4,9.3-2.7,19.5,2.1,30.5c4.8,11,11.7,18.5,20.8,22.4c9.1,3.9,18.5,3.7,28.3-0.5C2642.8,3435.8,2649.4,3429,2652.8,3419.8z"/>
	<path class="st1" d="M2791.1,3252.5c11.7-0.4,22.5,2.4,32.4,8.3s18.2,14.6,24.9,26c6.9,11.8,10.1,23.9,9.7,36.3
		c-0.4,12.4-4.3,24.1-11.6,35.1c-7.3,10.9-17.5,20.2-30.5,27.8c-21.5,12.6-42.5,15.6-62.9,8.9c-20.4-6.6-38.4-23.3-54-50.1
		c-14.5-24.8-20.6-47.7-18.5-68.7c2.2-21,13-40.4,32.7-58l51.8-46l22.8,27.9l-45.8,40.6c-12.5,11-20.2,21.6-23.3,32
		c-3.1,10.4-1.7,21.8,3.9,34.3c2-8.9,5.8-17.2,11.4-24.7c5.7-7.5,12.9-13.9,21.8-19C2767.7,3256.5,2779.4,3252.9,2791.1,3252.5z
		 M2816.8,3336.3c2.1-9.2,0.5-18.4-4.9-27.6c-5.4-9.3-12.6-15.1-21.4-17.3c-8.8-2.2-17.8-0.7-26.9,4.7c-9.3,5.4-15.2,12.6-17.6,21.4
		c-2.4,8.8-0.9,17.9,4.5,27.2c5.4,9.3,12.8,15.2,22,17.7c9.2,2.5,18.4,1.1,27.4-4.2C2809.1,3352.8,2814.7,3345.5,2816.8,3336.3z"/>
	<path class="st1" d="M2938.5,3124.9L2977,3285c4.5,17.1,5,31.3,1.2,42.4c-3.7,11.1-11.1,20.8-22,28.9c-6,4.4-12.6,7.9-19.8,10.4
		c-7.2,2.5-13.9,3.5-20,2.9l-5.4-32.7c4.2,0.4,8.5,0,12.8-1.2c4.3-1.2,8.1-3,11.3-5.4c4.5-3.4,7.4-7.2,8.6-11.5
		c1.2-4.3,1-9.9-0.5-16.7l-0.4-1.4l-135.4-78.7l34.3-25.5l89.9,53.9l-25.3-101.9L2938.5,3124.9z"/>
	<path class="st1" d="M3040.8,3039.1c12.1-3,24.2-2.5,36.3,1.3c12.1,3.9,23.1,11.1,33.2,21.9c10,10.7,16.6,22.3,19.6,34.6
		c3,12.3,2.7,24.4-1.1,36.3c-3.8,11.9-10.5,22.4-20.2,31.4c-13.3,12.5-27.7,18-43.2,16.8l45.5,48.7l-30.3,28.3l-132.7-142l28.9-27
		l11.2,12c-1-16.1,5.7-30.8,20.1-44.2C3017.8,3048.1,3028.7,3042.1,3040.8,3039.1z M3091.8,3118.9c0.1-9.9-4-19.2-12.2-28
		c-8.2-8.8-17.3-13.5-27.1-14.1c-9.9-0.6-18.7,2.8-26.4,10c-7.8,7.3-11.7,15.8-11.8,25.7c-0.1,9.9,4,19.2,12.2,28
		c8.2,8.8,17.3,13.5,27.1,14.1c9.9,0.6,18.7-2.8,26.4-10S3091.8,3128.8,3091.8,3118.9z"/>
	<path class="st1" d="M3176.4,2928.5l-48,55.4l82.2,71.3l-27,31.1l-107.9-93.6l75-86.5L3176.4,2928.5z"/>
</g>
<circle class="st2" cx="2004.7" cy="2000.9" r="1923.4"/>
<g id="Дракон">
	<path class="st1" d="M1617.8,961.1c13.2,20.8,29.1,38.3,47.2,53.6c50.2,42.7,107.7,57.7,167.7,63.2c33.3,3.1,66.7,4.3,99.9,8.7
		c37.2,4.9,71.3,19.7,97.8,52.3c4.1,5.1,7.5,10.9,12.7,18.7c-4.5-1.2-6-1.4-7.4-2c-31.8-13.8-63.4-14.4-94.3-3.2
		c-27.3,9.9-53.9,21.8-80.9,32.6c-11.2,4.5-22.7,8.4-34,12.6c19.3,11.3,66.8,7.5,93.9,3.6c44.1-6.5,87.4-1.2,130.2,15.8
		c44.9,17.9,90.6,28.8,137.6,32.9c25.5,2.2,51.1,9,76.4,15.1c9.7,2.3,18.8,8.3,28.2,12.6c-0.3,1.1-0.5,2.1-0.8,3.2
		c-7.2-0.3-14.3-0.9-21.5-0.9c-38.3,0.1-74.6,8.4-108.7,25.3c-27,13.4-51.2,30.8-66.4,59.7c-1.6,3.1-2.7,6.6-4.1,9.9
		c3.6-0.4,5.4-2.4,7.5-3.9c14-10,27-22.1,42.2-29.3c43.8-20.7,90.8-28.3,139.6-26.2c39.9,1.8,75.9,15.6,105.8,48.3
		c7.9,8.6,17.8,14.8,26.2,22.9c3,2.9,5.8,8.5,5.5,12.4c-0.8,11.4-4.3,21.5-14.6,27c-5.7,3-10.8,7.2-16.1,10.9
		c25.7,2.3,49.1-1.3,66.9-22.1c2.5-2.9,6.7-6.3,9.7-5.8c24.9,4.2,44.1-3.9,58.4-25.7c9.9-15,10.9-46.6,0.7-62.7
		c-5.7,6.3-10.9,13.4-17.3,18.6c-6.6,5.3-14.5,8.8-23.3,14c2.1-10,3.6-17,5.4-25.1c-3.3,0.5-4,0.4-4.4,0.8
		c-24,20.6-48.8,13.9-63.2-17.9c-11.4-25.1-28.1-42.8-52.5-51.7c-8.2-3-16.1-7-24-10.7c-20.2-9.6-36.3-24.9-48.2-45.2
		c-7.2-12.3-12.2-25.5-12.3-41.5c20.8,11.3,40.1,7,59.3,1.6c3.7-1.1,7.6-1.7,11.4-2.6c19.3-4.9,37.8-0.8,55.7,9.3
		c5.8,3.3,11.2,7.5,17,10.5c15,7.7,29.7,17.2,45.4,22c21.3,6.6,42.9,3.4,63.4-3.4c16.9-5.6,34.3-5.7,51.9-2.3
		c9.4,1.8,11.6,5.3,9.9,15.3c-0.8,4.9-2.6,9.6-3.9,14.4c0.5,0.8,1.1,1.6,1.6,2.3c8.6-5,17.2-9.9,26.6-15.4
		c5.5,15.2-0.6,27.4-7.1,40.8c18-3.1,29-13,38.4-25.9c2.4-3.3,5.9-7.2,9.3-7.5c20.9-1.9,32-22.2,32-42c0-16.4-4.5-26.4-18.6-32.8
		c-9.3-4.2-19.5-8-29.1-8.2c-29-0.4-57.8,1.4-86.8,1.6c-15.4,0.1-30.9-0.2-46.2-2.4c-31.4-4.4-51.8-26.5-66.7-55.9
		c-16.4-32.4-39.5-56.6-70.6-71.4c-11.9-5.7-23.6-12-35.3-18.2c-55.8-29.5-95.4-74.1-111.4-140.7c-0.5-2-1.8-3.7-4-8.2
		c-8.8,43.2-8.2,82.6,14.8,121.3c-54.4-10-104.7-30.6-149-68.1c-43.9-37.2-79.5-81.9-100.2-141.2c-7.4,19.4-8.9,38-8.1,56.8
		c2.5,61.6,34,107.8,76.2,149.8c-5,0.8-7.8,1.8-10.6,1.6c-20.3-0.9-40.6-0.7-60.8-3.2c-57.7-7.4-111.3-28.6-158.5-69.6
		c-22-19.1-41.5-40.5-50.2-70.7c-0.4-1.3-1.8-2.3-3.7-4.6c-4.7,17.3-4.5,33.7-0.2,49.9c17.9,67.6,57.3,115.5,115.6,146.5
		C1796.1,1033.2,1705.6,1012.8,1617.8,961.1z M2334.5,1055c17.4-6.7,36.2,0,48.4,16.7c15.6,21.5,15.6,21.5,35.4,33
		c-5.6,1.2-9.7,2.4-14,2.9c-16.1,2.2-31.8,0-47.1-8c-15.2-8-20.3-24.1-27.5-38.4C2329.2,1060.2,2332.4,1055.9,2334.5,1055z"/>
	<path class="st1" d="M2705.4,1328.7c-7.7-4-15.1-8.6-23.5-13.5c9.7-4.8,18.5-9.2,27.4-13.6c-0.5-1-0.9-2-1.4-3
		c-5.9,1.3-11.7,3.5-17.7,3.7c-17.3,0.6-32.4-7.6-47.2-17.8c-13.6-9.4-27.3-19.2-42-25.9c-24.4-11.3-49.4-9.9-74.2-4.7
		c-10.8,2.3-22,3.9-33,3.2c-17-1-31.2-11.5-44.6-22.9c-12.2-10.4-24.8-19.7-40.5-20.6c-3.8-0.2-7.5,0.6-11.3,0.9
		c11.5,6.9,22.9,11.9,32.3,19.8c10.8,9.1,19.9,20.6,29.5,31.3c16.7,18.6,36,27.7,59.4,27.2c14.9-0.3,30.1,2.3,45.1,4.1
		c3.8,0.5,7.5,3,11.2,4.6c0.6-1.3,1.2-2.5,1.8-3.8c-8.9-6.5-17.7-13-28.5-21c7.9,0.4,13.8,0.1,19.6,1c22.2,3.5,40.8,14.5,54.7,34.8
		c12.4,18.1,28.2,29.5,48.5,32.6c6,0.9,12,2.8,17.8,4.7c22.8,7.4,33.2,23.9,31.8,49.7c-0.1,2,0.5,4.1,0.8,6.8c1.6-0.9,2.6-1.1,3-1.7
		C2741,1381.6,2730.9,1341.9,2705.4,1328.7z"/>
	<path class="st1" d="M2027.4,2057c6.3-1.8,12.6-3.8,18.8-6.1c5.9-2.1,11.5-4.7,17.3-7.1c-2.2-1.3-522.7,99.7-527.2-303.5
		c-0.5-48.6-43.5-413.7,585.6-483c-54.6-10.7-79-16.9-118-31c-34.5-12.5-128.7,3.7-157.1,10.9c-22.4,5.6-65.1,18.1-103.5,40.6
		c-271.2,159-312,360.7-265.4,513.2C1581,2129.2,1955.5,2077.2,2027.4,2057z"/>
	<path class="st1" d="M2107,1843.4c-178-2.6-361.6,103.3-408.5,132.2c13.4,7.3,27.2,13.7,41.5,19.2
		C1804.2,1923.2,2070.8,1842.8,2107,1843.4z"/>
	<path class="st1" d="M2220.7,2026.1c21.8-19,218.5-204.1,13-308.7c0,0,65.5,66.7,33.4,90.2c0,0-5.6-18.9-11.2-27.6
		c-24.1-37.4-133.8-108.5-370.9-52.7c0,0,61,7.8,117,29.5c-13.7,2.1-28.1,4.4-43.3,6.9c-63.5,10.2-79,10.9-79,10.9
		s-191.2,6.2-286.1,83.7c0,0,111.3-32.8,179.4-19.6c-55.4,20.5-126,38.9-163.4,60.7c21.8,29.5,48.9,52.6,78.9,70.5
		c105.6-68.8,240.5-135.9,409.6-147.1c245.9-16.4,95.5,230.1-124.5,254.5c-89.7,9.9-178.3,13.3-268.9-19.8
		c-30.2-11-58.6-24.4-85-40.5c-27.1-16.3-172.1-116.4-188.7-318.1c-24.1-293.6,325-473.4,417.3-475c-37.1-12.9-73.4-24.7-97.1-42.3
		c3.1-1.4,59.3,8.6,93.2-7.1c47.5-22,120.5-47.3,144.1-41.8c-0.1-1.3-31.2-29.2-90.4-29.2c-32.7,0-136.8-11-192.9-28.3
		c-30.9-9.6-365.3,22.5-536.9,331c0,0,236.3-180.5,323.3-153.3c-78.7,34-339.3,265.9-306.4,578c0,0,79.5-229.8,146.2-207.9
		c-38.4,141.1-47.8,288.7,21.1,391.2c5.1,7.5-23.7-200.3,30.8-193.2c25.7,279,322.4,374.3,375.5,380.3c8,0.9,16.1,1.2,24.1,1.8
		c0.1-0.9,0.3-1.7,0.4-2.6c-61.8-18.8-114.9-52-154.8-107.6c3.1,0.5,5.6,2,8.2,3.3c27.5,13.7,54.4,29.6,82.7,40.5
		c73.4,28.5,208.6,70.8,306.3,53.6c-46.6-14-57.2-48.8-44.2-49.7c-6.4,4.3,86.3,17.8,177.3-23.2c28.8-11.4,82.7-41,140.2-127.2
		C2299.2,1990.1,2245.1,2030.4,2220.7,2026.1z"/>
	<path class="st1" d="M1338.7,2607.5c5.5,40.9,29.4,162.3,179.5,255.9c383.8,239.4,982.5-17.2,988.3-19.7
		c-2.2-1.3-864,299.8-1092.5-201.2c-69.9-153.2,101.9-411,203-460.8c-18.6-10.7-46.5-26.4-65.4-40.5
		C1392.1,2282.5,1319,2460.3,1338.7,2607.5z"/>
	<path class="st1" d="M2931.2,2631.6c-34.1,167.3-1197.1,630.8-1572.3,116.2c-36.6-50.2-50.1-113.4-47.6-173.4
		c12.5-299.5,187.1-417.8,218.1-451.3c-34-28.3-86-66.1-112.1-107.4c-148.2,79.3-345.2,245-338.9,469.6
		c15.9-76.9,110.4-168.5,199.3-222c0,0-252.8,247.4-50.9,676c0,0,1.1-105.7,29.5-190.9c0,0,77.1,326.4,425.4,395.1
		c-56.6-19.2-73.3-103.5-92.2-120.4c3.1,0.5,350.1,137.6,460.1,117.4c-59.9-21.3-115.7-93.4-100.8-95.1
		c49.5,10.6,438,31.8,596.3-22.3C2268.1,2900.9,2876.2,2901.7,2931.2,2631.6z"/>
</g>
</svg>
