<?xml version="1.0" encoding="utf-8"?>
<!-- Generator: Adobe Illustrator 25.4.1, SVG Export Plug-In . SVG Version: 6.00 Build 0)  -->
<svg version="1.1" id="Слой_1" xmlns="http://www.w3.org/2000/svg" xmlns:xlink="http://www.w3.org/1999/xlink" x="0px" y="0px"
	 viewBox="0 0 4003.5 4003.5" style="enable-background:new 0 0 4003.5 4003.5;" xml:space="preserve">
<style type="text/css">
	.st0{fill:#3D6FAF;}
	.st1{fill:none;}
	
		.st2{fill-rule:evenodd;clip-rule:evenodd;fill:none;stroke:#FFFFFF;stroke-width:27.4776;stroke-linecap:round;stroke-linejoin:round;stroke-miterlimit:22.9256;}
	.st3{fill:#FFFFFF;}
</style>
<circle class="st0" cx="2001.7" cy="2001.7" r="2001.7"/>
<g id="Цетральный_блок">
	<path id="SVGID_x5F_1_x5F_" class="st1" d="M3667.3,2008.6c0,923.7-748.8,1672.4-1672.4,1672.4S322.4,2932.3,322.4,2008.6
		S1071.2,336.2,1994.9,336.2S3667.3,1084.9,3667.3,2008.6z"/>
	<text>	<textPath  xlink:href="#SVGID_x5F_1_x5F_" startOffset="433.3333%">
<tspan  class="st3" style="font-family:'Montserrat-Bold'; font-size:305px; letter-spacing:75;">ЭПСИЛОН</tspan>	</textPath>
</text>
	<path id="SVGID_x5F_00000115496201601135031860000015616072635906166422_x5F_" class="st1" d="M3667.3,2008.6
		c0,923.7-748.8,1672.4-1672.4,1672.4S322.4,2932.3,322.4,2008.6S1071.2,336.2,1994.9,336.2S3667.3,1084.9,3667.3,2008.6z"/>
	<text>	<textPath  xlink:href="#SVGID_x5F_00000115496201601135031860000015616072635906166422_x5F_" startOffset="5072.6548%">
<tspan  class="st3" style="font-family:'Montserrat-Bold'; font-size:265.5px;">г. Санкт-Петербург</tspan>	</textPath>
</text>
	<circle class="st2" cx="1994.9" cy="2008.6" r="1923.4"/>
	<g id="Дракон">
		<path class="st3" d="M1608,968.9c13.2,20.8,29.1,38.3,47.2,53.6c50.2,42.7,107.7,57.7,167.7,63.2c33.3,3.1,66.7,4.3,99.9,8.7
			c37.2,4.9,71.3,19.7,97.8,52.3c4.1,5.1,7.5,10.9,12.7,18.7c-4.5-1.2-6-1.4-7.4-2c-31.8-13.8-63.4-14.4-94.3-3.2
			c-27.3,9.9-53.9,21.8-80.9,32.6c-11.2,4.5-22.7,8.4-34,12.6c19.3,11.3,66.8,7.5,93.9,3.6c44.1-6.5,87.4-1.2,130.2,15.8
			c44.9,17.9,90.6,28.8,137.6,32.9c25.5,2.2,51.1,9,76.4,15.1c9.7,2.3,18.8,8.3,28.2,12.6c-0.3,1.1-0.5,2.1-0.8,3.2
			c-7.2-0.3-14.3-0.9-21.5-0.9c-38.3,0.1-74.6,8.4-108.7,25.3c-27,13.4-51.2,30.8-66.4,59.7c-1.6,3.1-2.7,6.6-4.1,9.9
			c3.6-0.4,5.4-2.4,7.5-3.9c14-10,27-22.1,42.2-29.3c43.8-20.7,90.8-28.3,139.6-26.2c39.9,1.8,75.9,15.6,105.8,48.3
			c7.9,8.6,17.8,14.8,26.2,22.9c3,2.9,5.8,8.5,5.5,12.4c-0.8,11.4-4.3,21.5-14.6,27c-5.7,3-10.8,7.2-16.1,10.9
			c25.7,2.3,49.1-1.3,66.9-22.1c2.5-2.9,6.7-6.3,9.7-5.8c24.9,4.2,44.1-3.9,58.4-25.7c9.9-15,10.9-46.6,0.7-62.7
			c-5.7,6.3-10.9,13.4-17.3,18.6c-6.6,5.3-14.5,8.8-23.3,14c2.1-10,3.6-17,5.4-25.1c-3.3,0.5-4,0.4-4.4,0.8
			c-24,20.6-48.8,13.9-63.2-17.9c-11.4-25.1-28.1-42.8-52.5-51.7c-8.2-3-16.1-7-24-10.7c-20.2-9.6-36.3-24.9-48.2-45.2
			c-7.2-12.3-12.2-25.5-12.3-41.5c20.8,11.3,40.1,7,59.3,1.6c3.7-1.1,7.6-1.7,11.4-2.6c19.3-4.9,37.8-0.8,55.7,9.3
			c5.8,3.3,11.2,7.5,17,10.5c15,7.7,29.7,17.2,45.4,22c21.3,6.6,42.9,3.4,63.4-3.4c16.9-5.6,34.3-5.7,51.9-2.3
			c9.4,1.8,11.6,5.3,9.9,15.3c-0.8,4.9-2.6,9.6-3.9,14.4c0.5,0.8,1.1,1.6,1.6,2.3c8.6-5,17.2-9.9,26.6-15.4
			c5.5,15.2-0.6,27.4-7.1,40.8c18-3.1,29-13,38.4-25.9c2.4-3.3,5.9-7.2,9.3-7.5c20.9-1.9,32-22.2,32-42c0-16.4-4.5-26.4-18.6-32.8
			c-9.3-4.2-19.5-8-29.1-8.2c-29-0.4-57.8,1.4-86.8,1.6c-15.4,0.1-30.9-0.2-46.2-2.4c-31.4-4.4-51.8-26.5-66.7-55.9
			c-16.4-32.4-39.5-56.6-70.6-71.4c-11.9-5.7-23.6-12-35.3-18.2c-55.8-29.5-95.4-74.1-111.4-140.7c-0.5-2-1.8-3.7-4-8.2
			c-8.8,43.2-8.2,82.6,14.8,121.3c-54.4-10-104.7-30.6-149-68.1c-43.9-37.2-79.5-81.9-100.2-141.2c-7.4,19.4-8.9,38-8.1,56.8
			c2.5,61.6,34,107.8,76.2,149.8c-5,0.8-7.8,1.8-10.6,1.6c-20.3-0.9-40.6-0.7-60.8-3.2c-57.7-7.4-111.3-28.6-158.5-69.6
			c-22-19.1-41.5-40.5-50.2-70.7c-0.4-1.3-1.8-2.3-3.7-4.6c-4.7,17.3-4.5,33.7-0.2,49.9c17.9,67.6,57.3,115.5,115.6,146.5
			C1786.3,1041,1695.8,1020.6,1608,968.9z M2324.8,1062.8c17.4-6.7,36.2,0,48.4,16.7c15.6,21.5,15.6,21.5,35.4,33
			c-5.6,1.2-9.7,2.4-14,2.9c-16.1,2.2-31.8,0-47.1-8c-15.2-8-20.3-24.1-27.5-38.4C2319.4,1067.9,2322.6,1063.6,2324.8,1062.8z"/>
		<path class="st3" d="M2695.6,1336.5c-7.7-4-15.1-8.6-23.5-13.5c9.7-4.8,18.5-9.2,27.4-13.6c-0.5-1-0.9-2-1.4-3
			c-5.9,1.3-11.7,3.5-17.7,3.7c-17.3,0.6-32.4-7.6-47.2-17.8c-13.6-9.4-27.3-19.2-42-25.9c-24.4-11.3-49.4-9.9-74.2-4.7
			c-10.8,2.3-22,3.9-33,3.2c-17-1-31.2-11.5-44.6-22.9c-12.2-10.4-24.8-19.7-40.5-20.6c-3.8-0.2-7.5,0.6-11.3,0.9
			c11.5,6.9,22.9,11.9,32.3,19.8c10.8,9.1,19.9,20.6,29.5,31.3c16.7,18.6,36,27.7,59.4,27.2c14.9-0.3,30.1,2.3,45.1,4.1
			c3.8,0.5,7.5,3,11.2,4.6c0.6-1.3,1.2-2.5,1.8-3.8c-8.9-6.5-17.7-13-28.5-21c7.9,0.4,13.8,0.1,19.6,1c22.2,3.5,40.8,14.5,54.7,34.8
			c12.4,18.1,28.2,29.5,48.5,32.6c6,0.9,12,2.8,17.8,4.7c22.8,7.4,33.2,23.9,31.8,49.7c-0.1,2,0.5,4.1,0.8,6.8
			c1.6-0.9,2.6-1.1,3-1.7C2731.2,1389.3,2721.1,1349.7,2695.6,1336.5z"/>
		<path class="st3" d="M2017.6,2064.8c6.3-1.8,12.6-3.8,18.8-6.1c5.9-2.1,11.5-4.7,17.3-7.1c-2.2-1.3-522.7,99.7-527.2-303.5
			c-0.5-48.6-43.5-413.7,585.6-483c-54.6-10.7-79-16.9-118-31c-34.5-12.5-128.7,3.7-157.1,10.9c-22.4,5.6-65.1,18.1-103.5,40.6
			c-271.2,159-312,360.7-265.4,513.2C1571.2,2136.9,1945.8,2084.9,2017.6,2064.8z"/>
		<path class="st3" d="M2097.2,1851.1c-178-2.6-361.6,103.3-408.5,132.2c13.4,7.3,27.2,13.7,41.5,19.2
			C1794.4,1931,2061,1850.6,2097.2,1851.1z"/>
		<path class="st3" d="M2210.9,2033.9c21.8-19,218.5-204.1,13-308.7c0,0,65.5,66.7,33.4,90.2c0,0-5.6-18.9-11.2-27.6
			c-24.1-37.4-133.8-108.5-370.9-52.7c0,0,61,7.8,117,29.5c-13.7,2.1-28.1,4.4-43.3,6.9c-63.5,10.2-79,10.9-79,10.9
			s-191.2,6.2-286.1,83.7c0,0,111.3-32.8,179.4-19.6c-55.4,20.5-126,38.9-163.4,60.7c21.8,29.5,48.9,52.6,78.9,70.5
			c105.6-68.8,240.5-135.9,409.6-147.1c245.9-16.4,95.5,230.1-124.5,254.5c-89.7,9.9-178.3,13.3-268.9-19.8
			c-30.2-11-58.6-24.4-85-40.5c-27.1-16.3-172.1-116.4-188.7-318.1c-24.1-293.6,325-473.4,417.3-475c-37.1-12.9-73.4-24.7-97.1-42.3
			c3.1-1.4,59.3,8.6,93.2-7.1c47.5-22,120.5-47.3,144.1-41.8c-0.1-1.3-31.2-29.2-90.4-29.2c-32.7,0-136.8-11-192.9-28.3
			c-30.9-9.6-365.3,22.5-536.9,331c0,0,236.3-180.5,323.3-153.3c-78.7,34-339.3,265.9-306.4,578c0,0,79.5-229.8,146.2-207.9
			c-38.4,141.1-47.8,288.7,21.1,391.2c5.1,7.5-23.7-200.3,30.8-193.2c25.7,279,322.4,374.3,375.5,380.3c8,0.9,16.1,1.2,24.1,1.8
			c0.1-0.9,0.3-1.7,0.4-2.6c-61.8-18.8-114.9-52-154.8-107.6c3.1,0.5,5.6,2,8.2,3.3c27.5,13.7,54.4,29.6,82.7,40.5
			c73.4,28.5,208.6,70.8,306.3,53.6c-46.6-14-57.2-48.8-44.2-49.7c-6.4,4.3,86.3,17.8,177.3-23.2c28.8-11.4,82.7-41,140.2-127.2
			C2289.5,1997.9,2235.3,2038.2,2210.9,2033.9z"/>
		<path class="st3" d="M1328.9,2615.2c5.5,40.9,29.4,162.3,179.5,255.9c383.8,239.4,982.5-17.2,988.3-19.7
			c-2.2-1.3-864,299.8-1092.5-201.2c-69.9-153.2,101.9-411,203-460.8c-18.6-10.7-46.5-26.4-65.4-40.5
			C1382.3,2290.2,1309.2,2468,1328.9,2615.2z"/>
		<path class="st3" d="M2921.4,2639.4c-34.1,167.3-1197.1,630.8-1572.3,116.2c-36.6-50.2-50.1-113.4-47.6-173.4
			c12.5-299.5,187.1-417.8,218.1-451.3c-34-28.3-86-66.1-112.1-107.4c-148.2,79.3-345.2,245-338.9,469.6
			c15.9-76.9,110.4-168.5,199.3-222c0,0-252.8,247.4-50.9,676c0,0,1.1-105.7,29.5-190.9c0,0,77.1,326.4,425.4,395.1
			c-56.6-19.2-73.3-103.5-92.2-120.4c3.1,0.5,350.1,137.6,460.1,117.4c-59.9-21.3-115.7-93.4-100.8-95.1
			c49.5,10.6,438,31.8,596.3-22.3C2258.3,2908.6,2866.4,2909.5,2921.4,2639.4z"/>
	</g>
</g>
</svg>
