<?xml version="1.0" encoding="utf-8"?>
<!-- Generator: Adobe Illustrator 25.4.1, SVG Export Plug-In . SVG Version: 6.00 Build 0)  -->
<svg version="1.1" id="Layer_1" xmlns="http://www.w3.org/2000/svg" xmlns:xlink="http://www.w3.org/1999/xlink" x="0px" y="0px"
	 viewBox="0 0 19.7 18.6" style="enable-background:new 0 0 19.7 18.6;" xml:space="preserve">
<style type="text/css">
	.st0{fill:#355276;}
</style>
<path class="st0" d="M19.7,6.3L19.7,6.3C19.7,6.2,19.7,6.2,19.7,6.3C19.7,6.2,19.7,6.2,19.7,6.3L19.7,6.3L19.7,6.3L19.7,6.3
	L19.7,6.3L19.7,6.3L19.7,6.3l-9.5-6C10,0,9.8,0,9.7,0.1L0.2,6l0,0l0,0l0,0l0,0l0,0l0,0c0,0,0,0,0,0.1l0,0l0,0l0,0V18
	c0,0.2,0.2,0.4,0.4,0.4h19c0.2,0,0.4-0.2,0.4-0.4L19.7,6.3L19.7,6.3z M9.9,0.8l8.8,5.5l-8.8,5.5L1.1,6.3L9.9,0.8z M0.8,17.8V7
	l8.9,5.6c0.1,0,0.1,0.1,0.2,0.1s0.1,0,0.2-0.1L19,7v10.8H0.8z"/>
</svg>
