<?xml version="1.0" encoding="utf-8"?>
<!-- Generator: Adobe Illustrator 25.4.1, SVG Export Plug-In . SVG Version: 6.00 Build 0)  -->
<svg version="1.1" id="Слой_1" xmlns="http://www.w3.org/2000/svg" xmlns:xlink="http://www.w3.org/1999/xlink" x="0px" y="0px"
	 viewBox="0 0 292.8 295.7" style="enable-background:new 0 0 292.8 295.7;" xml:space="preserve">
<style type="text/css">
	.st0{fill:#404040;}
	.st1{fill:#E6312E;}
</style>
<path class="st0" d="M130,124.4C130,124.5,130.1,124.5,130,124.4C130,124.5,130,124.4,130,124.4z"/>
<path class="st0" d="M130,124.4C130,124.4,130,124.4,130,124.4C130,124.4,130,124.4,130,124.4z"/>
<path class="st0" d="M130.1,124.5C130.1,124.5,130.1,124.5,130.1,124.5C130.1,124.5,130.1,124.5,130.1,124.5z"/>
<path class="st0" d="M130.1,124.5C131,125.5,130.4,124.8,130.1,124.5L130.1,124.5z"/>
<path class="st0" d="M115.3,99.9c1.4,1.4,3.6,1.4,5,0l25-25c2.2-2.3,0.6-6.1-2.5-6.1h-10.7V47c0-4.9-4-8.9-8.9-8.9h-10.7
	c-5,0-8.9,4-8.9,8.9v21.8H92.8c-3.1,0-4.8,3.9-2.5,6.1L115.3,99.9z"/>
<g>
	<g>
		<path class="st1" d="M292.7,151.6c-0.3-23.2-16.4-38.8-39.8-39.1c-12.6-0.2-25.2,0-38.8,0l-59.8,0c-37.3,0-74.6,0-111.8,0
			c-27,0-42.5,15.5-42.5,42.5c0,19.4-0.1,38.9,0,58.3c0.1,25.5,15.7,41.1,41.3,41.1c37.3,0.1,74.6,0,111.8,0c2.4,0,4.8,0,7.9,0
			l91.9,0c12.8,0.1,23.5-4.5,31.5-14.6c4.9-6.1,7.9-13.1,8-20.9C292.7,196.5,292.9,174.1,292.7,151.6z M84.8,197.8
			c-6.3,0.7-12.7,0.8-19.6,1.2c0,4.6,0,8.9,0,13.3c0,5.1-2.7,7.8-7.7,8.1c-4.9,0.3-8-2.8-8-8.3c-0.1-20.4,0-40.9,0-61.3
			c0-4.8,2.4-8,7-8c10-0.1,20.1-0.3,30,1c14.6,1.9,23.2,12.9,22.9,27C109.1,185.4,99.5,196.1,84.8,197.8z M149.7,220.3
			c-8.2,0.5-16.4,0.2-24.6,0.1c-5.6-0.1-8.3-3.1-8.3-8.8c0.1-10.2,0-20.4,0-30.6c0-10,0-20,0-30c0-5.4,2.7-8.4,8-8.4
			c8.6-0.1,17.2-0.5,25.8,0.2c22.1,1.8,38.1,18.4,37.9,38.9C188.4,202.5,172.2,218.9,149.7,220.3z M239.3,158.3
			c-8.2,0.1-16.4,0-25.3,0c0,5.9,0,11,0,16.7c7.3,0,14.3-0.1,21.3,0c6.7,0.1,9.5,2.6,9.4,8.2c-0.1,5.3-2.7,7.5-9.3,7.6
			c-7,0.1-13.9,0-21.7,0c0,6.9,0.1,13.3,0,19.6c-0.1,6.8-2.5,9.9-7.7,10c-5.4,0.1-8.1-3.2-8.2-10.2c-0.1-19.2-0.1-38.5,0-57.7
			c0-7.7,2.4-10,10.2-10c10.4-0.1,20.8-0.1,31.3,0c6.5,0,9.8,2.7,9.8,7.9C249.1,155.7,246,158.3,239.3,158.3z"/>
		<path class="st1" d="M155.1,159.5c-7.1-1.4-14.6-1.1-22.2-1.6c0,16.1,0,31.2,0,47.1c7.4-0.4,14.4-0.1,21.2-1.2
			c10.5-1.7,18-11,18.4-21.5C173,171.6,165.8,161.5,155.1,159.5z"/>
		<path class="st1" d="M83.9,159.2c-5.9-0.9-11.9-0.8-18.3-1.2c0,8.8,0,16.5,0,24.1c6.2,0,12,0.4,17.7-0.1c6.5-0.6,10.1-5,10.3-11.2
			C93.8,164.5,90.6,160.2,83.9,159.2z"/>
	</g>
</g>
<g>
	<path class="st0" d="M42.5,112.5c7.3,0,14.5,0,21.8,0c0-28.7,0-57.5,0-86.3c40.9,0,81.7,0,122.9,0c0,2,0,3.9,0,5.8
		c0.1,10-0.2,20,0.3,30c0.4,8,6.2,13.6,14.3,13.8c10.6,0.3,21.2,0.1,31.7,0.2c1.1,0,2.3,0,3.6,0c0,7.6,0,20.6,0,36.5
		c5.3,0,10.6,0,15.9,0.1c3.4,0,6.6,0.4,9.6,1.1c0-22.8,0-42,0-52.3c0-5.1-1.6-9-5.2-12.6c-14.8-14.6-29.5-29.3-44.1-44.1
		c-3.1-3.1-6.6-4.7-11-4.7C156,0.1,109.8,0,63.6,0C51.5,0,42.5,6.7,39.7,17.8c-0.6,2.5-0.7,5.1-0.7,7.7c0,29,0,58,0,87
		C40.2,112.5,41.3,112.5,42.5,112.5z"/>
	<path class="st0" d="M253,254.5l-15.9,0c0,8.4,0,13.9,0,15.1c-57.6,0-115.1,0-172.8,0c0-5,0-10.1,0-15.1c-7.7,0-15.3,0-23,0
		c-0.8,0-1.6,0-2.4-0.1c0,5.3,0,10.6,0,15.9c0,13.6,8.7,23.5,19.9,25.1c0.2,0,0.3,0.2,0.5,0.3c61,0,122,0,183.1,0
		c5.1-1.3,9.8-3.2,13.5-7.1c4.6-4.9,6.6-10.7,6.6-17.3c0-1.2,0-7.6,0-17.7C259.5,254.2,256.3,254.5,253,254.5z"/>
</g>
</svg>
