<?xml version="1.0" encoding="utf-8"?>
<!-- Generator: Adobe Illustrator 25.4.1, SVG Export Plug-In . SVG Version: 6.00 Build 0)  -->
<svg version="1.1" id="Layer_1" xmlns="http://www.w3.org/2000/svg" xmlns:xlink="http://www.w3.org/1999/xlink" x="0px" y="0px"
	 viewBox="0 0 47.9 48" style="enable-background:new 0 0 47.9 48;" xml:space="preserve">
<style type="text/css">
	.st0{fill:#355276;}
</style>
<path class="st0" d="M26.3,4.5c-6-6-15.8-6-21.8,0C1.6,7.4,0,11.3,0,15.4c0,4.1,1.6,8,4.5,10.9s6.8,4.5,10.9,4.5
	c3.8,0,7.5-1.4,10.3-4l4,4l-2.3,2.3L42.4,48l5.6-5.6L33,27.5l-2.3,2.3l-4-4C32.3,19.7,32.1,10.3,26.3,4.5z M45.8,42.4l-3.4,3.4
	L29.6,33l3.5-3.5L45.8,42.4z M5.6,25.2c-2.6-2.6-4.1-6.1-4-9.8c0.1-3.7,1.4-7.2,4-9.8c5.4-5.4,14.2-5.4,19.7,0s5.4,14.2,0,19.7
	l0.6,0.6l-0.6-0.6c-2.6,2.6-6.1,4.1-9.8,4C11.7,29.3,8.2,27.8,5.6,25.2z"/>
</svg>
