<?xml version="1.0" encoding="utf-8"?>
<!-- Generator: Adobe Illustrator 25.4.1, SVG Export Plug-In . SVG Version: 6.00 Build 0)  -->
<svg version="1.1" id="Capa_1" xmlns="http://www.w3.org/2000/svg" xmlns:xlink="http://www.w3.org/1999/xlink" x="0px" y="0px"
	 viewBox="0 0 269.6 269.6" style="enable-background:new 0 0 269.6 269.6;" xml:space="preserve">
<style type="text/css">
	.st0{fill:#D8D8D8;}
	.st1{fill:#FFFFFF;}
</style>
<circle class="st0" cx="134.8" cy="134.8" r="134.8"/>
<g>
	<g id="label">
		<path class="st1" d="M139.5,174.4c-3.1,0-4.8-3.1-6.8-6.8c-0.5-0.8-1.2-2-1.8-2.9c-0.6,0.8-1.5,1.9-2.1,2.7
			c-2.3,3.2-4.3,5.8-7.1,5.8c-0.3,0-0.5-0.1-0.7-0.1c-3.2-0.6-4.1-4.4-5.1-8.2c-0.2-1-0.6-2.4-0.9-3.3c-0.9,0.6-1.9,1.4-2.7,2.1
			c-2.6,2.1-4.9,4-7.2,4l0,0c-0.7,0-1.3-0.1-1.8-0.4c-2.9-1.4-2.8-5.2-2.8-9.3c0-1,0-2.4,0-3.5c-1,0.3-2.3,0.9-3.2,1.4
			c-2.4,1-4.8,2.1-6.7,2.1c-1.4,0-2.4-0.6-3-1.1c-2.4-2.1-1.4-5.8-0.3-9.7c0.3-0.9,0.7-2.3,0.9-3.4c-1,0.1-2.2,0.3-3.4,0.5
			c-1.7,0.2-3.4,0.5-4.9,0.5l0,0c-0.8,0-3.3,0-4.6-2c-1.8-2.7,0.1-6,2.2-9.5c0.5-0.9,1.3-2.1,1.7-3c-1-0.2-2.4-0.4-3.4-0.5
			c-4-0.4-7.8-0.8-8.9-3.9c-1-3,1.8-5.7,4.6-8.5c0.7-0.7,1.7-1.7,2.4-2.5c-1-0.4-2.3-1-3.2-1.3c-3.8-1.4-7.3-2.8-7.6-6
			c-0.2-3.3,3.1-5.1,6.7-7.1c0.9-0.5,2.1-1.2,2.9-1.7c-0.7-0.7-1.9-1.5-2.7-2.2c-3.3-2.4-6.3-4.6-5.7-7.8c0.6-3.2,4.3-4.2,8.3-5.1
			c0.9-0.2,2.3-0.5,3.3-0.9c-0.5-0.9-1.4-2-2-2.7c-2.6-3.1-5-6.1-3.5-9c1.3-2.7,5.1-2.7,7.5-2.7c0.6,0,1.2,0,1.8,0
			c0.6,0,1.2,0,1.7,0c0.7,0,1.3,0,1.7,0c-0.3-1-0.9-2.3-1.3-3.2c-1.6-3.7-3.2-7.2-1.1-9.6c0.9-1,2.1-1.5,3.7-1.5
			c1.8,0,3.8,0.6,6.1,1.2c1,0.3,2.3,0.7,3.3,0.8c-0.1-1-0.2-2.4-0.4-3.4c-0.6-4-1.2-7.8,1.4-9.6c0.7-0.5,1.6-0.7,2.4-0.7
			c2.1,0,4.4,1.4,7,2.9c0.9,0.5,2.1,1.2,3,1.7c0.3-1.1,0.4-2.4,0.5-3.4c0.4-4,0.8-7.8,3.9-8.9c0.4-0.1,0.8-0.2,1.3-0.2
			c2.5,0,4.7,2.2,7.2,4.8c0.7,0.7,1.7,1.7,2.5,2.4c0.4-0.9,1-2.3,1.3-3.2c1.4-3.7,2.9-7.3,6.1-7.5h0.3c3,0,4.8,3.1,6.8,6.7
			c0.4,0.8,1.1,2.1,1.7,3c0.7-0.8,1.5-1.9,2.1-2.7c2.3-3.1,4.2-5.8,7.1-5.8c0.3,0,0.5,0,0.8,0.1c3.1,0.5,4.1,4.3,5,8.2
			c0.3,1,0.6,2.3,1,3.3c0.8-0.6,1.9-1.5,2.7-2.1c2.6-2.1,4.9-3.9,7.3-3.9c0.6,0,1.2,0.1,1.8,0.4c2.9,1.3,2.8,5.2,2.8,9.3
			c0,1,0,2.4,0.1,3.4c0.9-0.3,2.2-0.9,3.1-1.3c2.5-1.1,4.8-2.1,6.7-2.1c1.4,0,2.4,0.5,2.9,1c2.5,2.1,1.4,5.9,0.3,9.7
			c-0.3,1-0.7,2.3-0.8,3.3c1-0.1,2.2-0.3,3.4-0.4c1.7-0.3,3.4-0.5,4.9-0.5c0.8,0,3.4,0,4.7,2c1.8,2.7-0.1,6-2.2,9.5
			c-0.5,0.9-1.3,2.1-1.7,3c0.9,0.2,2.4,0.4,3.3,0.4c4,0.5,7.9,0.8,8.9,3.9c1,3.1-1.7,5.7-4.6,8.6c-0.7,0.6-1.7,1.6-2.4,2.4
			c1,0.5,2.3,1,3.2,1.3c3.8,1.4,7.3,2.9,7.5,6.1c0.3,3.3-3.1,5.1-6.6,7.1c-0.9,0.5-2.2,1.2-3,1.8c0.8,0.7,1.9,1.5,2.7,2.1
			c3.3,2.3,6.4,4.6,5.7,7.8c-0.6,3.1-4.4,4-8.2,5.1c-1,0.2-2.3,0.6-3.4,0.9c0.6,0.9,1.5,1.9,2.1,2.7c2.6,3.1,5,6.1,3.5,9
			c-1.4,2.8-5,2.8-7.5,2.8c-0.6,0-1.2,0-1.8,0c-0.5,0-1.1,0-1.7,0c-0.7,0-1.3,0-1.7,0c0.4,1,0.9,2.3,1.3,3.1
			c1.7,3.7,3.1,7.2,1.1,9.7c-0.9,1-2.1,1.5-3.7,1.5c-1.8,0-3.8-0.5-6-1.3c-1.1-0.3-2.4-0.6-3.4-0.8c0.1,1,0.3,2.4,0.5,3.4
			c0.6,4,1.2,7.7-1.5,9.6c-0.7,0.4-1.5,0.7-2.4,0.7l0,0c-2.1,0-4.4-1.3-7-2.9c-0.8-0.5-2-1.3-2.9-1.7c-0.2,0.9-0.4,2.4-0.5,3.4
			c-0.4,4-0.8,7.8-3.9,8.9c-0.4,0.1-0.9,0.2-1.3,0.2l0,0c-2.6,0-4.6-2.3-7.2-4.9c-0.7-0.6-1.7-1.7-2.5-2.4c-0.5,1-1,2.3-1.3,3.1
			c-1.4,3.9-2.8,7.4-6.1,7.6L139.5,174.4L139.5,174.4L139.5,174.4z M131.6,150.9h0.2c2.6,0.2,3.9,2.8,5.6,5.7
			c0.3,0.6,0.8,1.4,1.2,2.1c0.3-0.7,0.7-1.6,1-2.2c1.2-3.2,2.2-6,4.7-6.4c0.3-0.1,0.4-0.1,0.7-0.1c2.3,0,4.1,2,6.3,4.2
			c0.4,0.5,1.1,1.2,1.7,1.7c0.1-0.8,0.2-1.7,0.3-2.4c0.4-3.4,0.6-6.4,3-7.5c0.4-0.3,1-0.4,1.6-0.4c1.9,0,3.8,1.2,6.1,2.6
			c0.6,0.4,1.3,0.8,2.1,1.2c-0.1-0.8-0.2-1.7-0.4-2.4c-0.5-3.4-1-6.3,1-8c0.7-0.6,1.6-1,2.9-1c1.5,0,3.3,0.5,5.2,1.1
			c0.7,0.2,1.6,0.4,2.3,0.6c-0.2-0.8-0.7-1.6-0.9-2.2c-1.3-3.2-2.5-5.9-1.2-8c1.2-1.9,3.8-2,6.3-2c0.5,0,1,0,1.6,0
			c0.8,0,1.8,0.1,2.4,0c-0.5-0.7-1.1-1.4-1.5-1.9c-2.1-2.7-4-5-3.2-7.4c0.8-2.4,3.7-3.1,7.1-4c0.7-0.1,1.5-0.4,2.2-0.6
			c-0.6-0.5-1.3-1.1-1.8-1.5c-2.8-2.1-5.2-3.7-5-6.3c0.1-2.6,2.7-4,5.8-5.7c0.6-0.3,1.4-0.8,2-1.1c-0.8-0.4-1.5-0.7-2.2-1
			c-3.2-1.2-6-2.3-6.5-4.8c-0.5-2.5,1.7-4.5,4.1-6.9c0.5-0.5,1.2-1.1,1.7-1.7c-0.8-0.1-1.7-0.2-2.4-0.3c-3.5-0.4-6.4-0.7-7.5-2.9
			c-1.1-2.3,0.4-4.8,2.2-7.8c0.3-0.6,0.8-1.4,1.1-2.1c-0.7,0-1.5,0.2-2.4,0.3c-1.4,0.2-2.9,0.5-4.2,0.5c-0.7,0-2.6,0-3.8-1.3
			c-1.6-1.9-0.8-4.8,0.1-8.1c0.2-0.7,0.4-1.5,0.6-2.3c-0.7,0.3-1.6,0.7-2.2,1c-2.1,0.9-4.1,1.8-5.8,1.8c-0.8,0-1.6-0.2-2.2-0.6
			c-2.1-1.4-2.1-4.3-2-7.8c0-0.7,0.1-1.5,0-2.4c-0.7,0.5-1.3,1.1-1.9,1.5c-2.2,1.7-4.2,3.3-6.2,3.3c-0.4,0-0.8,0-1.1-0.1
			c-2.4-0.8-3.2-3.7-4-7.1c-0.2-0.7-0.4-1.5-0.6-2.3c-0.6,0.6-1.1,1.4-1.5,1.8c-1.9,2.7-3.7,5.1-6.1,5.1h-0.2
			c-2.5-0.2-3.9-2.7-5.6-5.8c-0.3-0.6-0.8-1.4-1.2-2.1c-0.3,0.7-0.7,1.6-1,2.2c-1.2,3.2-2.3,6-4.8,6.5c-0.2,0-0.4,0.1-0.7,0.1
			c-2.2,0-4.1-1.9-6.3-4.2c-0.5-0.5-1.1-1.1-1.7-1.7c-0.2,0.8-0.2,1.7-0.3,2.4c-0.3,3.4-0.7,6.4-2.9,7.5c-0.5,0.2-1.1,0.4-1.7,0.4
			c-1.9,0-3.9-1.2-6.1-2.6c-0.6-0.3-1.3-0.8-2.1-1.1c0.1,0.7,0.2,1.6,0.3,2.3c0.6,3.4,1,6.4-0.9,8c-0.7,0.7-1.7,1-2.9,1
			c-1.5,0-3.3-0.5-5.2-1c-0.7-0.2-1.5-0.5-2.3-0.6c0.3,0.7,0.7,1.6,0.9,2.2c1.4,3.1,2.6,5.9,1.2,8c-1.2,1.9-3.8,2-6.3,2
			c-0.5,0-1,0-1.5,0c-0.9,0-1.8,0-2.5,0c0.5,0.6,1.1,1.4,1.5,1.8c2.1,2.7,4,5,3.2,7.5c-0.8,2.3-3.7,3.1-7,4
			c-0.7,0.1-1.6,0.4-2.3,0.6c0.7,0.5,1.4,1.1,1.9,1.5c2.8,2,5.2,3.7,5,6.2c-0.2,2.5-2.8,4-5.8,5.7c-0.6,0.3-1.4,0.7-2.1,1.2
			c0.8,0.3,1.6,0.7,2.3,0.9c3.2,1.2,6,2.3,6.5,4.8c0.5,2.5-1.7,4.5-4.1,6.9c-0.5,0.4-1.2,1.1-1.7,1.7c0.8,0.2,1.7,0.2,2.4,0.2
			c3.5,0.5,6.4,0.8,7.5,3.1c1.1,2.3-0.5,4.8-2.2,7.7c-0.3,0.6-0.8,1.4-1.2,2.1c0.7-0.1,1.5-0.2,2.4-0.4c1.4-0.2,2.9-0.4,4.2-0.4
			c0.6,0,2.5,0,3.8,1.3c1.7,1.9,0.9,4.7-0.1,8c-0.2,0.6-0.4,1.6-0.6,2.3c0.8-0.3,1.6-0.6,2.2-0.9c2.2-1,4.2-1.8,5.8-1.8
			c0.9,0,1.6,0.2,2.2,0.6c2.1,1.4,2.1,4.4,2,7.8c0,0.7,0,1.6,0,2.4c0.6-0.5,1.3-1.1,1.9-1.5c2.3-1.8,4.2-3.4,6.2-3.4
			c0.4,0,0.8,0,1.2,0.2c2.4,0.8,3.1,3.7,4,7.1c0.1,0.6,0.4,1.5,0.6,2.2c0.5-0.5,1.1-1.3,1.4-1.9
			C127.5,153.2,129.2,150.9,131.6,150.9L131.6,150.9z"/>
		<path class="st1" d="M134.8,63.5c-21.7,0-39.3,17.6-39.3,39.3c0,21.7,17.6,39.2,39.3,39.2c21.7,0,39.3-17.5,39.3-39.2
			C174.1,81,156.5,63.5,134.8,63.5z"/>
	</g>
	<path class="st1" d="M134.7,178.9c-12.7,0-24.9-1.6-36.3-4.5v18.6v39.4c0,5,6,7.9,9.8,4.7l26.5-21.2l26.5,21.2
		c3.9,3.1,9.8,0.2,9.8-4.7v-39.4v-18.6C159.7,177.3,147.5,178.9,134.7,178.9z"/>
</g>
</svg>
