<?xml version="1.0" encoding="utf-8"?>
<!-- Generator: Adobe Illustrator 25.4.1, SVG Export Plug-In . SVG Version: 6.00 Build 0)  -->
<svg version="1.1" id="Capa_1" xmlns="http://www.w3.org/2000/svg" xmlns:xlink="http://www.w3.org/1999/xlink" x="0px" y="0px"
	 viewBox="0 0 269.6 269.6" style="enable-background:new 0 0 269.6 269.6;" xml:space="preserve">
<style type="text/css">
	.st0{fill:#D2D8E0;}
	.st1{fill:#FFFFFF;}
</style>
<circle class="st0" cx="134.8" cy="134.8" r="134.8"/>
<g id="gears">
	<path class="st1" d="M171,161.1v7.8c-0.5,4.5-3.9,7.9-8.3,8.6H160h-4.4h-1.9c-0.8,0.1-1.5,0.3-2.2,0.6c-1,0.4-2,1-2.8,1.8
		c-3,3-3.2,7.8-0.6,11.1l0,0l0,0l1.3,1.3l3.1,3.1l1.9,1.9c2.6,3.5,2.6,8.5-0.2,12l-5.4,5.5c-3.5,2.7-8.5,2.9-12,0.1l-1.9-1.9
		l-3.1-3.2l-1.4-1.3c-0.2-0.2-0.5-0.4-0.8-0.6c-1.1-0.7-2.3-1-3.6-1.2c-0.1,0-0.1,0-0.3,0c-0.1,0-0.2,0-0.5,0l0,0l0,0
		c-0.8,0-1.6,0.1-2.3,0.3l0,0c-0.5,0.1-0.9,0.3-1.3,0.5c0,0,0,0-0.1,0l0,0c0,0-0.1,0.1-0.2,0.1c-0.1,0.1-0.3,0.2-0.5,0.2l0,0
		c-0.7,0.4-1.2,0.9-1.7,1.5c-0.1,0.1-0.2,0.2-0.3,0.3c0,0-0.1,0.2-0.2,0.3c-0.9,1.2-1.5,2.5-1.7,4.1v0.1l0,0v1.7v4.5v2.7
		c-0.6,4.5-4.1,7.9-8.6,8.4h-7.7c-4.5-0.6-8-4-8.7-8.4v-2.7v-4.4l0,0V214l0,0c-0.1-1.8-1-3.5-2.4-4.9c-1.7-1.7-4.1-2.5-6.2-2.4
		c-0.3,0-0.4,0-0.7,0.1l0,0c-0.2,0.1-0.4,0.1-0.6,0.1c0,0.1,0,0.1,0,0.1c-0.3,0-0.5,0.1-0.7,0.1l0,0l0,0l0,0
		c-0.3,0.1-0.5,0.1-0.7,0.2c0,0.1-0.1,0.1-0.2,0.1c-0.1,0.1-0.3,0.2-0.5,0.2c-0.1,0.1-0.3,0.2-0.4,0.2c0,0.1-0.2,0.1-0.2,0.2
		c-0.2,0-0.4,0.2-0.5,0.4l0,0h-0.1l-4.4,4.5l-1.9,1.9c-3.5,2.8-8.5,2.6-12-0.1l-5.5-5.5c-2.8-3.5-2.8-8.4-0.1-12l1.9-1.9l3.1-3.1
		l0,0l1.4-1.4l0,0c1.1-1.4,1.7-3.1,1.7-5.1l0,0c0-3.8-2.5-7-5.8-7.9c-0.2-0.1-0.4-0.1-0.6-0.2c-0.1,0-0.1,0-0.3,0s-0.4-0.1-0.7-0.1
		h-6.3h-2.6c-4.3-0.7-7.9-4.1-8.4-8.6v-7.8c0.5-4.5,4-7.9,8.4-8.6h2.6h4.5h2c1.7-0.1,3.5-0.9,4.9-2.3l0,0l0,0l0,0
		c1.8-1.9,2.6-4.5,2.4-6.9l0,0c0-0.3-0.1-0.6-0.2-0.8l0,0c-0.1-0.2-0.1-0.5-0.2-0.7c0-0.1,0-0.1-0.1-0.2c-0.1-0.2-0.1-0.4-0.2-0.5
		c0-0.1-0.1-0.2-0.2-0.3c0-0.1-0.1-0.3-0.1-0.4c-0.1-0.1-0.1-0.2-0.2-0.4c0,0-0.1-0.2-0.2-0.3c-0.1-0.1-0.1-0.2-0.2-0.2
		c-0.1-0.2-0.1-0.2-0.2-0.4l0,0l0,0l0,0l-4.5-4.5l-1.9-1.8c-2.7-3.6-2.7-8.5,0.1-12.1l5.5-5.5c3.5-2.7,8.4-2.8,12,0l1.9,1.9l3.1,3.1
		l1.4,1.4c1.4,1.1,3.2,1.8,5.2,1.8s3.9-0.7,5.4-2c0.8-0.7,1.5-1.5,2-2.5l0,0c0.1-0.2,0.2-0.5,0.3-0.7l0,0c0.1-0.2,0.1-0.5,0.2-0.7
		c0-0.1,0-0.1,0-0.1c0.1-0.2,0.2-0.4,0.2-0.6c0-0.1,0-0.1,0-0.2c0-0.2,0-0.4,0-0.7l0,0l0,0l0,0v-1.7v-4.5V107
		c0.7-4.4,4.2-7.9,8.7-8.4h7.7c4.5,0.5,8,3.9,8.6,8.4v2.6v4.4v2c0.2,1.8,1,3.5,2.4,4.8c0.7,0.8,1.6,1.4,2.6,1.8
		c2.8,1.2,6.1,0.9,8.5-1.1l0,0l0,0l4.4-4.5l1.9-1.9c3.6-2.8,8.5-2.7,12,0l5.4,5.5c2.8,3.6,2.8,8.5,0.2,12.1l-1.9,1.8l-3.1,3.1
		l-1.3,1.5c-0.7,0.7-1.1,1.6-1.4,2.5c-0.3,0.8-0.4,1.7-0.4,2.5c0,3,1.4,5.5,3.7,6.9c0,0.1,0.1,0.1,0.1,0.1c1.1,0.7,2.3,1.2,3.5,1.2
		l0,0l0,0h6.3h2.7C167.1,153.1,170.6,156.6,171,161.1z M104.7,146.1c-10.5,0-19,8.5-19,18.9s8.5,18.9,19,18.9
		c10.4,0,18.8-8.4,18.8-18.9C123.5,154.6,115.1,146.1,104.7,146.1z"/>
	<path class="st1" d="M231.2,99.8l-2.1,5.2c-1.6,2.9-4.9,4.3-8,3.5l-1.8-0.7l-3-1.2l-1.3-0.5c-0.6-0.1-1.1-0.2-1.6-0.2
		c-0.8,0-1.6,0.1-2.4,0.5c-2.8,1.2-4.3,4.3-3.4,7.2l0,0l0,0l0.5,1.2l1.3,3l0.8,1.7c0.8,3.2-0.6,6.5-3.4,8.2l-5.2,2.1
		c-3.1,1-6.5-0.4-8.1-3.2l-0.8-1.8l-1.2-3l-0.6-1.3c0-0.2-0.2-0.4-0.3-0.5c-0.5-0.7-1.3-1.4-2.1-1.8c-0.1-0.1-0.1-0.1-0.1-0.1
		c-0.1,0-0.2,0-0.4-0.2l0,0l0,0c-0.6-0.2-1.1-0.4-1.7-0.4l0,0c-0.3-0.1-0.6-0.1-1-0.1l0,0l0,0c-0.1,0-0.1,0.1-0.1,0.1
		c-0.2,0-0.3,0-0.4,0l0,0c-0.6,0.1-1.1,0.3-1.7,0.5l-0.2,0.1c-0.1,0-0.2,0.1-0.3,0.1c-1,0.6-1.7,1.4-2.3,2.4l0,0l0,0l-0.5,1.3
		l-1.3,3l-0.7,1.8c-1.6,2.8-5,4.2-8.2,3.2l-5.2-2.1c-2.9-1.5-4.2-4.8-3.5-8l0.8-1.8l1.1-3l0,0l0.6-1.4l0,0c0.3-1.2,0.3-2.5-0.4-3.9
		c-0.6-1.7-2-2.9-3.6-3.3c-0.1-0.1-0.2-0.1-0.4-0.2l0,0c-0.2,0-0.3,0-0.5,0c0-0.1,0-0.1,0-0.1c-0.2,0-0.4,0-0.5-0.1l0,0l0,0l0,0
		c-0.1,0-0.3-0.1-0.5-0.1c0,0-0.1,0.1-0.2,0.1c-0.1,0-0.2,0-0.4,0.1c-0.1,0-0.2,0-0.4,0c0,0.1-0.1,0.1-0.2,0.1c-0.2,0-0.3,0-0.5,0
		c0,0-0.1,0-0.1,0.1l0,0l-4.2,1.8l-1.8,0.7c-3.1,0.9-6.5-0.6-8-3.4l-2.2-5.2c-0.9-3.1,0.5-6.5,3.3-8.2l1.7-0.7l3-1.3l0,0l1.3-0.5
		l0,0c1.1-0.6,2-1.6,2.6-2.9l0,0c1-2.5,0.3-5.3-1.8-7c-0.1,0-0.2-0.1-0.3-0.2c0,0,0,0-0.1,0c-0.2-0.2-0.4-0.2-0.5-0.3l-4.2-1.8
		l-1.9-0.8c-2.8-1.6-4.1-4.9-3.3-8.1l2.1-5.2c1.6-2.9,4.9-4.2,8-3.5l1.8,0.8l3,1.2l1.3,0.6c1.3,0.4,2.6,0.2,4-0.2l0,0l0,0l0,0
		c1.8-0.7,3.1-2.3,3.5-4l0,0c0-0.2,0-0.4,0.1-0.6l0,0c0.1-0.2,0.1-0.3,0.1-0.5c0-0.1,0-0.1,0-0.2c0-0.1,0-0.2,0-0.4
		c0-0.1,0-0.1,0-0.2c0-0.2,0-0.3,0-0.3c0-0.1,0-0.2-0.1-0.3c0-0.1,0-0.2-0.1-0.3c0-0.1,0-0.2,0-0.3c0,0,0-0.2-0.1-0.2l0,0l0,0l0,0
		l-1.8-4.2l-0.7-1.8c-0.8-3.1,0.5-6.4,3.4-8l5.2-2.2c3.1-0.9,6.5,0.4,8.1,3.2l0.8,1.8l1.2,2.9l0.6,1.4c0.7,1.1,1.7,2,3,2.5
		c1.3,0.6,2.9,0.6,4.2,0.1c0.7-0.2,1.4-0.5,2-1.1l0,0c0.1-0.1,0.2-0.2,0.4-0.4l0,0c0.2-0.1,0.2-0.3,0.4-0.4c0,0,0,0,0.1,0
		c0.1-0.1,0.1-0.2,0.3-0.4c0,0,0,0,0.1,0c0-0.2,0.1-0.3,0.2-0.5l0,0l0,0l0,0l0.5-1.2l1.2-3l0.7-1.8c1.6-2.8,5-4.2,8.1-3.3l5.2,2.1
		c2.9,1.6,4.3,4.9,3.6,7.9l-0.8,1.8l-1.2,3l-0.5,1.4c-0.5,1.2-0.4,2.5,0.2,3.9c0.3,0.8,0.8,1.3,1.3,1.9c1.5,1.6,3.9,2.2,6.1,1.6l0,0
		l0,0l4.1-1.8l1.8-0.8c3.1-0.8,6.5,0.5,8.1,3.4L231,68c0.9,3.1-0.5,6.4-3.2,8.1l-1.8,0.7l-3,1.3l-1.3,0.5c-0.6,0.4-1.1,0.8-1.6,1.4
		c-0.3,0.5-0.7,1-1,1.7c-0.8,1.9-0.5,4.1,0.7,5.7v0.1c0.6,0.7,1.3,1.3,2.1,1.8l0,0l0,0l4.3,1.7l1.8,0.7
		C230.6,93.4,232.1,96.7,231.2,99.8z M190.6,71.6c-7-2.8-14.9,0.6-17.8,7.5c-2.8,6.9,0.6,14.9,7.5,17.7c7,2.8,14.9-0.5,17.7-7.4
		C200.7,82.4,197.5,74.5,190.6,71.6z"/>
</g>
</svg>
