<?xml version="1.0" encoding="utf-8"?>
<!-- Generator: Adobe Illustrator 25.4.1, SVG Export Plug-In . SVG Version: 6.00 Build 0)  -->
<svg version="1.1" id="Capa_1" xmlns="http://www.w3.org/2000/svg" xmlns:xlink="http://www.w3.org/1999/xlink" x="0px" y="0px"
	 viewBox="0 0 9.1 9.1" style="enable-background:new 0 0 9.1 9.1;" xml:space="preserve">
<style type="text/css">
	.st0{fill:#FFFFFF;}
</style>
<g id="gears">
	<path class="st0" d="M6.3,5.8v0.4c0,0.2-0.2,0.4-0.4,0.4H5.7H5.5H5.5c0,0-0.1,0-0.1,0c0,0-0.1,0-0.1,0.1c-0.1,0.1-0.2,0.4,0,0.5
		l0,0l0,0l0.1,0.1l0.1,0.1l0.1,0.1c0.1,0.2,0.1,0.4,0,0.6L5.2,8.3c-0.2,0.1-0.4,0.1-0.6,0L4.6,8.2L4.4,8.1L4.4,8c0,0,0,0,0,0
		C4.3,8,4.2,8,4.1,8c0,0,0,0,0,0c0,0,0,0,0,0l0,0l0,0C4.1,8,4,8,4,8l0,0c0,0,0,0-0.1,0c0,0,0,0,0,0l0,0c0,0,0,0,0,0c0,0,0,0,0,0l0,0
		c0,0-0.1,0-0.1,0.1c0,0,0,0,0,0c0,0,0,0,0,0c0,0.1-0.1,0.1-0.1,0.2v0l0,0v0.1v0.2v0.1c0,0.2-0.2,0.4-0.4,0.4H3
		c-0.2,0-0.4-0.2-0.4-0.4V8.6V8.4l0,0V8.3l0,0c0-0.1,0-0.2-0.1-0.2C2.4,8,2.2,7.9,2.1,8c0,0,0,0,0,0c0,0,0,0,0,0c0,0,0,0,0,0
		c0,0,0,0,0,0c0,0,0,0,0,0l0,0l0,0l0,0c0,0,0,0,0,0c0,0,0,0,0,0c0,0,0,0,0,0c0,0,0,0,0,0c0,0,0,0,0,0c0,0,0,0,0,0c0,0,0,0,0,0h0
		L1.7,8.2L1.6,8.3C1.4,8.5,1.2,8.5,1,8.3L0.8,8.1c-0.1-0.2-0.1-0.4,0-0.6l0.1-0.1L1,7.3l0,0l0.1-0.1l0,0C1.1,7.1,1.2,7.1,1.2,7l0,0
		c0-0.2-0.1-0.3-0.3-0.4c0,0,0,0,0,0c0,0,0,0,0,0c0,0,0,0,0,0H0.5H0.4C0.2,6.5,0,6.4,0,6.2V5.8c0-0.2,0.2-0.4,0.4-0.4h0.1h0.2h0.1
		c0.1,0,0.2,0,0.2-0.1l0,0l0,0l0,0C1.1,5.2,1.2,5.1,1.2,5l0,0c0,0,0,0,0,0l0,0c0,0,0,0,0,0c0,0,0,0,0,0c0,0,0,0,0,0c0,0,0,0,0,0
		c0,0,0,0,0,0c0,0,0,0,0,0c0,0,0,0,0,0c0,0,0,0,0,0c0,0,0,0,0,0l0,0l0,0l0,0L0.9,4.6L0.8,4.5c-0.1-0.2-0.1-0.4,0-0.6L1,3.6
		c0.2-0.1,0.4-0.1,0.6,0l0.1,0.1l0.1,0.1l0.1,0.1C2,4,2.1,4,2.2,4c0.1,0,0.2,0,0.3-0.1c0,0,0.1-0.1,0.1-0.1l0,0c0,0,0,0,0,0l0,0
		c0,0,0,0,0,0c0,0,0,0,0,0c0,0,0,0,0,0c0,0,0,0,0,0c0,0,0,0,0,0l0,0l0,0l0,0V3.6V3.4V3.2C2.6,3,2.7,2.9,3,2.8h0.4
		c0.2,0,0.4,0.2,0.4,0.4v0.1v0.2v0.1c0,0.1,0,0.2,0.1,0.2C3.9,3.9,3.9,4,4,4C4.1,4,4.2,4,4.4,3.9l0,0l0,0l0.2-0.2l0.1-0.1
		c0.2-0.1,0.4-0.1,0.6,0l0.3,0.3c0.1,0.2,0.1,0.4,0,0.6L5.4,4.6L5.3,4.7L5.2,4.8c0,0,0,0.1-0.1,0.1c0,0,0,0.1,0,0.1
		c0,0.1,0.1,0.3,0.2,0.3c0,0,0,0,0,0c0.1,0,0.1,0.1,0.2,0.1l0,0h0h0.3h0.1C6.1,5.4,6.2,5.6,6.3,5.8z M3.1,5.1C2.6,5.1,2.2,5.5,2.2,6
		c0,0.5,0.4,0.9,0.9,0.9C3.6,6.9,4,6.5,4,6C4,5.5,3.6,5.1,3.1,5.1z"/>
	<path class="st0" d="M9.1,2.9L9,3.2C8.9,3.3,8.8,3.4,8.6,3.3l-0.1,0L8.4,3.2l-0.1,0c0,0-0.1,0-0.1,0c0,0-0.1,0-0.1,0
		C8,3.3,8,3.4,8,3.6l0,0l0,0l0,0.1l0.1,0.1l0,0.1c0,0.1,0,0.3-0.2,0.4L7.7,4.3c-0.1,0-0.3,0-0.4-0.1l0-0.1L7.2,4l0-0.1c0,0,0,0,0,0
		c0,0-0.1-0.1-0.1-0.1c0,0,0,0,0,0c0,0,0,0,0,0l0,0l0,0c0,0-0.1,0-0.1,0l0,0c0,0,0,0,0,0c0,0,0,0,0,0l0,0c0,0,0,0,0,0c0,0,0,0,0,0
		l0,0c0,0-0.1,0-0.1,0l0,0c0,0,0,0,0,0c0,0-0.1,0.1-0.1,0.1l0,0l0,0l0,0.1L6.6,4.1l0,0.1C6.5,4.3,6.4,4.4,6.2,4.3L6,4.2
		C5.8,4.2,5.8,4,5.8,3.9l0-0.1l0.1-0.1l0,0l0-0.1l0,0c0-0.1,0-0.1,0-0.2c0-0.1-0.1-0.1-0.2-0.2c0,0,0,0,0,0c0,0,0,0,0,0c0,0,0,0,0,0
		c0,0,0,0,0,0c0,0,0,0,0,0l0,0l0,0l0,0c0,0,0,0,0,0c0,0,0,0,0,0c0,0,0,0,0,0c0,0,0,0,0,0c0,0,0,0,0,0c0,0,0,0,0,0c0,0,0,0,0,0l0,0
		L5.4,3.3l-0.1,0c-0.1,0-0.3,0-0.4-0.2L4.8,2.9c0-0.1,0-0.3,0.2-0.4l0.1,0l0.1-0.1l0,0l0.1,0l0,0c0.1,0,0.1-0.1,0.1-0.1l0,0
		c0-0.1,0-0.3-0.1-0.3c0,0,0,0,0,0c0,0,0,0,0,0c0,0,0,0,0,0L5,1.9l-0.1,0C4.8,1.7,4.7,1.6,4.8,1.4l0.1-0.2C5,1.1,5.1,1,5.3,1l0.1,0
		l0.1,0.1l0.1,0c0.1,0,0.1,0,0.2,0l0,0l0,0l0,0c0.1,0,0.1-0.1,0.2-0.2l0,0c0,0,0,0,0,0c0,0,0,0,0,0c0,0,0,0,0,0c0,0,0,0,0,0
		c0,0,0,0,0,0c0,0,0,0,0,0c0,0,0,0,0,0c0,0,0,0,0,0c0,0,0,0,0,0c0,0,0,0,0,0c0,0,0,0,0,0l0,0l0,0l0,0L5.8,0.6l0-0.1
		c0-0.1,0-0.3,0.2-0.4L6.2,0c0.1,0,0.3,0,0.4,0.2l0,0.1l0.1,0.1l0,0.1c0,0.1,0.1,0.1,0.1,0.1c0.1,0,0.1,0,0.2,0c0,0,0.1,0,0.1-0.1
		l0,0c0,0,0,0,0,0l0,0c0,0,0,0,0,0c0,0,0,0,0,0c0,0,0,0,0,0c0,0,0,0,0,0c0,0,0,0,0,0l0,0l0,0l0,0l0-0.1l0.1-0.1l0-0.1
		C7.4,0,7.5,0,7.7,0l0.2,0.1c0.1,0.1,0.2,0.2,0.2,0.4l0,0.1L8,0.7l0,0.1C8,0.8,8,0.9,8,1C8,1,8,1,8,1.1c0.1,0.1,0.2,0.1,0.3,0.1h0
		l0,0L8.5,1l0.1,0C8.8,1,8.9,1,9,1.2l0.1,0.2c0,0.1,0,0.3-0.1,0.4l-0.1,0L8.7,1.9l-0.1,0c0,0-0.1,0-0.1,0.1c0,0,0,0,0,0.1
		c0,0.1,0,0.2,0,0.3v0c0,0,0.1,0.1,0.1,0.1l0,0l0,0l0.2,0.1l0.1,0C9.1,2.6,9.2,2.8,9.1,2.9z M7.2,1.6c-0.3-0.1-0.7,0-0.8,0.4
		c-0.1,0.3,0,0.7,0.4,0.8c0.3,0.1,0.7,0,0.8-0.4C7.7,2.1,7.5,1.7,7.2,1.6z"/>
</g>
</svg>
