<?xml version="1.0" encoding="utf-8"?>
<!-- Generator: Adobe Illustrator 25.4.1, SVG Export Plug-In . SVG Version: 6.00 Build 0)  -->
<svg version="1.1" id="Capa_1" xmlns="http://www.w3.org/2000/svg" xmlns:xlink="http://www.w3.org/1999/xlink" x="0px" y="0px"
	 viewBox="0 0 9 9.1" style="enable-background:new 0 0 9 9.1;" xml:space="preserve">
<style type="text/css">
	.st0{fill:#FFFFFF;}
</style>
<g id="office_building_1_">
	<path id="office_building" class="st0" d="M8.4,0H4.6C4.2,0,4,0.3,4,0.6l0,3.5H0.7C0.3,4.2,0,4.5,0,4.8l0,4.3h3.9h0.6h1.1V7.3
		c0-0.1,0.1-0.2,0.2-0.2h1.3c0.1,0,0.2,0.1,0.2,0.2v1.8H9V0.6C9,0.3,8.7,0,8.4,0z M1.9,7.7c0,0.1-0.1,0.2-0.2,0.2H1
		c-0.1,0-0.2-0.1-0.2-0.2V7c0-0.1,0.1-0.2,0.2-0.2h0.7c0.1,0,0.2,0.1,0.2,0.2V7.7z M1.9,6.1c0,0.1-0.1,0.2-0.2,0.2H1
		c-0.1,0-0.2-0.1-0.2-0.2V5.5c0-0.1,0.1-0.2,0.2-0.2h0.7c0.1,0,0.2,0.1,0.2,0.2V6.1z M3.7,7.7c0,0.1-0.1,0.2-0.2,0.2H2.8
		c-0.1,0-0.2-0.1-0.2-0.2V7c0-0.1,0.1-0.2,0.2-0.2h0.7c0.1,0,0.2,0.1,0.2,0.2V7.7z M3.7,6.1c0,0.1-0.1,0.2-0.2,0.2H2.8
		c-0.1,0-0.2-0.1-0.2-0.2V5.5c0-0.1,0.1-0.2,0.2-0.2h0.7c0.1,0,0.2,0.1,0.2,0.2V6.1z M6.1,5.5c0,0.1-0.1,0.2-0.2,0.2H5.2
		C5.1,5.7,5,5.6,5,5.5V4.8c0-0.1,0.1-0.2,0.2-0.2h0.7c0.1,0,0.2,0.1,0.2,0.2V5.5z M6.1,3.7c0,0.1-0.1,0.2-0.2,0.2H5.2
		C5.1,3.9,5,3.8,5,3.7V3c0-0.1,0.1-0.2,0.2-0.2h0.7C6,2.8,6.1,2.9,6.1,3V3.7z M8,5.5c0,0.1-0.1,0.2-0.2,0.2H7.1
		C7,5.7,6.9,5.6,6.9,5.5V4.8c0-0.1,0.1-0.2,0.2-0.2h0.7C7.9,4.6,8,4.7,8,4.8V5.5z M8,3.7c0,0.1-0.1,0.2-0.2,0.2H7.1
		C7,3.9,6.9,3.8,6.9,3.7V3c0-0.1,0.1-0.2,0.2-0.2h0.7C7.9,2.8,8,2.9,8,3V3.7z M6.1,2c0,0.1-0.1,0.2-0.2,0.2H5.2C5.1,2.2,5,2.1,5,2
		V1.3c0-0.1,0.1-0.2,0.2-0.2h0.7c0.1,0,0.2,0.1,0.2,0.2V2z M8,2c0,0.1-0.1,0.2-0.2,0.2H7.1C7,2.2,6.9,2.1,6.9,2V1.3
		c0-0.1,0.1-0.2,0.2-0.2h0.7C7.9,1.1,8,1.2,8,1.3V2z"/>
</g>
</svg>
