<?xml version="1.0" encoding="utf-8"?>
<!-- Generator: Adobe Illustrator 25.4.1, SVG Export Plug-In . SVG Version: 6.00 Build 0)  -->
<svg version="1.1" id="Capa_1" xmlns="http://www.w3.org/2000/svg" xmlns:xlink="http://www.w3.org/1999/xlink" x="0px" y="0px"
	 viewBox="0 0 269.6 269.6" style="enable-background:new 0 0 269.6 269.6;" xml:space="preserve">
<style type="text/css">
	.st0{fill:#D8D8D8;}
	.st1{fill:#FFFFFF;}
</style>
<circle class="st0" cx="134.8" cy="134.8" r="134.8"/>
<g id="office_building_1_">
	<path id="office_building" class="st1" d="M207.2,49.4h-71.1c-6.6,0-11.5,5.4-11.5,11.9l0.1,66.3H62.7c-6.6,0-11.8,5.3-11.8,12
		l-0.4,80.7h73.7h10.6h21v-34.3c0-2.2,1.8-4,3.9-4h23.7c2.2,0,3.9,1.7,3.9,4v34.3H219V61.3C219,54.7,213.8,49.4,207.2,49.4z
		 M85.2,193.6c0,2.1-1.6,3.7-3.6,3.7H69.4c-2,0-3.7-1.6-3.7-3.7v-12.3c0-2,1.7-3.7,3.7-3.7h12.3c2.1,0,3.6,1.7,3.6,3.7V193.6z
		 M85.2,164.1c0,2.1-1.6,3.7-3.6,3.7H69.4c-2,0-3.7-1.6-3.7-3.7V152c0-2,1.7-3.6,3.7-3.6h12.3c2.1,0,3.6,1.6,3.6,3.6V164.1z
		 M119.7,193.6c0,2.1-1.6,3.7-3.7,3.7h-12.3c-2,0-3.7-1.6-3.7-3.7v-12.3c0-2,1.6-3.7,3.7-3.7H116c2,0,3.7,1.7,3.7,3.7V193.6z
		 M119.7,164.1c0,2.1-1.6,3.7-3.7,3.7h-12.3c-2,0-3.7-1.6-3.7-3.7V152c0-2,1.6-3.6,3.7-3.6H116c2,0,3.7,1.6,3.7,3.6V164.1z
		 M164.4,152c0,2-1.7,3.5-3.7,3.5h-12.3c-2,0-3.7-1.5-3.7-3.5v-12.3c0-2.1,1.7-3.7,3.7-3.7h12.3c2,0,3.7,1.6,3.7,3.7V152z
		 M164.4,118.7c0,2-1.7,3.7-3.7,3.7h-12.3c-2,0-3.7-1.6-3.7-3.7v-12.3c0-2,1.7-3.7,3.7-3.7h12.3c2,0,3.7,1.7,3.7,3.7V118.7z
		 M199.9,152c0,2-1.6,3.5-3.6,3.5H184c-2.1,0-3.7-1.5-3.7-3.5v-12.3c0-2.1,1.6-3.7,3.7-3.7h12.3c2,0,3.6,1.6,3.6,3.7V152z
		 M199.9,118.7c0,2-1.6,3.7-3.6,3.7H184c-2.1,0-3.7-1.6-3.7-3.7v-12.3c0-2,1.6-3.7,3.7-3.7h12.3c2,0,3.6,1.7,3.6,3.7V118.7z
		 M164.4,86.5c0,2-1.7,3.6-3.7,3.6h-12.3c-2,0-3.7-1.6-3.7-3.6V74.2c0-2,1.7-3.7,3.7-3.7h12.3c2,0,3.7,1.7,3.7,3.7V86.5z
		 M199.9,86.5c0,2-1.6,3.6-3.6,3.6H184c-2.1,0-3.7-1.6-3.7-3.6V74.2c0-2,1.6-3.7,3.7-3.7h12.3c2,0,3.6,1.7,3.6,3.7V86.5z"/>
</g>
</svg>
