<?xml version="1.0" encoding="utf-8"?>
<!-- Generator: Adobe Illustrator 25.4.1, SVG Export Plug-In . SVG Version: 6.00 Build 0)  -->
<svg version="1.1" id="Слой_1" xmlns="http://www.w3.org/2000/svg" xmlns:xlink="http://www.w3.org/1999/xlink" x="0px" y="0px"
	 viewBox="0 0 53.5 53.5" style="enable-background:new 0 0 53.5 53.5;" xml:space="preserve">
<style type="text/css">
	.st0{fill:#1C2D43;}
</style>
<g>
	<g>
		<path class="st0" d="M26.8,53.5C12,53.5,0,41.5,0,26.8S12,0,26.8,0s26.8,12,26.8,26.8S41.5,53.5,26.8,53.5z M26.8,4
			C14.2,4,4,14.2,4,26.8s10.2,22.8,22.8,22.8s22.8-10.2,22.8-22.8S39.3,4,26.8,4z"/>
	</g>
</g>
<path class="st0" d="M40.3,15.2c-0.1-0.3-0.2-0.4-0.4-0.5c-0.4-0.2-1.2,0.1-1.2,0.1S13.1,24,11.6,25.1c-0.3,0.2-0.4,0.3-0.5,0.5
	c-0.3,0.7,0.5,1,0.5,1l6.6,2.2c0,0,0.2,0,0.3,0c1.5-0.9,15.1-9.5,15.9-9.8c0.1,0,0.2,0,0.2,0.1c-0.3,1.1-12.1,11.6-12.1,11.6
	s0,0.1-0.1,0.1l0,0l-0.6,6.6c0,0-0.3,2,1.7,0c1.4-1.4,2.8-2.6,3.5-3.2c2.3,1.6,4.7,3.3,5.8,4.2c0.5,0.5,1,0.5,1.3,0.5
	c1,0,1.3-1.1,1.3-1.1s4.7-18.8,4.8-21.3c0-0.2,0-0.4,0-0.6C40.4,15.5,40.4,15.3,40.3,15.2z"/>
</svg>
