<?xml version="1.0" encoding="utf-8"?>
<!-- Generator: Adobe Illustrator 25.4.1, SVG Export Plug-In . SVG Version: 6.00 Build 0)  -->
<svg version="1.1" id="Слой_1" xmlns="http://www.w3.org/2000/svg" xmlns:xlink="http://www.w3.org/1999/xlink" x="0px" y="0px"
	 viewBox="0 0 53.6 53.6" style="enable-background:new 0 0 53.6 53.6;" xml:space="preserve">
<style type="text/css">
	.st0{fill:#1C2D43;}
</style>
<path class="st0" d="M26.8,0C12,0,0,12,0,26.8s12,26.8,26.8,26.8s26.8-12,26.8-26.8S41.6,0,26.8,0z M26.8,49.5
	C14.3,49.5,4,39.3,4,26.7S14.3,4,26.8,4s22.8,10.2,22.8,22.8S39.4,49.5,26.8,49.5z"/>
<path class="st0" d="M40.8,20.5c-0.2-0.6-5.3-1.6-6-0.7c-2,3-2.4,3.7-3,5c-1,2-1.1,3-2,3s-1-1.9-1-3c0-3.3,0.5-5.6-1-6c0,0-2,0-3,0
	c-1.6,0-3,1-3,1s-1.2,1-1,1c0.3,0,2-0.4,2,1c0,1,0,2,0,2s0,4-1,4s-3-4-5-7c-0.8-1.2-1-1-2-1c-1.1,0-2,0-3,0s-1.1,0.6-1,1
	c2,5,3.4,8.1,7.2,12.1c3.5,3.6,5.8,3.8,7.8,3.9c0.5,0,0,0,1,0s1-1.4,1-2c0-1,1-2,2-2s2.7,1.7,4,3c1,1,1,1,2,1s3,0,3,0s2-0.1,2-2
	c0-0.6-0.7-1.7-3-4c-2-2-3-1,0-5C39.6,23.3,41,21.1,40.8,20.5z"/>
</svg>
